<?xml version="1.0" standalone="no"?>
<!DOCTYPE svg PUBLIC "-//W3C//DTD SVG 1.1//EN" "http://www.w3.org/Graphics/SVG/1.1/DTD/svg11.dtd" >
<svg xmlns="http://www.w3.org/2000/svg">
<metadata></metadata>
<defs>
<font id="DaubentonRegular" horiz-adv-x="1837" >
<font-face units-per-em="2048" ascent="1536" descent="-512" />
<missing-glyph horiz-adv-x="819" />
<glyph horiz-adv-x="0" />
<glyph horiz-adv-x="2048" />
<glyph unicode=" "  horiz-adv-x="819" />
<glyph unicode="&#x09;" horiz-adv-x="819" />
<glyph unicode="&#xa0;" horiz-adv-x="819" />
<glyph unicode="!" horiz-adv-x="610" d="M137 59l125 125l125 -125l-125 -125zM164 1460h182l-31 -1159h-120z" />
<glyph unicode="&#x22;" horiz-adv-x="727" d="M18 1194q14 33 25 66q10 29 17.5 60.5t7.5 59.5q0 27 -7.5 53.5t-17.5 49.5q-10 25 -25 47h304q-35 -74 -87.5 -135.5t-99.5 -106.5q-57 -53 -117 -94zM387 1194q14 33 25 66q10 29 17 60.5t7 59.5q0 27 -7 53.5t-17 49.5q-10 25 -25 47h303q-35 -74 -87 -135.5 t-99 -106.5q-57 -53 -117 -94z" />
<glyph unicode="&#x26;" horiz-adv-x="1679" d="M86 436q0 123 68.5 224.5t179.5 158.5l-19 17q-6 6 -13 11t-13 11q-49 47 -78 109.5t-29 134.5q0 74 32 139.5t87 114.5t130 76.5t159 27.5q96 0 184 -39q14 -6 27.5 -13t27.5 -15l43 26l-14 -45v-2l-45 -143l-10 -35q-33 74 -117 115q-59 27 -125 26q-14 0 -27.5 -1 t-25.5 -3q-92 -16 -151.5 -77.5t-59.5 -143.5q0 -88 63 -152l31 -24l205 -168l39 -31l262 -215l82 -67l74 104l235 334h43h238l-238 -238l-227 -303l422 -346h-254l-258 225q-16 -23 -31.5 -44t-36.5 -42q-68 -68 -162 -107.5t-204 -39.5q-102 0 -192.5 35t-157 94 t-105.5 139t-39 172zM248 436q0 -63 25.5 -119.5t70.5 -98.5t105.5 -66.5t130.5 -24.5t129 25.5t106 68.5l68 96q4 6 8 19l-2 2l-453 393q-84 -43 -136 -123t-52 -172z" />
<glyph unicode="'" horiz-adv-x="440" d="M59 1194q14 33 25 66q10 29 17.5 60.5t7.5 59.5q0 27 -7.5 53.5t-17.5 49.5q-10 25 -25 47h303q-35 -74 -87 -135.5t-99 -106.5q-57 -53 -117 -94z" />
<glyph unicode="*" horiz-adv-x="364" d="M61 1581l125 -125l125 125l-125 125zM98 1495v176h176v-176h-176zM186 1583z" />
<glyph unicode="," horiz-adv-x="468" d="M82 166h301q-35 -74 -86 -135.5t-98 -106.5q-55 -53 -117 -94q14 33 24 66q10 29 17.5 60.5t7.5 59.5q0 27 -7 53.5t-18 49.5q-10 25 -24 47z" />
<glyph unicode="-" horiz-adv-x="1177" d="M145 711v110h883v-110h-883z" />
<glyph unicode="." horiz-adv-x="364" d="M61 66l125 124l125 -124l-125 -125zM186 66z" />
<glyph unicode="/" horiz-adv-x="610" d="M10 0l420 1460h182l-440 -1460h-162z" />
<glyph unicode="0" d="M104 729q0 154 63.5 289t173.5 236.5t256 160t314 58.5t314.5 -58.5t256 -160t173 -236.5t63.5 -289t-63.5 -290t-173 -236.5t-256 -158.5t-314.5 -58t-314 58t-256 158.5t-173.5 236.5t-63.5 290zM252 739q0 -121 52 -233.5t141.5 -199.5t209 -139t256.5 -52t257 52 t209 139t141.5 199.5t52.5 233.5t-52.5 233.5t-141.5 200t-208.5 139.5t-257.5 52q-137 0 -256.5 -52t-209 -139.5t-141.5 -200t-52 -233.5z" />
<glyph unicode="1" horiz-adv-x="716" d="M51 1038l320 418h182l-43 -43v-1290l125 -125h-125h-156h-125l125 125v1085l-108 -170h-195z" />
<glyph unicode="2" horiz-adv-x="1161" d="M92 -2l645 1034q14 31 15 74q0 47 -20.5 88t-56.5 71.5t-83 48t-103 17.5q-84 0 -149.5 -39t-93.5 -102l-70 227l45 -28q51 33 111.5 50t128.5 17q84 0 160.5 -24.5t136 -68.5t95.5 -105.5t36 -135.5q0 -55 -24.5 -120.5t-53.5 -112.5q-10 -16 -48 -76.5t-90 -141.5 t-110.5 -173t-107.5 -170t-84 -133.5t-39 -61.5h606l6 4l121 121v-260h-973z" />
<glyph unicode="3" horiz-adv-x="1251" d="M92 68l105 231l73 166q-2 -68 25 -129.5t76 -107.5t115.5 -72.5t146.5 -22.5q76 0 141.5 23.5t114.5 64.5t77.5 96.5t28.5 118.5q0 61 -27.5 115.5t-74.5 95.5t-111.5 65.5t-138.5 26.5h-154l373 582h-370l-117 -117l20 252h707l-371 -582q103 -12 193 -63 q104 -59 166.5 -156.5t62.5 -214.5q0 -92 -39 -172t-105.5 -139t-156.5 -94t-190 -35q-125 0 -229.5 49t-170.5 135z" />
<glyph unicode="4" horiz-adv-x="1245" d="M92 389l666 1067h194l-41 -41v-891h117l125 127v-379l-117 117h-125v-266l127 -125h-407l127 125v266h-666zM332 524h426v684z" />
<glyph unicode="5" horiz-adv-x="1273" d="M92 68l105 231l73 166q0 -10 -1 -16.5t-1 -12.5q0 -63 29 -118.5t78 -96.5t115.5 -64.5t142.5 -23.5t141.5 23.5t114.5 64.5t77.5 96.5t28.5 118.5q0 86 -41 142.5t-106.5 90t-146 49t-161.5 20.5t-155 4t-121 -1q-2 0 -2 39t1 95.5t1 118v104.5v358h785l22 -252 l-117 117h-534v-203v-59.5t1 -68.5t1 -62.5v-42.5q98 4 190 -2q78 -4 164 -20.5t148 -51.5q104 -59 166.5 -156.5t62.5 -214.5q0 -92 -39 -172t-105.5 -139t-156.5 -94t-190 -35q-125 0 -229.5 49t-170.5 135z" />
<glyph unicode="6" horiz-adv-x="1191" d="M92 535q0 188 74 354t190.5 290t261 195.5t287.5 71.5q39 0 76 -6q-109 -16 -223.5 -72.5t-215 -147t-174 -208t-100.5 -252.5q66 51 148 79.5t176 28.5q102 0 191 -34.5t156 -94t105.5 -139.5t38.5 -170q0 -78 -27.5 -146.5t-77.5 -125t-118.5 -95t-148.5 -57.5 q-29 -6 -58.5 -10t-60.5 -4q-66 0 -126 14t-114 41q-86 41 -146.5 108.5t-86.5 153.5q-6 16 -9.5 31.5t-7.5 32.5v6q0 2 -1 4t-1 4q-4 37 -6 73t-2 75zM260 430q0 -37 10 -74q14 -51 44 -94t72 -73.5t94 -48t112 -17.5q33 0 67 6q106 23 179 97.5t84 179.5v24 q0 63 -26 119.5t-71 98.5t-105.5 66.5t-127.5 24.5q-72 0 -134.5 -26.5t-109.5 -73.5q-41 -41 -64.5 -94t-23.5 -115z" />
<glyph unicode="7" horiz-adv-x="1241" d="M92 -2l111 111l758 1212h-711l-117 -117l41 252h1024l-862 -1380l78 -78h-322z" />
<glyph unicode="8" horiz-adv-x="1171" d="M92 436q0 125 70.5 227.5t185.5 159.5q-72 47 -112.5 120t-40.5 159q0 74 31.5 138.5t87 112.5t130 75.5t158.5 27.5t159 -27.5t130 -75.5t87 -112.5t32 -138.5q0 -90 -46 -166t-124 -123q109 -59 173 -157.5t64 -219.5q0 -92 -39 -172t-105.5 -139t-156.5 -94t-190 -35 q-102 0 -192.5 35t-157 94t-105.5 139t-39 172zM254 436q0 -63 25.5 -119.5t70.5 -98.5t105.5 -66.5t130.5 -24.5q68 0 128 24.5t105 66.5t70.5 98.5t25.5 119.5t-25.5 122.5t-69.5 106t-103.5 74t-126.5 27.5q-70 0 -130.5 -27.5t-106.5 -74t-72.5 -105.5t-26.5 -123z M344 1102q0 -47 20.5 -91t55.5 -79t82 -55.5t100 -20.5t100.5 20.5t82 55.5t55 79t20.5 91q0 45 -20.5 89t-55 79t-82 55.5t-100.5 20.5t-100 -20.5t-82 -55.5t-55.5 -79t-20.5 -89z" />
<glyph unicode="9" horiz-adv-x="1054" d="M51 -2q125 18 252 90t230.5 183.5t171 258t73.5 314.5q-55 -45 -125.5 -69.5t-152.5 -24.5q-84 0 -159 27.5t-130 75.5t-87 111.5t-32 137.5t32 138.5t87 112.5t130 75.5t159 27.5q72 0 143 -22q92 -29 156.5 -91.5t93.5 -144.5q16 -47 24.5 -100.5t12.5 -100.5 q4 -53 2 -108q0 -188 -72 -352t-186.5 -285t-258 -189.5t-286.5 -68.5q-20 0 -38.5 1t-39.5 3zM242 1102q0 -47 20.5 -89t55 -74t82 -51.5t100.5 -19.5t100 19.5t82 51.5t55.5 74t20.5 89v16q-4 14 -6 26.5t-7 26.5q-25 68 -92 117t-153 49q-53 0 -100.5 -19.5t-82 -51 t-55 -74.5t-20.5 -90z" />
<glyph unicode=":" horiz-adv-x="397" d="M82 66l125 124l125 -124l-125 -125zM82 764l125 -125l125 125l-125 127zM207 66zM207 764z" />
<glyph unicode=";" horiz-adv-x="471" d="M102 166h301q-35 -74 -86 -135.5t-98 -106.5q-55 -53 -117 -94q14 33 25 66q10 29 17.5 60.5t7.5 59.5q0 27 -7.5 53.5t-17.5 49.5q-10 25 -25 47zM127 764l127 127l125 -127l-125 -125z" />
<glyph unicode="&#x3e;" horiz-adv-x="1705" />
<glyph unicode="?" horiz-adv-x="831" d="M55 1419l45 -28q109 69 242 69q119 0 208 -46t140 -118.5t61.5 -162t-26.5 -175.5q-8 -18 -35.5 -49.5t-63.5 -70.5t-77 -84t-75 -86t-56.5 -78t-22.5 -60q0 -80 25.5 -128t73.5 -99l-156 -2q-33 55 -54.5 110.5t-21.5 127.5q0 35 50 98t112.5 134t120 137.5t71.5 109.5 q12 39 1 93t-42.5 103.5t-84 84t-119.5 34.5q-78 0 -145.5 -36.5t-100.5 -106.5l-55 180zM285 61l125 125l125 -125l-125 -124z" />
<glyph unicode="A" horiz-adv-x="1693" d="M45 2l135 137l658 1393l655 -1393l135 -137h-405l90 90l-256 639h-441l-256 -639l91 -90h-406zM653 819h369l-184 461z" />
<glyph unicode="B" horiz-adv-x="1343" d="M74 2l127 125v1208l-127 125h127h112h41h84l-84 -84v-1290l84 -84h-84h-41h-112h-127zM369 1335q49 57 122.5 91t159.5 34q74 0 138.5 -24.5t113.5 -67.5t77 -101.5t28 -123.5q0 -88 -49.5 -161t-129.5 -114q98 -4 183.5 -38.5t148 -92t99 -132.5t36.5 -161 q0 -88 -38.5 -165.5t-106.5 -135t-158 -91.5t-192 -34q-125 0 -229.5 48.5t-172.5 128.5q59 -47 135 -76t164 -29t167 28.5t136.5 79t91 117t33.5 142.5t-33.5 143.5t-91 117.5t-136.5 78.5t-167 28.5q-59 0 -120 -16v16v9v18q61 2 115.5 24.5t94 58.5t62 84t22.5 101 q0 55 -24.5 104.5t-67.5 85.5t-100 57.5t-123 21.5q-53 0 -100 -14.5t-88 -39.5z" />
<glyph unicode="C" horiz-adv-x="1583" d="M74 729q0 154 63.5 289t173 236.5t257 160t315.5 58.5q127 0 242.5 -35t213.5 -97h131l21 -378q-37 80 -98.5 152.5t-140 127.5t-173 88t-196.5 33q-137 0 -257 -52t-210 -139.5t-142.5 -200t-52.5 -233.5t52.5 -233.5t142.5 -199.5t209.5 -139t257.5 -52q92 0 179 27.5 t164 73.5t140.5 106.5t106.5 126.5l-3 -322h-112q-102 -68 -222 -104.5t-253 -36.5q-168 0 -315.5 58t-257 158.5t-173 236.5t-63.5 290z" />
<glyph unicode="D" horiz-adv-x="1705" d="M104 2l125 125v1208l-125 125h125h113h43h84l-84 -84v-30q98 59 212 93t241 34q168 0 314 -58.5t256 -160t173.5 -236.5t63.5 -289t-63.5 -290t-173.5 -236.5t-256 -158.5t-314 -58q-127 0 -241 33.5t-212 93.5v-27l84 -84h-84h-43h-113h-125zM385 201q86 -47 183.5 -74 t205.5 -27q150 0 282 50.5t230 137.5t154.5 202.5t56.5 248.5v15q-4 129 -61.5 243.5t-155.5 198.5t-228 133t-278 49q-109 0 -206 -41t-183 -88v-1048z" />
<glyph unicode="E" horiz-adv-x="1290" d="M104 2l125 125v1208l-125 125h125h156h125h473l21 -252l-117 117h-502v-504h211l59 60v-60v-24v-41v-25v-59l-59 59h-211v-594h692l125 125l-20 -260h-672h-125h-156h-125z" />
<glyph unicode="F" horiz-adv-x="1167" d="M104 2l125 125v1208l-125 125h125h156h125h473l21 -252l-117 117h-502v-504h211l59 60v-60v-24v-41v-25v-59l-59 59h-211v-604l125 -125h-125h-156h-125z" />
<glyph unicode="G" horiz-adv-x="1705" d="M104 729q0 154 63.5 289t173.5 236.5t256 160t314 58.5q129 0 244 -35t213 -97h131l23 -378q-37 80 -98.5 152.5t-141.5 127.5t-174 88t-197 33q-137 0 -256.5 -52t-209 -139.5t-141.5 -200t-52 -233.5t52 -233.5t141.5 -199.5t209 -139t256.5 -52q80 0 154 22.5 t139.5 59t122.5 84t103 98.5v76l-127 125h127h153l-16 -115v-305h-135q-106 -82 -238.5 -128t-282.5 -46q-168 0 -314 58t-256 158.5t-173.5 236.5t-63.5 290z" />
<glyph unicode="H" horiz-adv-x="1671" d="M104 2l125 125v1208l-125 125h125h156h125l-125 -125v-514h883v514l-125 125h125h155h125l-125 -125v-1208l125 -125h-125h-155h-125l125 125v604h-883v-604l125 -125h-125h-156h-125z" />
<glyph unicode="I" horiz-adv-x="624" d="M104 2l125 125v1208l-125 125h125h156h125l-125 -125v-1208l125 -125h-125h-156h-125z" />
<glyph unicode="J" horiz-adv-x="1378" d="M104 72l105 231l74 166v-6v-8q-2 -4 -2 -15q0 -63 28.5 -118.5t77.5 -96.5t115.5 -64.5t142.5 -23.5t141.5 23.5t114.5 64.5t78 96.5t29 118.5v895l-125 125h125h155h125l-125 -125v-925q-8 -86 -49 -160t-106 -127q-4 -6 -11.5 -11.5t-13.5 -9.5q-63 -47 -142 -72.5 t-167 -25.5q-125 0 -229.5 49t-170.5 135z" />
<glyph unicode="K" horiz-adv-x="1417" d="M104 2l125 125v1208l-125 125h125h156h125l-125 -125v-528l455 653h43h237l-237 -237l-344 -416l866 -805h-254l-766 780v-655l125 -125h-125h-156h-125z" />
<glyph unicode="L" horiz-adv-x="1337" d="M104 2l125 125v1208l-125 125h125h156h125l-125 -125v-1198h692l125 125l-20 -260h-672h-125h-156h-125z" />
<glyph unicode="M" horiz-adv-x="2017" d="M104 2l113 113l148 1247l-117 98h219l537 -1063l536 1063h219l-117 -98l146 -1247l115 -113h-101h-26h-154h-125l117 117l-74 1061l-536 -1145l-537 1145l-74 -1061l117 -117h-125h-156h-24h-101z" />
<glyph unicode="N" horiz-adv-x="1533" d="M-6 1460h229l940 -1208v1081l-127 127h127h154h127l-127 -127v-1210l127 -127h-236l-864 1085v-958l127 -127h-127h-156h-125l125 127v1137z" />
<glyph unicode="O" horiz-adv-x="1757" d="M63 729q0 154 63.5 289t173.5 236.5t256 160t314 58.5t314.5 -58.5t256 -160t173 -236.5t63.5 -289t-63.5 -290t-173 -236.5t-256 -158.5t-314.5 -58t-314 58t-256 158.5t-173.5 236.5t-63.5 290zM211 739q0 -121 52 -233.5t141.5 -199.5t209 -139t256.5 -52t257 52 t209 139t141.5 199.5t52.5 233.5t-52.5 233.5t-141.5 200t-208.5 139.5t-257.5 52q-137 0 -256.5 -52t-209 -139.5t-141.5 -200t-52 -233.5z" />
<glyph unicode="P" horiz-adv-x="1210" d="M72 2l127 125v1208l-127 125h127h112h41h84l-84 -84v-20q63 53 144.5 85t173.5 32q94 0 178 -34t147.5 -91.5t99 -134t35.5 -164.5t-35.5 -166t-99 -135.5t-147.5 -91t-178 -33.5q-92 0 -173 31.5t-145 84.5v-612l127 -125h-127h-153h-127zM317 1049q0 -61 26 -114.5 t70 -94.5t103 -66.5t127 -30.5h8h19q72 0 134 24t109.5 65.5t75 97t27.5 119.5q0 2 -1 3t-1 3v8v2q-4 59 -33 111.5t-75 91.5t-106.5 61.5t-129.5 22.5h-2h-2h-9h-2q-70 -2 -131 -27t-107 -65.5t-73 -95t-27 -115.5zM643 743h8h-8zM657 1352h11h-2h-9zM1014 1055q0 -2 1 -3 t1 -3q0 2 -1 3t-1 3zM1014 1063v2v-2z" />
<glyph unicode="Q" horiz-adv-x="1826" d="M104 727q0 154 63.5 290t173.5 236.5t256 158.5t314 58t314.5 -58t256 -158.5t173 -236.5t63.5 -290q0 -109 -31.5 -208t-90 -185t-138.5 -154.5t-178 -113.5l328 -228h-414l-119 160q-41 -8 -82 -11t-82 -3q-168 0 -314 58t-256 159.5t-173.5 236.5t-63.5 289zM252 737 q0 -121 52 -233.5t141.5 -198.5t209 -138t256.5 -52h38t38 4l-141 190q39 0 83 -16.5t86 -39t77.5 -48t60.5 -45.5q92 37 169 96t132 136t86 165t31 180q0 121 -52.5 233.5t-141.5 199.5t-208.5 139.5t-257.5 52.5q-137 0 -256.5 -52.5t-209 -139.5t-141.5 -199.5 t-52 -233.5z" />
<glyph unicode="R" horiz-adv-x="1294" d="M53 2l127 125v1208l-127 125h127h113h41h84l-84 -84v-28q59 61 142 97t181 36q88 0 167 -31t137.5 -84t92 -125t33.5 -154t-33.5 -153.5t-92 -124.5t-137.5 -84t-167 -31h-20t-21 2l2 -2l736 -692h-254l-766 825v-700l127 -125h-127h-154h-127zM313 1087q0 -57 24.5 -107 t68 -87t100.5 -58.5t123 -21.5h2h2q63 0 120.5 21.5t99.5 58.5t66.5 87t24.5 107t-24.5 107.5t-66.5 87.5t-99.5 58.5t-120.5 21.5h-2h-2q-66 0 -123 -21.5t-100.5 -58.5t-68 -87.5t-24.5 -107.5z" />
<glyph unicode="S" horiz-adv-x="1124" d="M-6 72l180 397q0 -72 28.5 -133.5t78 -105.5t115 -68.5t139.5 -24.5q76 0 142 23.5t115.5 64.5t78 96.5t28.5 118.5t-27.5 115.5t-77 92.5t-117 65.5t-147.5 31.5q-70 6 -134 36t-114.5 77t-80 109.5t-29.5 134.5q0 74 32 139.5t87 114.5t130 76.5t159 27.5 q66 0 126 -17.5t111 -49.5l45 26l-14 -47l-55 -178q-31 68 -98.5 104.5t-143.5 36.5q-55 0 -103.5 -17.5t-84 -48t-56 -71.5t-20.5 -88t20.5 -87t56 -68.5t84 -47t103.5 -24.5q78 -8 160 -28.5t139 -57.5q102 -66 153.5 -151t51.5 -204q0 -90 -39 -169.5t-105.5 -139 t-155.5 -94.5t-192 -35q-123 0 -227.5 49t-171.5 135z" />
<glyph unicode="T" horiz-adv-x="1318" d="M63 1208l21 252h479h37h82h37h479l21 -252l-117 117h-383v-1198l125 -125h-125h-156h-125l125 125v1198h-383z" />
<glyph unicode="U" horiz-adv-x="1425" d="M104 1460h125h156h125l-125 -125v-573v-322q0 -63 26.5 -119.5t71.5 -97.5t106.5 -65.5t131.5 -24.5t130 24.5t106.5 65.5t73 97.5t26.5 119.5v322v573l-127 125h127h153h125l-125 -125v-864q0 -8 1 -15t1 -16q0 -90 -38.5 -170t-105.5 -139t-157 -94t-190 -35 q-102 0 -191.5 35t-156 94t-105.5 139t-39 170v23v872z" />
<glyph unicode="V" horiz-adv-x="1685" d="M104 1460h125h146h10h125l-88 -90l422 -1034l422 1034l-88 90h125h10h145h125l-213 -213l-450 -1097l-76 -183l-76 183l-451 1097z" />
<glyph unicode="W" horiz-adv-x="2553" d="M104 1460h125h146h10h125l-88 -90l422 -1034l459 1159l458 -1159l422 1034l-90 90h127h10h144h127l-215 -213l-451 -1097l-74 -183l-75 183l-383 931l-383 -931l-76 -183l-76 183l-451 1097z" />
<glyph unicode="X" horiz-adv-x="1329" d="M53 2l111 111l426 682l-357 571l-92 94h35h90h64h125l-76 -78l289 -462l290 464l-77 76h125h2h61h92h35l-94 -94l-357 -571l426 -682l111 -111h-41h-84h-72h-124l77 78l-370 592l-371 -596l74 -74h-125h-66h-84h-43z" />
<glyph unicode="Y" horiz-adv-x="1449" d="M104 1460h35h90h64h125l-76 -78l375 -471l373 473l-76 76h125h63h90h35l-92 -94l-442 -580v-239v-420l127 -125h-127h-154h-125l125 125v420v239l-442 580z" />
<glyph unicode="Z" horiz-adv-x="1230" d="M104 2l826 1323h-709l-117 -117l21 252h473h125h291v-2v2h155l-825 -1323h606l127 125l-22 -260h-797h-154z" />
<glyph unicode="\" horiz-adv-x="610" d="M10 1460h183l419 -1460h-161z" />
<glyph unicode="_" horiz-adv-x="1177" d="M145 -100h883v-90h-883v90z" />
<glyph unicode="a" horiz-adv-x="1693" d="M45 2l135 137l658 1393l655 -1393l135 -137h-405l90 90l-256 639h-441l-256 -639l91 -90h-406zM653 819h369l-184 461z" />
<glyph unicode="b" horiz-adv-x="1343" d="M74 2l127 125v1208l-127 125h127h112h41h84l-84 -84v-1290l84 -84h-84h-41h-112h-127zM369 1335q49 57 122.5 91t159.5 34q74 0 138.5 -24.5t113.5 -67.5t77 -101.5t28 -123.5q0 -88 -49.5 -161t-129.5 -114q98 -4 183.5 -38.5t148 -92t99 -132.5t36.5 -161 q0 -88 -38.5 -165.5t-106.5 -135t-158 -91.5t-192 -34q-125 0 -229.5 48.5t-172.5 128.5q59 -47 135 -76t164 -29t167 28.5t136.5 79t91 117t33.5 142.5t-33.5 143.5t-91 117.5t-136.5 78.5t-167 28.5q-59 0 -120 -16v16v9v18q61 2 115.5 24.5t94 58.5t62 84t22.5 101 q0 55 -24.5 104.5t-67.5 85.5t-100 57.5t-123 21.5q-53 0 -100 -14.5t-88 -39.5z" />
<glyph unicode="c" horiz-adv-x="1583" d="M74 729q0 154 63.5 289t173 236.5t257 160t315.5 58.5q127 0 242.5 -35t213.5 -97h131l21 -378q-37 80 -98.5 152.5t-140 127.5t-173 88t-196.5 33q-137 0 -257 -52t-210 -139.5t-142.5 -200t-52.5 -233.5t52.5 -233.5t142.5 -199.5t209.5 -139t257.5 -52q92 0 179 27.5 t164 73.5t140.5 106.5t106.5 126.5l-3 -322h-112q-102 -68 -222 -104.5t-253 -36.5q-168 0 -315.5 58t-257 158.5t-173 236.5t-63.5 290z" />
<glyph unicode="d" horiz-adv-x="1705" d="M104 2l125 125v1208l-125 125h125h113h43h84l-84 -84v-30q98 59 212 93t241 34q168 0 314 -58.5t256 -160t173.5 -236.5t63.5 -289t-63.5 -290t-173.5 -236.5t-256 -158.5t-314 -58q-127 0 -241 33.5t-212 93.5v-27l84 -84h-84h-43h-113h-125zM385 201q86 -47 183.5 -74 t205.5 -27q150 0 282 50.5t230 137.5t154.5 202.5t56.5 248.5v15q-4 129 -61.5 243.5t-155.5 198.5t-228 133t-278 49q-109 0 -206 -41t-183 -88v-1048z" />
<glyph unicode="e" horiz-adv-x="1290" d="M104 2l125 125v1208l-125 125h125h156h125h473l21 -252l-117 117h-502v-504h211l59 60v-60v-24v-41v-25v-59l-59 59h-211v-594h692l125 125l-20 -260h-672h-125h-156h-125z" />
<glyph unicode="f" horiz-adv-x="1167" d="M104 2l125 125v1208l-125 125h125h156h125h473l21 -252l-117 117h-502v-504h211l59 60v-60v-24v-41v-25v-59l-59 59h-211v-604l125 -125h-125h-156h-125z" />
<glyph unicode="g" horiz-adv-x="1705" d="M104 729q0 154 63.5 289t173.5 236.5t256 160t314 58.5q129 0 244 -35t213 -97h131l23 -378q-37 80 -98.5 152.5t-141.5 127.5t-174 88t-197 33q-137 0 -256.5 -52t-209 -139.5t-141.5 -200t-52 -233.5t52 -233.5t141.5 -199.5t209 -139t256.5 -52q80 0 154 22.5 t139.5 59t122.5 84t103 98.5v76l-127 125h127h153l-16 -115v-305h-135q-106 -82 -238.5 -128t-282.5 -46q-168 0 -314 58t-256 158.5t-173.5 236.5t-63.5 290z" />
<glyph unicode="h" horiz-adv-x="1671" d="M104 2l125 125v1208l-125 125h125h156h125l-125 -125v-514h883v514l-125 125h125h155h125l-125 -125v-1208l125 -125h-125h-155h-125l125 125v604h-883v-604l125 -125h-125h-156h-125z" />
<glyph unicode="i" horiz-adv-x="624" d="M104 2l125 125v1208l-125 125h125h156h125l-125 -125v-1208l125 -125h-125h-156h-125z" />
<glyph unicode="j" horiz-adv-x="1378" d="M104 72l105 231l74 166v-6v-8q-2 -4 -2 -15q0 -63 28.5 -118.5t77.5 -96.5t115.5 -64.5t142.5 -23.5t141.5 23.5t114.5 64.5t78 96.5t29 118.5v895l-125 125h125h155h125l-125 -125v-925q-8 -86 -49 -160t-106 -127q-4 -6 -11.5 -11.5t-13.5 -9.5q-63 -47 -142 -72.5 t-167 -25.5q-125 0 -229.5 49t-170.5 135z" />
<glyph unicode="k" horiz-adv-x="1417" d="M104 2l125 125v1208l-125 125h125h156h125l-125 -125v-528l455 653h43h237l-237 -237l-344 -416l866 -805h-254l-766 780v-655l125 -125h-125h-156h-125z" />
<glyph unicode="l" horiz-adv-x="1337" d="M104 2l125 125v1208l-125 125h125h156h125l-125 -125v-1198h692l125 125l-20 -260h-672h-125h-156h-125z" />
<glyph unicode="m" horiz-adv-x="2017" d="M104 2l113 113l148 1247l-117 98h219l537 -1063l536 1063h219l-117 -98l146 -1247l115 -113h-101h-26h-154h-125l117 117l-74 1061l-536 -1145l-537 1145l-74 -1061l117 -117h-125h-156h-24h-101z" />
<glyph unicode="n" horiz-adv-x="1533" d="M-6 1460h229l940 -1208v1081l-127 127h127h154h127l-127 -127v-1210l127 -127h-236l-864 1085v-958l127 -127h-127h-156h-125l125 127v1137z" />
<glyph unicode="o" horiz-adv-x="1757" d="M63 729q0 154 63.5 289t173.5 236.5t256 160t314 58.5t314.5 -58.5t256 -160t173 -236.5t63.5 -289t-63.5 -290t-173 -236.5t-256 -158.5t-314.5 -58t-314 58t-256 158.5t-173.5 236.5t-63.5 290zM211 739q0 -121 52 -233.5t141.5 -199.5t209 -139t256.5 -52t257 52 t209 139t141.5 199.5t52.5 233.5t-52.5 233.5t-141.5 200t-208.5 139.5t-257.5 52q-137 0 -256.5 -52t-209 -139.5t-141.5 -200t-52 -233.5z" />
<glyph unicode="p" horiz-adv-x="1210" d="M72 2l127 125v1208l-127 125h127h112h41h84l-84 -84v-20q63 53 144.5 85t173.5 32q94 0 178 -34t147.5 -91.5t99 -134t35.5 -164.5t-35.5 -166t-99 -135.5t-147.5 -91t-178 -33.5q-92 0 -173 31.5t-145 84.5v-612l127 -125h-127h-153h-127zM317 1049q0 -61 26 -114.5 t70 -94.5t103 -66.5t127 -30.5h8h19q72 0 134 24t109.5 65.5t75 97t27.5 119.5q0 2 -1 3t-1 3v8v2q-4 59 -33 111.5t-75 91.5t-106.5 61.5t-129.5 22.5h-2h-2h-9h-2q-70 -2 -131 -27t-107 -65.5t-73 -95t-27 -115.5zM643 743h8h-8zM657 1352h11h-2h-9zM1014 1055q0 -2 1 -3 t1 -3q0 2 -1 3t-1 3zM1014 1063v2v-2z" />
<glyph unicode="q" horiz-adv-x="1826" d="M104 727q0 154 63.5 290t173.5 236.5t256 158.5t314 58t314.5 -58t256 -158.5t173 -236.5t63.5 -290q0 -109 -31.5 -208t-90 -185t-138.5 -154.5t-178 -113.5l328 -228h-414l-119 160q-41 -8 -82 -11t-82 -3q-168 0 -314 58t-256 159.5t-173.5 236.5t-63.5 289zM252 737 q0 -121 52 -233.5t141.5 -198.5t209 -138t256.5 -52h38t38 4l-141 190q39 0 83 -16.5t86 -39t77.5 -48t60.5 -45.5q92 37 169 96t132 136t86 165t31 180q0 121 -52.5 233.5t-141.5 199.5t-208.5 139.5t-257.5 52.5q-137 0 -256.5 -52.5t-209 -139.5t-141.5 -199.5 t-52 -233.5z" />
<glyph unicode="r" horiz-adv-x="1294" d="M53 2l127 125v1208l-127 125h127h113h41h84l-84 -84v-28q59 61 142 97t181 36q88 0 167 -31t137.5 -84t92 -125t33.5 -154t-33.5 -153.5t-92 -124.5t-137.5 -84t-167 -31h-20t-21 2l2 -2l736 -692h-254l-766 825v-700l127 -125h-127h-154h-127zM313 1087q0 -57 24.5 -107 t68 -87t100.5 -58.5t123 -21.5h2h2q63 0 120.5 21.5t99.5 58.5t66.5 87t24.5 107t-24.5 107.5t-66.5 87.5t-99.5 58.5t-120.5 21.5h-2h-2q-66 0 -123 -21.5t-100.5 -58.5t-68 -87.5t-24.5 -107.5z" />
<glyph unicode="s" horiz-adv-x="1124" d="M-6 72l180 397q0 -72 28.5 -133.5t78 -105.5t115 -68.5t139.5 -24.5q76 0 142 23.5t115.5 64.5t78 96.5t28.5 118.5t-27.5 115.5t-77 92.5t-117 65.5t-147.5 31.5q-70 6 -134 36t-114.5 77t-80 109.5t-29.5 134.5q0 74 32 139.5t87 114.5t130 76.5t159 27.5 q66 0 126 -17.5t111 -49.5l45 26l-14 -47l-55 -178q-31 68 -98.5 104.5t-143.5 36.5q-55 0 -103.5 -17.5t-84 -48t-56 -71.5t-20.5 -88t20.5 -87t56 -68.5t84 -47t103.5 -24.5q78 -8 160 -28.5t139 -57.5q102 -66 153.5 -151t51.5 -204q0 -90 -39 -169.5t-105.5 -139 t-155.5 -94.5t-192 -35q-123 0 -227.5 49t-171.5 135z" />
<glyph unicode="t" horiz-adv-x="1318" d="M63 1208l21 252h479h37h82h37h479l21 -252l-117 117h-383v-1198l125 -125h-125h-156h-125l125 125v1198h-383z" />
<glyph unicode="u" horiz-adv-x="1425" d="M104 1460h125h156h125l-125 -125v-573v-322q0 -63 26.5 -119.5t71.5 -97.5t106.5 -65.5t131.5 -24.5t130 24.5t106.5 65.5t73 97.5t26.5 119.5v322v573l-127 125h127h153h125l-125 -125v-864q0 -8 1 -15t1 -16q0 -90 -38.5 -170t-105.5 -139t-157 -94t-190 -35 q-102 0 -191.5 35t-156 94t-105.5 139t-39 170v23v872z" />
<glyph unicode="v" horiz-adv-x="1685" d="M104 1460h125h146h10h125l-88 -90l422 -1034l422 1034l-88 90h125h10h145h125l-213 -213l-450 -1097l-76 -183l-76 183l-451 1097z" />
<glyph unicode="w" horiz-adv-x="2553" d="M104 1460h125h146h10h125l-88 -90l422 -1034l459 1159l458 -1159l422 1034l-90 90h127h10h144h127l-215 -213l-451 -1097l-74 -183l-75 183l-383 931l-383 -931l-76 -183l-76 183l-451 1097z" />
<glyph unicode="x" horiz-adv-x="1329" d="M53 2l111 111l426 682l-357 571l-92 94h35h90h64h125l-76 -78l289 -462l290 464l-77 76h125h2h61h92h35l-94 -94l-357 -571l426 -682l111 -111h-41h-84h-72h-124l77 78l-370 592l-371 -596l74 -74h-125h-66h-84h-43z" />
<glyph unicode="y" horiz-adv-x="1449" d="M104 1460h35h90h64h125l-76 -78l375 -471l373 473l-76 76h125h63h90h35l-92 -94l-442 -580v-239v-420l127 -125h-127h-154h-125l125 125v420v239l-442 580z" />
<glyph unicode="z" horiz-adv-x="1230" d="M104 2l826 1323h-709l-117 -117l21 252h473h125h291v-2v2h155l-825 -1323h606l127 125l-22 -260h-797h-154z" />
<glyph unicode="&#xa8;" horiz-adv-x="739" d="M61 1683l125 125l125 -125l-125 -124zM430 1683l125 125l125 -125l-125 -124z" />
<glyph unicode="&#xab;" horiz-adv-x="978" d="M-2 758l393 424h172l-420 -424l480 -424h-191zM326 758l393 424h172l-420 -424l479 -424h-190z" />
<glyph unicode="&#xad;" horiz-adv-x="1177" d="M145 711v110h883v-110h-883z" />
<glyph unicode="&#xbb;" horiz-adv-x="978" d="M-2 334l479 424l-420 424h172l394 -424l-435 -424h-190zM326 334l479 424l-420 424h172l393 -424l-434 -424h-190z" />
<glyph unicode="&#xc0;" horiz-adv-x="1671" d="M45 2h406l-91 90l256 639h441l256 -639l-90 -90h405l-135 137l-655 1393l-658 -1393zM653 819l185 461l184 -461h-369zM674 1776h303q-14 -16 -25 -37q-10 -16 -17 -41t-7 -51q0 -29 16.5 -54.5t38.5 -46.5q23 -23 55 -45q-80 25 -149 64q-59 35 -119.5 86t-95.5 125z " />
<glyph unicode="&#xc1;" horiz-adv-x="1781" d="M106 2l136 137l657 1393l655 -1393l136 -137h-406l90 90l-256 639h-440l-256 -639l90 -90h-406zM715 819h368l-184 461zM735 1501q31 23 56 45q20 20 37.5 46t17.5 55q0 27 -7.5 51t-17.5 41q-10 20 -24 37h303q-35 -74 -96.5 -125.5t-120.5 -85.5q-70 -39 -148 -64z M735 1501q31 23 56 45q20 20 37.5 46t17.5 55q0 27 -7.5 51t-17.5 41q-10 20 -24 37h303q-35 -74 -96.5 -125.5t-120.5 -85.5q-70 -39 -148 -64zM735 1501q31 23 56 45q20 20 37.5 46t17.5 55q0 27 -7.5 51t-17.5 41q-10 20 -24 37h303q-35 -74 -96.5 -125.5t-120.5 -85.5 q-70 -39 -148 -64z" />
<glyph unicode="&#xc2;" horiz-adv-x="1781" d="M106 2l136 137l657 1393l655 -1393l136 -137h-406l90 90l-256 639h-440l-256 -639l90 -90h-406zM582 1526l317 317l318 -317h-148l-170 205l-168 -205h-149zM715 819h368l-184 461z" />
<glyph unicode="&#xc3;" horiz-adv-x="1781" d="M106 2l136 137l657 1393l655 -1393l136 -137h-406l90 90l-256 639h-440l-256 -639l90 -90h-406zM715 819h368l-184 461z" />
<glyph unicode="&#xc4;" horiz-adv-x="1781" d="M106 2l136 137l657 1393l655 -1393l136 -137h-406l90 90l-256 639h-440l-256 -639l90 -90h-406zM588 1683l125 125l125 -125l-125 -124zM715 819h368l-184 461zM956 1683l125 125l125 -125l-125 -124z" />
<glyph unicode="&#xc5;" horiz-adv-x="1781" d="M106 2l136 137l657 1393l655 -1393l136 -137h-406l90 90l-256 639h-440l-256 -639l90 -90h-406zM715 819h368l-184 461z" />
<glyph unicode="&#xc6;" horiz-adv-x="3072" d="M45 2l135 137l658 1393l655 -1393l135 -137h-405l90 90l-256 639h-441l-256 -639l91 -90h-406zM653 819h369l-184 461zM1374 2l125 125v1208l-125 125h125h156h125h473l20 -252l-116 117h-502v-504h211l59 60v-60v-24v-41v-25v-59l-59 59h-211v-594h692l125 125l-21 -260 h-671h-125h-156h-125z" />
<glyph unicode="&#xc7;" horiz-adv-x="1583" d="M59 729q0 154 63.5 290t173.5 236.5t256 159t314 58.5q129 0 244 -34t213 -98h131l23 -378q-37 80 -98.5 152.5t-141.5 127.5t-174 88t-197 33q-137 0 -257 -52t-209 -139.5t-141 -200t-52 -233.5t52 -233.5t141 -199.5t209 -139t257 -52q92 0 179.5 27.5t165 73.5 t140 106.5t105.5 126.5l-2 -322h-113q-66 -43 -138.5 -75t-153.5 -48l-228 -160l-127 -94q-25 -20 -60.5 -46t-77.5 -49.5t-86 -38.5t-83 -15l141 192l88 119l68 92q-135 29 -248.5 96.5t-197.5 162.5t-131.5 214t-47.5 252z" />
<glyph unicode="&#xc8;" horiz-adv-x="1290" d="M104 2h125h156h125h672l20 260l-125 -125h-692v594h211l59 -59v59v25v41v24v60l-59 -60h-211v504h502l117 -117l-21 252h-473h-125h-156h-125l125 -125v-1208zM367 1776h303q-14 -16 -25 -37q-10 -16 -17 -41t-7 -51q0 -29 16 -54.5t39 -46.5q23 -23 55 -45 q-80 25 -149 64q-59 35 -120 86t-95 125z" />
<glyph unicode="&#xc9;" horiz-adv-x="1290" d="M104 2l125 125v1208l-125 125h125h156h125h473l21 -252l-117 117h-502v-504h211l59 60v-60v-24v-41v-25v-59l-59 59h-211v-594h692l125 125l-20 -260h-672h-125h-156h-125zM489 1501q31 23 56 45q20 20 37.5 46t17.5 55q0 27 -7 51t-18 41q-10 20 -24 37h303 q-35 -74 -96.5 -125.5t-120.5 -85.5q-70 -39 -148 -64z" />
<glyph unicode="&#xca;" horiz-adv-x="1290" d="M104 2l125 125v1208l-125 125h125h156h125h473l21 -252l-117 117h-502v-504h211l59 60v-60v-24v-41v-25v-59l-59 59h-211v-594h692l125 125l-20 -260h-672h-125h-156h-125zM274 1526l318 317l317 -317h-147l-170 205l-168 -205h-150z" />
<glyph unicode="&#xcb;" horiz-adv-x="1290" d="M104 2l125 125v1208l-125 125h125h156h125h473l21 -252l-117 117h-502v-504h211l59 60v-60v-24v-41v-25v-59l-59 59h-211v-594h692l125 125l-20 -260h-672h-125h-156h-125zM225 1683l125 125l125 -125l-125 -124zM594 1683l125 125l125 -125l-125 -124z" />
<glyph unicode="&#xcc;" horiz-adv-x="624" d="M104 2h125h156h125l-125 125v1208l125 125h-125h-156h-125l125 -125v-1208zM121 1776h303q-14 -16 -25 -37q-10 -16 -17 -41t-7 -51q0 -29 16.5 -54.5t38.5 -46.5q23 -23 55 -45q-80 25 -149 64q-59 35 -119.5 86t-95.5 125z" />
<glyph unicode="&#xcd;" horiz-adv-x="624" d="M104 2l125 125v1208l-125 125h125h156h125l-125 -125v-1208l125 -125h-125h-156h-125zM125 1501q31 23 55 45q20 20 38 46t18 55q0 27 -7.5 51t-17.5 41q-10 20 -25 37h303q-35 -74 -96 -125.5t-121 -85.5q-70 -39 -147 -64z" />
<glyph unicode="&#xce;" horiz-adv-x="624" d="M-14 1526l317 317l318 -317h-148l-170 205l-168 -205h-149zM104 2l125 125v1208l-125 125h125h156h125l-125 -125v-1208l125 -125h-125h-156h-125z" />
<glyph unicode="&#xcf;" horiz-adv-x="624" d="M-2 1683l125 125l125 -125l-125 -124zM104 2l125 125v1208l-125 125h125h156h125l-125 -125v-1208l125 -125h-125h-156h-125zM367 1683l125 125l124 -125l-124 -124z" />
<glyph unicode="&#xd0;" horiz-adv-x="1705" d="M104 2l125 125v1208l-125 125h125h113h43h84l-84 -84v-30q98 59 212 93t241 34q168 0 314 -58.5t256 -160t173.5 -236.5t63.5 -289t-63.5 -290t-173.5 -236.5t-256 -158.5t-314 -58q-127 0 -241 33.5t-212 93.5v-27l84 -84h-84h-43h-113h-125zM385 201q86 -47 183.5 -74 t205.5 -27q150 0 282 50.5t230 137.5t154.5 202.5t56.5 248.5v15q-4 129 -61.5 243.5t-155.5 198.5t-228 133t-278 49q-109 0 -206 -26.5t-183 -73.5v-1077z" />
<glyph unicode="&#xd1;" horiz-adv-x="1533" d="M-6 1460h229l940 -1208v1081l-127 127h127h154h127l-127 -127v-1210l127 -127h-236l-864 1085v-958l127 -127h-127h-156h-125l125 127v1137z" />
<glyph unicode="&#xd2;" d="M104 729q0 -154 63.5 -290t173.5 -236.5t256 -158.5t314 -58t314.5 58t256 158.5t173 236.5t63.5 290t-63.5 289t-173 236.5t-256 160t-314.5 58.5t-314 -58.5t-256 -160t-173.5 -236.5t-63.5 -289zM252 739q0 121 52 233.5t141.5 200t209 139.5t256.5 52t257 -52 t209 -139.5t141.5 -200t52.5 -233.5t-52.5 -233.5t-141.5 -199.5t-209 -139t-257 -52t-256.5 52t-209 139t-141.5 199.5t-52 233.5zM735 1776h303q-14 -16 -24 -37q-10 -16 -17.5 -41t-7.5 -51q0 -29 16.5 -54.5t38.5 -46.5q23 -23 56 -45q-80 25 -150 64q-59 35 -119.5 86 t-95.5 125z" />
<glyph unicode="&#xd3;" d="M104 729q0 154 63.5 289t173.5 236.5t256 160t314 58.5t314.5 -58.5t256 -160t173 -236.5t63.5 -289t-63.5 -290t-173 -236.5t-256 -158.5t-314.5 -58t-314 58t-256 158.5t-173.5 236.5t-63.5 290zM252 739q0 -121 52 -233.5t141.5 -199.5t209 -139t256.5 -52t257 52 t209 139t141.5 199.5t52.5 233.5t-52.5 233.5t-141.5 200t-208.5 139.5t-257.5 52q-137 0 -256.5 -52t-209 -139.5t-141.5 -200t-52 -233.5zM756 1501q31 23 55 45q20 20 37.5 46t17.5 55q0 27 -7 51t-17 41q-10 20 -25 37h303q-35 -74 -96 -125.5t-121 -85.5 q-70 -39 -147 -64z" />
<glyph unicode="&#xd4;" d="M104 729q0 154 63.5 289t173.5 236.5t256 160t314 58.5t314.5 -58.5t256 -160t173 -236.5t63.5 -289t-63.5 -290t-173 -236.5t-256 -158.5t-314.5 -58t-314 58t-256 158.5t-173.5 236.5t-63.5 290zM252 739q0 -121 52 -233.5t141.5 -199.5t209 -139t256.5 -52t257 52 t209 139t141.5 199.5t52.5 233.5t-52.5 233.5t-141.5 200t-208.5 139.5t-257.5 52q-137 0 -256.5 -52t-209 -139.5t-141.5 -200t-52 -233.5zM584 1526l317 317l318 -317h-148l-170 205l-168 -205h-149z" />
<glyph unicode="&#xd5;" d="M104 729q0 154 64 289q63 135 173 236t256 160t314 59t315 -59q146 -58 256 -160q110 -101 173 -236t63 -289t-63 -290t-173 -236t-256 -159q-146 -58 -315 -58q-168 0 -314 58t-256 159q-110 100 -173 236t-64 290zM252 739q0 -121 52 -233q52 -113 141 -200t209 -139 t257 -52t257 52t209 139t142 200q52 113 52 233q0 121 -52 234t-142 199q-89 87 -209 140q-120 52 -257 52t-257 -52t-209 -140q-89 -87 -141 -199q-52 -113 -52 -234z" />
<glyph unicode="&#xd6;" d="M104 729q0 154 63.5 289t173.5 236.5t256 160t314 58.5t314.5 -58.5t256 -160t173 -236.5t63.5 -289t-63.5 -290t-173 -236.5t-256 -158.5t-314.5 -58t-314 58t-256 158.5t-173.5 236.5t-63.5 290zM252 739q0 -121 52 -233.5t141.5 -199.5t209 -139t256.5 -52t257 52 t209 139t141.5 199.5t52.5 233.5t-52.5 233.5t-141.5 200t-208.5 139.5t-257.5 52q-137 0 -256.5 -52t-209 -139.5t-141.5 -200t-52 -233.5zM573 1683l125 125l125 -125l-125 -124zM942 1683l125 125l125 -125l-125 -124z" />
<glyph unicode="&#xd8;" d="M104 729q0 154 64 289q63 135 173 236t256 160t314 59t315 -59q146 -58 256 -160q110 -101 173 -236t63 -289t-63 -290t-173 -236t-256 -159q-146 -58 -315 -58q-168 0 -314 58t-256 159q-110 100 -173 236t-64 290zM252 739q0 -121 52 -233q52 -113 141 -200t209 -139 t257 -52t257 52t209 139t142 200q52 113 52 233q0 121 -52 234t-142 199q-89 87 -209 140q-120 52 -257 52t-257 -52t-209 -140q-89 -87 -141 -199q-52 -113 -52 -234z" />
<glyph unicode="&#xd9;" horiz-adv-x="1425" d="M104 1460l125 -125v-872v-23q0 -90 39 -170t105.5 -139t155.5 -94t192 -35q100 0 190 35t157 94t105.5 139t38.5 170q0 8 -1 15.5t-1 15.5v864l125 125h-125h-153h-127l127 -125v-573v-322q0 -63 -26.5 -119.5t-73 -97.5t-106.5 -65.5t-130 -24.5t-131.5 24.5 t-106.5 65.5t-71.5 97.5t-26.5 119.5v322v573l125 125h-125h-156h-125zM510 1776h303q-14 -16 -25 -37q-10 -16 -17 -41t-7 -51q0 -29 16.5 -54.5t38.5 -46.5q23 -23 55 -45q-80 25 -149 64q-59 35 -119.5 86t-95.5 125z" />
<glyph unicode="&#xda;" horiz-adv-x="1425" d="M104 1460h125h156h125l-125 -125v-573v-322q0 -63 26.5 -119.5t71.5 -97.5t106.5 -65.5t131.5 -24.5t130 24.5t106.5 65.5t73 97.5t26.5 119.5v322v573l-127 125h127h153h125l-125 -125v-864q0 -8 1 -15t1 -16q0 -90 -38.5 -170t-105.5 -139t-157 -94t-190 -35 q-102 0 -191.5 35t-156 94t-105.5 139t-39 170v23v872zM571 1501q31 23 56 45q20 20 37.5 46t17.5 55q0 27 -7 51t-18 41q-10 20 -24 37h303q-35 -74 -96.5 -125.5t-120.5 -85.5q-70 -39 -148 -64z" />
<glyph unicode="&#xdb;" horiz-adv-x="1425" d="M104 1460h125h156h125l-125 -125v-573v-322q0 -63 26.5 -119.5t71.5 -97.5t106.5 -65.5t131.5 -24.5t130 24.5t106.5 65.5t73 97.5t26.5 119.5v322v573l-127 125h127h153h125l-125 -125v-864q0 -8 1 -15t1 -16q0 -90 -38.5 -170t-105.5 -139t-157 -94t-190 -35 q-102 0 -191.5 35t-156 94t-105.5 139t-39 170v23v872zM397 1526l318 317l317 -317h-147l-170 205l-168 -205h-150z" />
<glyph unicode="&#xdc;" horiz-adv-x="1425" d="M104 1460h125h156h125l-125 -125v-573v-322q0 -63 26.5 -119.5t71.5 -97.5t106.5 -65.5t131.5 -24.5t130 24.5t106.5 65.5t73 97.5t26.5 119.5v322v573l-127 125h127h153h125l-125 -125v-864q0 -8 1 -15t1 -16q0 -90 -38.5 -170t-105.5 -139t-157 -94t-190 -35 q-102 0 -191.5 35t-156 94t-105.5 139t-39 170v23v872zM406 1683l124 125l125 -125l-125 -124zM774 1683l125 125l125 -125l-125 -124z" />
<glyph unicode="&#xdd;" horiz-adv-x="1449" d="M104 1460h35h90h64h125l-76 -78l375 -471l373 473l-76 76h125h63h90h35l-92 -94l-442 -580v-239v-420l127 -125h-127h-154h-125l125 125v420v239l-442 580zM571 1501q31 23 56 45q20 20 37.5 46t17.5 55q0 27 -7 51t-18 41q-10 20 -24 37h303q-35 -74 -96.5 -125.5 t-120.5 -85.5q-70 -39 -148 -64z" />
<glyph unicode="&#xde;" horiz-adv-x="1705" />
<glyph unicode="&#xdf;" horiz-adv-x="1705" />
<glyph unicode="&#xe0;" horiz-adv-x="1671" d="M45 2h406l-91 90l256 639h441l256 -639l-90 -90h405l-135 137l-655 1393l-658 -1393zM653 819l185 461l184 -461h-369zM674 1776h303q-14 -16 -25 -37q-10 -16 -17 -41t-7 -51q0 -29 16.5 -54.5t38.5 -46.5q23 -23 55 -45q-80 25 -149 64q-59 35 -119.5 86t-95.5 125z " />
<glyph unicode="&#xe1;" horiz-adv-x="1781" d="M106 2l136 137l657 1393l655 -1393l136 -137h-406l90 90l-256 639h-440l-256 -639l90 -90h-406zM715 819h368l-184 461zM735 1501q31 23 56 45q20 20 37.5 46t17.5 55q0 27 -7.5 51t-17.5 41q-10 20 -24 37h303q-35 -74 -96.5 -125.5t-120.5 -85.5q-70 -39 -148 -64z M735 1501q31 23 56 45q20 20 37.5 46t17.5 55q0 27 -7.5 51t-17.5 41q-10 20 -24 37h303q-35 -74 -96.5 -125.5t-120.5 -85.5q-70 -39 -148 -64zM735 1501q31 23 56 45q20 20 37.5 46t17.5 55q0 27 -7.5 51t-17.5 41q-10 20 -24 37h303q-35 -74 -96.5 -125.5t-120.5 -85.5 q-70 -39 -148 -64z" />
<glyph unicode="&#xe2;" horiz-adv-x="1781" d="M106 2l136 137l657 1393l655 -1393l136 -137h-406l90 90l-256 639h-440l-256 -639l90 -90h-406zM582 1526l317 317l318 -317h-148l-170 205l-168 -205h-149zM715 819h368l-184 461z" />
<glyph unicode="&#xe3;" horiz-adv-x="1781" d="M106 2l136 137l657 1393l655 -1393l136 -137h-406l90 90l-256 639h-440l-256 -639l90 -90h-406zM715 819h368l-184 461z" />
<glyph unicode="&#xe4;" horiz-adv-x="1781" d="M106 2l136 137l657 1393l655 -1393l136 -137h-406l90 90l-256 639h-440l-256 -639l90 -90h-406zM588 1683l125 125l125 -125l-125 -124zM715 819h368l-184 461zM956 1683l125 125l125 -125l-125 -124z" />
<glyph unicode="&#xe5;" horiz-adv-x="1781" d="M106 2l136 137l657 1393l655 -1393l136 -137h-406l90 90l-256 639h-440l-256 -639l90 -90h-406zM715 819h368l-184 461z" />
<glyph unicode="&#xe6;" horiz-adv-x="3072" d="M45 2l135 137l658 1393l655 -1393l135 -137h-405l90 90l-256 639h-441l-256 -639l91 -90h-406zM653 819h369l-184 461zM1374 2l125 125v1208l-125 125h125h156h125h473l20 -252l-116 117h-502v-504h211l59 60v-60v-24v-41v-25v-59l-59 59h-211v-594h692l125 125l-21 -260 h-671h-125h-156h-125z" />
<glyph unicode="&#xe7;" horiz-adv-x="1583" d="M59 729q0 154 63.5 290t173.5 236.5t256 159t314 58.5q129 0 244 -34t213 -98h131l23 -378q-37 80 -98.5 152.5t-141.5 127.5t-174 88t-197 33q-137 0 -257 -52t-209 -139.5t-141 -200t-52 -233.5t52 -233.5t141 -199.5t209 -139t257 -52q92 0 179.5 27.5t165 73.5 t140 106.5t105.5 126.5l-2 -322h-113q-66 -43 -138.5 -75t-153.5 -48l-228 -160l-127 -94q-25 -20 -60.5 -46t-77.5 -49.5t-86 -38.5t-83 -15l141 192l88 119l68 92q-135 29 -248.5 96.5t-197.5 162.5t-131.5 214t-47.5 252z" />
<glyph unicode="&#xe8;" horiz-adv-x="1290" d="M104 2h125h156h125h672l20 260l-125 -125h-692v594h211l59 -59v59v25v41v24v60l-59 -60h-211v504h502l117 -117l-21 252h-473h-125h-156h-125l125 -125v-1208zM367 1776h303q-14 -16 -25 -37q-10 -16 -17 -41t-7 -51q0 -29 16 -54.5t39 -46.5q23 -23 55 -45 q-80 25 -149 64q-59 35 -120 86t-95 125z" />
<glyph unicode="&#xe9;" horiz-adv-x="1290" d="M104 2l125 125v1208l-125 125h125h156h125h473l21 -252l-117 117h-502v-504h211l59 60v-60v-24v-41v-25v-59l-59 59h-211v-594h692l125 125l-20 -260h-672h-125h-156h-125zM489 1501q31 23 56 45q20 20 37.5 46t17.5 55q0 27 -7 51t-18 41q-10 20 -24 37h303 q-35 -74 -96.5 -125.5t-120.5 -85.5q-70 -39 -148 -64z" />
<glyph unicode="&#xea;" horiz-adv-x="1290" d="M104 2l125 125v1208l-125 125h125h156h125h473l21 -252l-117 117h-502v-504h211l59 60v-60v-24v-41v-25v-59l-59 59h-211v-594h692l125 125l-20 -260h-672h-125h-156h-125zM274 1526l318 317l317 -317h-147l-170 205l-168 -205h-150z" />
<glyph unicode="&#xeb;" horiz-adv-x="1290" d="M104 2l125 125v1208l-125 125h125h156h125h473l21 -252l-117 117h-502v-504h211l59 60v-60v-24v-41v-25v-59l-59 59h-211v-594h692l125 125l-20 -260h-672h-125h-156h-125zM225 1683l125 125l125 -125l-125 -124zM594 1683l125 125l125 -125l-125 -124z" />
<glyph unicode="&#xec;" horiz-adv-x="624" d="M104 2h125h156h125l-125 125v1208l125 125h-125h-156h-125l125 -125v-1208zM121 1776h303q-14 -16 -25 -37q-10 -16 -17 -41t-7 -51q0 -29 16.5 -54.5t38.5 -46.5q23 -23 55 -45q-80 25 -149 64q-59 35 -119.5 86t-95.5 125z" />
<glyph unicode="&#xed;" horiz-adv-x="624" d="M104 2l125 125v1208l-125 125h125h156h125l-125 -125v-1208l125 -125h-125h-156h-125zM125 1501q31 23 55 45q20 20 38 46t18 55q0 27 -7.5 51t-17.5 41q-10 20 -25 37h303q-35 -74 -96 -125.5t-121 -85.5q-70 -39 -147 -64z" />
<glyph unicode="&#xee;" horiz-adv-x="624" d="M-14 1526l317 317l318 -317h-148l-170 205l-168 -205h-149zM104 2l125 125v1208l-125 125h125h156h125l-125 -125v-1208l125 -125h-125h-156h-125z" />
<glyph unicode="&#xef;" horiz-adv-x="624" d="M-2 1683l125 125l125 -125l-125 -124zM104 2l125 125v1208l-125 125h125h156h125l-125 -125v-1208l125 -125h-125h-156h-125zM367 1683l125 125l124 -125l-124 -124z" />
<glyph unicode="&#xf0;" horiz-adv-x="1705" d="M104 2l125 125v1208l-125 125h125h113h43h84l-84 -84v-30q98 59 212 93t241 34q168 0 314 -58.5t256 -160t173.5 -236.5t63.5 -289t-63.5 -290t-173.5 -236.5t-256 -158.5t-314 -58q-127 0 -241 33.5t-212 93.5v-27l84 -84h-84h-43h-113h-125zM385 201q86 -47 183.5 -74 t205.5 -27q150 0 282 50.5t230 137.5t154.5 202.5t56.5 248.5v15q-4 129 -61.5 243.5t-155.5 198.5t-228 133t-278 49q-109 0 -206 -26.5t-183 -73.5v-1077z" />
<glyph unicode="&#xf1;" horiz-adv-x="1533" d="M-6 1460h229l940 -1208v1081l-127 127h127h154h127l-127 -127v-1210l127 -127h-236l-864 1085v-958l127 -127h-127h-156h-125l125 127v1137z" />
<glyph unicode="&#xf2;" d="M104 729q0 -154 63.5 -290t173.5 -236.5t256 -158.5t314 -58t314.5 58t256 158.5t173 236.5t63.5 290t-63.5 289t-173 236.5t-256 160t-314.5 58.5t-314 -58.5t-256 -160t-173.5 -236.5t-63.5 -289zM252 739q0 121 52 233.5t141.5 200t209 139.5t256.5 52t257 -52 t209 -139.5t141.5 -200t52.5 -233.5t-52.5 -233.5t-141.5 -199.5t-209 -139t-257 -52t-256.5 52t-209 139t-141.5 199.5t-52 233.5zM735 1776h303q-14 -16 -24 -37q-10 -16 -17.5 -41t-7.5 -51q0 -29 16.5 -54.5t38.5 -46.5q23 -23 56 -45q-80 25 -150 64q-59 35 -119.5 86 t-95.5 125z" />
<glyph unicode="&#xf3;" d="M104 729q0 154 63.5 289t173.5 236.5t256 160t314 58.5t314.5 -58.5t256 -160t173 -236.5t63.5 -289t-63.5 -290t-173 -236.5t-256 -158.5t-314.5 -58t-314 58t-256 158.5t-173.5 236.5t-63.5 290zM252 739q0 -121 52 -233.5t141.5 -199.5t209 -139t256.5 -52t257 52 t209 139t141.5 199.5t52.5 233.5t-52.5 233.5t-141.5 200t-208.5 139.5t-257.5 52q-137 0 -256.5 -52t-209 -139.5t-141.5 -200t-52 -233.5zM756 1501q31 23 55 45q20 20 37.5 46t17.5 55q0 27 -7 51t-17 41q-10 20 -25 37h303q-35 -74 -96 -125.5t-121 -85.5 q-70 -39 -147 -64z" />
<glyph unicode="&#xf5;" d="M63 729q0 154 64 289q63 135 173 236t256 160t314 59t315 -59q146 -58 256 -160q110 -101 173 -236t63 -289t-63 -290t-173 -236t-256 -159q-146 -58 -315 -58q-168 0 -314 58t-256 159q-110 100 -173 236t-64 290zM211 739q0 -121 52 -233q52 -113 141 -200t209 -139 t257 -52t257 52t209 139t142 200q52 113 52 233q0 121 -52 234t-142 199q-89 87 -209 140q-120 52 -257 52t-257 -52t-209 -140q-89 -87 -141 -199q-52 -113 -52 -234z" />
<glyph unicode="&#xf6;" d="M104 729q0 154 63.5 289t173.5 236.5t256 160t314 58.5t314.5 -58.5t256 -160t173 -236.5t63.5 -289t-63.5 -290t-173 -236.5t-256 -158.5t-314.5 -58t-314 58t-256 158.5t-173.5 236.5t-63.5 290zM252 739q0 -121 52 -233.5t141.5 -199.5t209 -139t256.5 -52t257 52 t209 139t141.5 199.5t52.5 233.5t-52.5 233.5t-141.5 200t-208.5 139.5t-257.5 52q-137 0 -256.5 -52t-209 -139.5t-141.5 -200t-52 -233.5zM573 1683l125 125l125 -125l-125 -124zM942 1683l125 125l125 -125l-125 -124z" />
<glyph unicode="&#xf8;" d="M63 729q0 154 64 289q63 135 173 236t256 160t314 59t315 -59q146 -58 256 -160q110 -101 173 -236t63 -289t-63 -290t-173 -236t-256 -159q-146 -58 -315 -58q-168 0 -314 58t-256 159q-110 100 -173 236t-64 290zM211 739q0 -121 52 -233q52 -113 141 -200t209 -139 t257 -52t257 52t209 139t142 200q52 113 52 233q0 121 -52 234t-142 199q-89 87 -209 140q-120 52 -257 52t-257 -52t-209 -140q-89 -87 -141 -199q-52 -113 -52 -234z" />
<glyph unicode="&#xf9;" horiz-adv-x="1425" d="M104 1460l125 -125v-872v-23q0 -90 39 -170t105.5 -139t155.5 -94t192 -35q100 0 190 35t157 94t105.5 139t38.5 170q0 8 -1 15.5t-1 15.5v864l125 125h-125h-153h-127l127 -125v-573v-322q0 -63 -26.5 -119.5t-73 -97.5t-106.5 -65.5t-130 -24.5t-131.5 24.5 t-106.5 65.5t-71.5 97.5t-26.5 119.5v322v573l125 125h-125h-156h-125zM510 1776h303q-14 -16 -25 -37q-10 -16 -17 -41t-7 -51q0 -29 16.5 -54.5t38.5 -46.5q23 -23 55 -45q-80 25 -149 64q-59 35 -119.5 86t-95.5 125z" />
<glyph unicode="&#xfa;" horiz-adv-x="1425" d="M104 1460h125h156h125l-125 -125v-573v-322q0 -63 26.5 -119.5t71.5 -97.5t106.5 -65.5t131.5 -24.5t130 24.5t106.5 65.5t73 97.5t26.5 119.5v322v573l-127 125h127h153h125l-125 -125v-864q0 -8 1 -15t1 -16q0 -90 -38.5 -170t-105.5 -139t-157 -94t-190 -35 q-102 0 -191.5 35t-156 94t-105.5 139t-39 170v23v872zM571 1501q31 23 56 45q20 20 37.5 46t17.5 55q0 27 -7 51t-18 41q-10 20 -24 37h303q-35 -74 -96.5 -125.5t-120.5 -85.5q-70 -39 -148 -64z" />
<glyph unicode="&#xfb;" horiz-adv-x="1425" d="M104 1460h125h156h125l-125 -125v-573v-322q0 -63 26.5 -119.5t71.5 -97.5t106.5 -65.5t131.5 -24.5t130 24.5t106.5 65.5t73 97.5t26.5 119.5v322v573l-127 125h127h153h125l-125 -125v-864q0 -8 1 -15t1 -16q0 -90 -38.5 -170t-105.5 -139t-157 -94t-190 -35 q-102 0 -191.5 35t-156 94t-105.5 139t-39 170v23v872zM397 1526l318 317l317 -317h-147l-170 205l-168 -205h-150z" />
<glyph unicode="&#xfc;" horiz-adv-x="1425" d="M104 1460h125h156h125l-125 -125v-573v-322q0 -63 26.5 -119.5t71.5 -97.5t106.5 -65.5t131.5 -24.5t130 24.5t106.5 65.5t73 97.5t26.5 119.5v322v573l-127 125h127h153h125l-125 -125v-864q0 -8 1 -15t1 -16q0 -90 -38.5 -170t-105.5 -139t-157 -94t-190 -35 q-102 0 -191.5 35t-156 94t-105.5 139t-39 170v23v872zM406 1683l124 125l125 -125l-125 -124zM774 1683l125 125l125 -125l-125 -124z" />
<glyph unicode="&#xfd;" horiz-adv-x="1449" d="M104 1460h35h90h64h125l-76 -78l375 -471l373 473l-76 76h125h63h90h35l-92 -94l-442 -580v-239v-420l127 -125h-127h-154h-125l125 125v420v239l-442 580zM571 1501q31 23 56 45q20 20 37.5 46t17.5 55q0 27 -7 51t-18 41q-10 20 -24 37h303q-35 -74 -96.5 -125.5 t-120.5 -85.5q-70 -39 -148 -64z" />
<glyph unicode="&#xfe;" horiz-adv-x="1343" d="M74 2l127 125v1208l-127 125h127h112h41h84l-84 -84v-1290l84 -84h-84h-41h-112h-127zM369 1335q49 57 122.5 91t159.5 34q74 0 138.5 -24.5t113.5 -67.5t77 -101.5t28 -123.5q0 -88 -49.5 -161t-129.5 -114q98 -4 183.5 -38.5t148 -92t99 -132.5t36.5 -161 q0 -88 -38.5 -165.5t-106.5 -135t-158 -91.5t-192 -34q-125 0 -229.5 48.5t-172.5 128.5q59 -47 135 -76t164 -29t167 28.5t136.5 79t91 117t33.5 142.5t-33.5 143.5t-91 117.5t-136.5 78.5t-167 28.5q-59 0 -120 -16v16v9v18q61 2 115.5 24.5t94 58.5t62 84t22.5 101 q0 55 -24.5 104.5t-67.5 85.5t-100 57.5t-123 21.5q-53 0 -100 -14.5t-88 -39.5z" />
<glyph unicode="&#xff;" horiz-adv-x="1449" d="M104 1460h35h90h64h125l-76 -78l375 -471l373 473l-76 76h125h63h90h35l-92 -94l-442 -580v-239v-420l127 -125h-127h-154h-125l125 125v420v239l-442 580zM406 1683l124 125l125 -125l-125 -124zM774 1683l125 125l125 -125l-125 -124z" />
<glyph unicode="&#x152;" horiz-adv-x="3127" d="M104 729q0 154 64 289q63 135 173 236t256 160t314 59t315 -59q146 -58 256 -160q110 -101 173 -236t63 -289t-63 -290t-173 -236t-256 -159q-146 -58 -315 -58q-168 0 -314 58t-256 159q-110 100 -173 236t-64 290zM252 739q0 -121 52 -233q52 -113 141 -200t209 -139 t257 -52t257 52t209 139t142 200q52 113 52 233q0 121 -52 234t-142 199q-89 87 -209 140q-120 52 -257 52t-257 -52t-209 -140q-89 -87 -141 -199q-52 -113 -52 -234zM1452 2l125 125v1208l-125 125h125h156h125h473l20 -252l-117 117h-501v-504h211l59 60v-60v-24v-41v-25 v-59l-59 59h-211v-594h692l125 125l-21 -260h-671h-125h-156h-125z" />
<glyph unicode="&#x153;" horiz-adv-x="3127" d="M104 729q0 154 64 289q63 135 173 236t256 160t314 59t315 -59q146 -58 256 -160q110 -101 173 -236t63 -289t-63 -290t-173 -236t-256 -159q-146 -58 -315 -58q-168 0 -314 58t-256 159q-110 100 -173 236t-64 290zM252 739q0 -121 52 -233q52 -113 141 -200t209 -139 t257 -52t257 52t209 139t142 200q52 113 52 233q0 121 -52 234t-142 199q-89 87 -209 140q-120 52 -257 52t-257 -52t-209 -140q-89 -87 -141 -199q-52 -113 -52 -234zM1452 2l125 125v1208l-125 125h125h156h125h473l20 -252l-117 117h-501v-504h211l59 60v-60v-24v-41v-25 v-59l-59 59h-211v-594h692l125 125l-21 -260h-671h-125h-156h-125z" />
<glyph unicode="&#x2000;" horiz-adv-x="921" />
<glyph unicode="&#x2001;" horiz-adv-x="1843" />
<glyph unicode="&#x2002;" horiz-adv-x="921" />
<glyph unicode="&#x2003;" horiz-adv-x="1843" />
<glyph unicode="&#x2004;" horiz-adv-x="614" />
<glyph unicode="&#x2005;" horiz-adv-x="460" />
<glyph unicode="&#x2006;" horiz-adv-x="307" />
<glyph unicode="&#x2007;" horiz-adv-x="307" />
<glyph unicode="&#x2008;" horiz-adv-x="230" />
<glyph unicode="&#x2009;" horiz-adv-x="368" />
<glyph unicode="&#x200a;" horiz-adv-x="102" />
<glyph unicode="&#x2010;" horiz-adv-x="1177" d="M145 711v110h883v-110h-883z" />
<glyph unicode="&#x2011;" horiz-adv-x="1177" d="M145 711v110h883v-110h-883z" />
<glyph unicode="&#x2012;" horiz-adv-x="1177" d="M145 711v110h883v-110h-883z" />
<glyph unicode="&#x2013;" horiz-adv-x="1177" d="M145 731v90h883v-90h-883z" />
<glyph unicode="&#x2014;" horiz-adv-x="1177" d="M145 731v90h883v-90h-883z" />
<glyph unicode="&#x2018;" horiz-adv-x="440" d="M59 1194q35 72 85.5 134.5t99.5 107.5q55 53 118 94q-14 -33 -24 -66q-10 -29 -17.5 -61.5t-7.5 -59.5q0 -29 7.5 -54t17.5 -48q10 -25 24 -47h-303z" />
<glyph unicode="&#x2019;" horiz-adv-x="440" d="M59 1194q14 33 25 66q10 29 17.5 60.5t7.5 59.5q0 27 -7.5 53.5t-17.5 49.5q-10 25 -25 47h303q-35 -74 -87 -135.5t-99 -106.5q-57 -53 -117 -94z" />
<glyph unicode="&#x201a;" horiz-adv-x="468" d="M82 166h301q-35 -74 -86 -135.5t-98 -106.5q-55 -53 -117 -94q14 33 24 66q10 29 17.5 60.5t7.5 59.5q0 27 -7 53.5t-18 49.5q-10 25 -24 47z" />
<glyph unicode="&#x201c;" horiz-adv-x="727" d="M18 1194q35 72 85.5 134.5t99.5 107.5q55 53 119 94q-14 -33 -25 -66q-10 -29 -17.5 -61.5t-7.5 -59.5q0 -29 7.5 -54t17.5 -48q10 -25 25 -47h-304zM387 1194q35 72 85 134.5t99 107.5q55 53 119 94q-14 -33 -24 -66q-10 -29 -17.5 -61.5t-7.5 -59.5q0 -29 7 -54t18 -48 q10 -25 24 -47h-303z" />
<glyph unicode="&#x201d;" horiz-adv-x="727" d="M18 1194q14 33 25 66q10 29 17.5 60.5t7.5 59.5q0 27 -7.5 53.5t-17.5 49.5q-10 25 -25 47h304q-35 -74 -87.5 -135.5t-99.5 -106.5q-57 -53 -117 -94zM387 1194q14 33 25 66q10 29 17 60.5t7 59.5q0 27 -7 53.5t-17 49.5q-10 25 -25 47h303q-35 -74 -87 -135.5 t-99 -106.5q-57 -53 -117 -94z" />
<glyph unicode="&#x201e;" horiz-adv-x="854" d="M82 166h301q-35 -74 -86 -135.5t-98 -106.5q-55 -53 -117 -94q14 33 24 66q10 29 17.5 60.5t7.5 59.5q0 27 -7 53.5t-18 49.5q-10 25 -24 47zM512 166h301q-35 -74 -86 -135.5t-98 -106.5q-55 -53 -117 -94q14 33 25 66q10 29 17 60.5t7 59.5q0 27 -7 53.5t-17 49.5 q-10 25 -25 47z" />
<glyph unicode="&#x2022;" horiz-adv-x="542" d="M82 774l176 176l176 -176l-176 -176zM258 774z" />
<glyph unicode="&#x2026;" horiz-adv-x="1093" d="M61 66l125 124l125 -124l-125 -125zM186 66zM426 66l125 124l125 -124l-125 -125zM551 66zM791 66l124 -125l125 125l-125 124zM915 66z" />
<glyph unicode="&#x202f;" horiz-adv-x="368" />
<glyph unicode="&#x2039;" horiz-adv-x="686" d="M-2 758l393 424h172l-420 -424l480 -424h-191z" />
<glyph unicode="&#x203a;" horiz-adv-x="686" d="M-2 334l479 424l-420 424h172l394 -424l-435 -424h-190z" />
<glyph unicode="&#x205f;" horiz-adv-x="460" />
<glyph unicode="&#xe000;" horiz-adv-x="1464" d="M0 0v1464h1464v-1464h-1464z" />
</font>
</defs>
</svg>
