<svg viewBox="0 0 1585 850" fill="none" xmlns="http://www.w3.org/2000/svg">
    <path
        d="M1352.26 416.575C1352.26 416.341 1350.71 412.121 1348.83 407.197C1344.08 394.741 1344.43 394.049 1352.67 399.612C1356.67 402.305 1361.08 405.137 1362.49 405.905C1367.19 408.465 1353.19 394.708 1347.55 391.224C1341.14 387.263 1340.67 383.788 1344.57 369.353C1347.37 359.022 1357.45 307.037 1357.24 304.03C1356.98 300.201 1350.39 325.039 1344.32 352.788C1340.88 368.479 1337.2 382.514 1336.12 383.977C1334.98 385.548 1328.71 387.581 1320.84 388.944C1313.51 390.212 1307.07 391.684 1306.54 392.214C1304.16 394.583 1308.39 395.028 1318.39 393.462C1332.15 391.306 1334.21 393.187 1332.6 406.364C1331.14 418.316 1334.02 417.816 1336.96 405.608L1339.29 395.917L1344.21 406.458C1346.92 412.256 1349.84 417 1350.69 417C1351.55 417 1352.26 416.809 1352.26 416.575ZM1324.42 404.047C1328.56 400.667 1331.57 397.53 1331.12 397.076C1329.96 395.917 1314.68 406.6 1314.68 408.573C1314.68 411.32 1316.61 410.425 1324.42 404.047ZM1416.74 400.409L1421.29 390.624L1423.73 399.558C1425.07 404.471 1426.89 408.492 1427.78 408.492C1429.29 408.492 1428.39 398.409 1426.19 390.734C1425.53 388.444 1428.09 389.864 1434.58 395.395C1439.72 399.769 1444.45 402.828 1445.09 402.191C1445.72 401.555 1442.61 397.352 1438.16 392.851L1430.07 384.668L1435.98 384.548C1445.04 384.365 1437.13 381.535 1427.14 381.384L1419.19 381.264L1402.01 311.921L1384.8 242.577L1388.59 239.624C1393.28 235.964 1390.55 232.851 1429.55 286.34C1455.8 322.359 1464 332.265 1460.92 324.286C1460.39 322.897 1446.98 303.944 1431.14 282.169C1396.48 234.549 1394.76 231.991 1398.76 234.224C1400.36 235.115 1417.12 249.611 1436.02 266.437C1454.92 283.264 1472.43 298.073 1474.92 299.346L1479.46 301.661L1476.05 298.233C1474.17 296.348 1457.18 280.756 1438.3 263.586C1419.41 246.415 1404.04 231.601 1404.14 230.665C1404.25 229.729 1404.71 229.103 1405.18 229.273C1405.65 229.443 1433.71 245.629 1467.52 265.241L1528.98 300.9L1528.77 317.259C1528.54 334.509 1530.6 339.191 1532.39 325.534C1534.39 310.416 1535.59 309.528 1540.65 319.458C1548.38 334.647 1551.57 333.511 1544.42 318.117C1542.11 313.15 1540.49 308.811 1540.83 308.475C1541.17 308.138 1545.36 309.842 1550.15 312.26C1561.06 317.768 1561.53 315.325 1550.89 308.426L1542.9 303.252L1548.74 302.293C1551.96 301.765 1556.9 301.131 1559.71 300.884C1568.71 300.095 1565.21 297.05 1554.69 296.511L1544.54 295.99L1552.14 289.351C1562.03 280.698 1558.68 280.711 1546.27 289.375C1535.95 296.577 1530.38 297.893 1528.7 293.532C1528.14 292.074 1526.72 291.255 1525.52 291.711C1523.63 292.436 1410.36 228.779 1406.12 224.608C1402.88 221.411 1409.63 223.201 1451.93 236.746C1475.52 244.302 1498.67 251.68 1503.36 253.143C1521.07 258.658 1524.63 262.994 1524.73 279.165C1524.73 282.441 1525.51 286.27 1526.42 287.674C1527.57 289.458 1528.08 286.703 1528.1 278.511V266.795L1535.23 275.533C1541.72 283.481 1545.17 286.127 1545.17 283.148C1545.17 282.532 1541.98 277.818 1538.09 272.673C1531.61 264.127 1531.35 263.416 1535.1 264.436C1537.35 265.051 1542.2 266.053 1545.86 266.663C1554.97 268.178 1552.64 264.946 1542.61 262.148C1538.34 260.956 1534.49 259.411 1534.06 258.715C1533.63 258.02 1538.26 256.028 1544.35 254.29C1550.44 252.552 1555.42 250.546 1555.42 249.832C1555.42 247.986 1552.41 248.24 1542.19 250.953L1533.22 253.332V249.137V244.941L1529.28 249.503C1527.01 252.142 1523.59 254.063 1521.17 254.06C1516.28 254.055 1410.19 220.103 1407.8 217.779C1406.79 216.798 1407.49 216.203 1409.65 216.203C1414.94 216.203 1415.95 214.063 1411.73 211.813C1408.16 209.911 1408.33 209.738 1414.66 208.71C1421.62 207.582 1493.99 199.956 1515.67 198.067C1529.93 196.825 1531.47 197.617 1537.49 209.289C1542.51 219.05 1546.31 224.145 1547.6 222.861C1548.15 222.314 1546.31 217.721 1543.51 212.653C1540.71 207.586 1538.39 202.853 1538.38 202.135C1538.38 201.417 1542.14 202.75 1546.79 205.096C1557.76 210.637 1559.58 207.753 1549.02 201.557L1540.9 196.797L1546.89 195.279C1558.8 192.254 1560.22 190.915 1551.68 190.793C1547.27 190.729 1543.23 189.97 1542.69 189.106C1542.16 188.242 1545.27 184.633 1549.61 181.087C1559.31 173.168 1556.26 171.105 1546.33 178.867C1542.41 181.933 1538.29 185.126 1537.19 185.963C1535.95 186.898 1536.44 183.344 1538.46 176.744C1542.17 164.573 1542.41 162.85 1540.19 164.218C1539.32 164.751 1537.32 168.817 1535.73 173.253C1534.15 177.689 1532.11 183.325 1531.21 185.777C1528.85 192.201 1524.07 193.714 1499.57 195.784C1487.56 196.799 1463.13 199.128 1445.29 200.96C1408.68 204.72 1404.73 204.911 1408.57 202.74C1409.98 201.944 1441.29 191.61 1478.16 179.777C1554.49 155.27 1548.45 155.844 1561.96 171.817C1566.01 176.602 1570.05 180.069 1570.94 179.522C1571.83 178.975 1569.08 174.478 1564.84 169.529C1560.6 164.58 1557.14 159.373 1557.14 157.959C1557.14 156.438 1561.49 153.47 1567.8 150.698C1579.93 145.368 1578.75 143.254 1565.78 147.091C1561.02 148.5 1557.14 149.223 1557.14 148.697C1557.14 148.171 1559.91 143.964 1563.31 139.349C1571.17 128.672 1569.21 126.14 1560.85 136.187L1554.57 143.751L1553.66 131.904C1552.64 118.607 1551.56 119.755 1548.91 136.931C1546.5 152.517 1543.34 155.506 1522.86 161.564C1514 164.184 1486.01 172.91 1460.65 180.955C1435.29 189.001 1412.24 196.094 1409.42 196.717C1404.62 197.78 1404.52 197.697 1407.72 195.408C1409.59 194.064 1424.19 185.45 1440.16 176.265C1456.12 167.079 1477.64 154.613 1487.97 148.561C1498.3 142.508 1508.32 137.544 1510.23 137.528C1512.15 137.514 1518.99 141.432 1525.44 146.238C1531.89 151.044 1537.63 154.507 1538.18 153.933C1538.74 153.359 1534.97 149.148 1529.81 144.575L1520.41 136.261L1531.09 136.242C1537.05 136.232 1541.77 135.472 1541.77 134.521C1541.77 133.585 1537.98 132.819 1533.36 132.819C1519.52 132.819 1518.4 131.421 1527.64 125.625C1537.42 119.49 1537.46 119.458 1536.24 118.241C1535.7 117.71 1531.35 119.254 1526.56 121.673C1521.77 124.091 1517.85 125.696 1517.85 125.239C1517.85 124.782 1519.78 120.079 1522.12 114.788C1526.99 103.827 1526.97 103.891 1524.71 103.891C1523.79 103.891 1521.09 107.72 1518.71 112.399C1516.33 117.079 1514.06 120.908 1513.68 120.908C1513.29 120.908 1511.75 116.735 1510.27 111.635C1506.63 99.1805 1504.02 97.9277 1505.53 109.366C1506.18 114.31 1506.72 121.712 1506.73 125.815V133.274L1456.36 162.153C1403.35 192.542 1400.86 193.878 1401.91 191.317C1402.77 189.239 1432.32 162.479 1470.02 129.632C1486.46 115.315 1501.88 101.369 1504.3 98.6411C1506.71 95.9128 1510.32 93.6805 1512.31 93.6805C1514.31 93.6805 1521.74 96.3171 1528.84 99.5397C1544.54 106.669 1546.91 103.575 1531.4 96.1908C1520.04 90.7772 1520.45 89.9236 1535.54 87.6694C1547.2 85.926 1545.52 82.9011 1533.64 84.2542C1518.26 86.005 1515.84 82.8457 1518.74 64.7519C1520.39 54.4625 1517.63 57.689 1513.64 70.7078C1511.92 76.3234 1510.12 79.7693 1509.66 78.3654C1506.33 68.1874 1502 57.8406 1501.35 58.4924C1500.92 58.9227 1502.29 65.8503 1504.41 73.8873L1508.26 88.5L1497.26 98.2726C1491.21 103.648 1480.1 113.851 1472.58 120.946C1445.29 146.719 1401.59 184.305 1400.35 183.068C1400.03 182.75 1401.62 179.546 1403.89 175.948C1406.16 172.35 1408.94 167.491 1410.08 165.152L1412.16 160.897L1408.46 165.152C1392.9 183.032 1388.37 186.308 1393.89 175.658C1395.35 172.84 1408.52 143.861 1423.14 111.261C1437.76 78.6616 1450.98 51.032 1452.52 49.8621C1454.24 48.5546 1460.77 47.735 1469.49 47.735C1480.97 47.735 1483.68 47.2466 1483.68 45.1824C1483.68 43.1498 1481.19 42.6299 1471.39 42.6299H1459.09L1467.97 36.4328C1472.85 33.0243 1476.85 29.5784 1476.85 28.7752C1476.85 26.546 1475.86 26.9095 1466.88 32.4198C1462.3 35.2276 1458.06 37.5248 1457.48 37.5248C1456.89 37.5248 1457.98 33.5929 1459.88 28.7873C1464.76 16.444 1463.1 14.7965 1456.78 25.7024C1453.32 31.6768 1451.14 34.035 1450.59 32.3966C1450.12 31.0055 1448.55 26.0384 1447.1 21.3588L1444.47 12.8504L1445.23 24.3368C1445.64 30.6543 1445.47 35.8232 1444.84 35.8232C1444.2 35.8232 1440.3 32.5687 1436.16 28.591C1427.26 20.0435 1429.21 25.0766 1439.3 36.6876C1443.05 41.0056 1446.12 45.6932 1446.12 47.1043C1446.12 52.3071 1387.21 180.942 1386.71 176.845C1386.43 174.625 1388.97 160.174 1392.34 144.731C1395.72 129.288 1400.81 105.55 1403.64 91.9789C1406.47 78.4079 1409.85 65.6518 1411.16 63.632C1412.92 60.9231 1417.15 59.1841 1427.27 57.0044C1434.82 55.3792 1440.99 53.2987 1440.99 52.3812C1440.99 51.4061 1438.69 51.1736 1435.44 51.8218C1432.39 52.4316 1426.82 53.3882 1423.06 53.9477L1416.23 54.9647L1424.52 46.4461C1429.07 41.7608 1432.04 37.472 1431.14 36.9154C1430.24 36.3588 1428.05 37.4995 1426.28 39.4503C1424.51 41.4011 1420.88 44.5464 1418.22 46.4399L1413.38 49.8825L1414.59 39.8748C1416.01 28.1974 1414.05 28.8738 1410.27 41.3647L1407.62 50.1321L1402.88 39.5743C1400.26 33.7674 1397.43 29.0164 1396.6 29.0164C1395.77 29.0164 1396.92 34.3823 1399.16 40.9408L1403.23 52.8651L1397.78 48.8235C1384.76 39.1737 1382.82 39.5795 1393.61 49.6939C1400.63 56.2739 1405.14 61.8732 1405.14 64.016C1405.14 67.4844 1386.13 158.228 1382.79 170.733C1381.78 174.52 1380.33 176.709 1379.27 176.056C1376.7 174.472 1379.2 34.1778 1381.86 30.8624C1382.92 29.538 1389.55 25.8016 1396.6 22.5594C1410.69 16.0738 1410.82 13.2227 1396.77 18.7408C1391.92 20.6487 1387.13 22.2096 1386.16 22.2096C1385.19 22.2096 1386.81 17.998 1389.77 12.8504C1396.34 1.3917 1394.17 0.555153 1386.27 11.5085C1380.68 19.2769 1380.46 19.3959 1379.32 15.3373C1378.68 13.0336 1378.08 8.65995 1377.98 5.61818C1377.68 -4.23902 1374.58 -0.228591 1374.05 10.697L1373.54 21.3065L1366.99 12.3987C1360.6 3.70553 1354.47 -0.377155 1359.36 7.3199C1360.7 9.42572 1363.55 14.0381 1365.7 17.5695L1369.6 23.9903L1360.47 20.3676C1355.45 18.375 1350.26 16.3127 1348.93 15.7847C1347.37 15.1622 1346.96 15.5382 1347.77 16.8535C1348.47 17.9694 1353.57 21.1657 1359.12 23.9564C1364.68 26.7471 1370.28 30.7502 1371.59 32.8522C1373.52 35.9436 1374.04 50.2521 1374.31 107.72C1374.5 149.438 1374 178.765 1373.09 178.765C1372.24 178.765 1369.45 169.002 1366.89 157.068C1348.11 69.5517 1347.19 64.6671 1348.94 60.8871C1349.91 58.801 1355.74 53.2937 1361.89 48.6485C1374.84 38.8712 1373.79 36.1139 1360.51 45.0247C1355.58 48.3345 1351.22 50.734 1350.85 50.357C1350.47 49.9798 1351.77 45.3783 1353.74 40.131C1357.83 29.2441 1357.87 29.0164 1355.78 29.0164C1354.93 29.0164 1352.48 33.2281 1350.34 38.3757C1348.2 43.5233 1345.92 47.735 1345.28 47.735C1344.63 47.735 1343.14 44.2891 1341.95 40.0774C1339.78 32.3454 1336.11 29.1578 1337.54 36.2486C1337.97 38.3544 1338.75 42.6178 1339.27 45.7227L1340.21 51.3681L1330.84 43.3889C1319.8 33.9956 1318.46 36.0476 1328.52 46.9221C1336.24 55.2686 1336.21 55.3025 1323.14 52.8319C1309.94 50.3376 1310.73 52.0767 1324.72 56.3134C1331.41 58.3377 1338.35 61.256 1340.15 62.7984C1342.64 64.944 1346.06 77.9934 1354.72 118.355C1360.94 147.369 1366.45 172.83 1366.98 174.936C1368.79 182.196 1364.56 178.744 1360.72 169.831C1358.61 164.918 1354.59 155.92 1351.79 149.836C1346.46 138.252 1314.74 67.3282 1309.43 55.1352C1306.54 48.4927 1306.53 47.7596 1309.22 42.8505C1310.79 39.9791 1315.33 33.8675 1319.32 29.2694C1325.34 22.3245 1326.16 20.5737 1324.17 18.9285C1322.23 17.3257 1320.53 18.7438 1315.22 26.3654C1308.32 36.2724 1305.08 38.4069 1306.68 31.9944C1308.97 22.826 1309.83 13.7012 1308.4 13.7012C1307.55 13.7012 1305.69 18.8701 1304.27 25.1876L1301.68 36.674L1297.03 27.7401C1290.72 15.6188 1288.34 16.4283 1293.29 29.0133L1297.3 39.2203L1289.32 34.6892C1284.93 32.197 1280.61 29.5182 1279.71 28.7364C1278.82 27.9544 1277.48 27.3147 1276.72 27.3147C1273.4 27.3147 1276.01 30.3039 1284.15 35.8232L1292.93 41.7791L1280.73 42.2791C1271.42 42.6606 1268.53 43.3653 1268.53 45.257C1268.53 47.2431 1271.58 47.735 1283.91 47.735C1296.54 47.735 1299.76 48.2766 1301.9 50.7599C1305.84 55.3536 1360.74 178.359 1360.74 182.609C1360.74 185.911 1357.54 181.802 1321.88 132.604L1287.78 85.5923L1290.11 80.0817C1292.98 73.2872 1292.98 73.1599 1290.1 74.2578C1287.55 75.2357 1285.6 68.4671 1285.6 58.5831C1285.6 55.4244 1284.84 52.8399 1283.9 52.8399C1282.94 52.8399 1282.19 57.5919 1282.19 63.6925C1282.19 80.0954 1281.28 80.4683 1257.86 73.7235C1256.21 73.2503 1254.88 73.6251 1254.88 74.556C1254.88 75.4869 1259.53 77.9868 1265.23 80.1113C1276.27 84.2264 1276.21 85.8582 1264.89 87.764C1261.43 88.3457 1257.18 89.9716 1255.45 91.3773C1252.49 93.7835 1252.56 93.8762 1256.58 92.9613C1267.92 90.379 1278.97 89.9468 1283.71 91.9006C1289.2 94.1693 1311.36 122.743 1336.28 159.687C1354.28 186.394 1356.13 189.791 1349.02 183.143C1341.66 176.261 1339.99 179.138 1347.1 186.448C1350.27 189.71 1352.32 192.378 1351.65 192.378C1350.97 192.378 1343.55 188.932 1335.12 184.721C1326.72 180.509 1319.38 177.063 1318.83 177.063C1315.95 177.063 1321.29 181.049 1333.85 188.269C1341.58 192.716 1347.14 196.612 1346.19 196.926C1345.25 197.24 1334.15 194.463 1321.52 190.755C1308.89 187.046 1298.33 184.231 1298.06 184.499C1297.79 184.768 1307.37 188.661 1319.34 193.152C1331.31 197.643 1341.83 201.986 1342.72 202.804C1345.8 205.629 1317.26 203.482 1247.03 195.607C1225.29 193.169 1222.08 191.077 1217.3 176.212L1214.02 166.002L1215.03 175.964C1216.13 186.873 1216.2 186.846 1205.78 179.394C1200.14 175.367 1201.09 179.029 1207.19 184.828L1212.44 189.826L1202.5 190.727L1192.54 191.629L1203.43 193.97L1214.32 196.31L1209.41 199.007L1204.51 201.704L1209.33 202.272C1213.08 202.714 1213.89 203.475 1212.97 205.692C1212.32 207.261 1211.36 210.076 1210.84 211.948C1209.99 214.954 1210.22 215.078 1212.75 213.016C1214.32 211.731 1215.59 209.737 1215.59 208.585C1215.59 207.432 1217.59 204.354 1220.02 201.745C1224.4 197.026 1224.5 197.007 1240.27 198.112C1248.99 198.722 1259.12 199.587 1262.76 200.034C1266.41 200.48 1283.98 202.417 1301.83 204.338C1319.67 206.259 1336.87 208.287 1340.04 208.845C1348.28 210.291 1343.68 212.132 1328.29 213.546C1321.25 214.193 1313.18 215.019 1310.36 215.381C1307.55 215.743 1285.65 218.035 1261.7 220.473C1212.46 225.487 1210.47 225.79 1210.47 228.282C1210.47 229.337 1212.42 229.707 1215.17 229.172C1217.75 228.669 1224.86 227.806 1230.96 227.253C1237.07 226.7 1244.75 225.921 1248.04 225.522C1251.32 225.123 1265.92 223.613 1280.48 222.169C1295.04 220.724 1308.87 219.203 1311.22 218.789C1322.73 216.758 1346.14 215.949 1344.52 217.637C1341.86 220.423 1238.86 253.639 1232.88 253.639C1229.83 253.639 1226.1 252.184 1224.14 250.236C1220.73 246.832 1220.72 246.832 1220.72 250.236C1220.72 252.108 1220.52 253.63 1220.29 253.619C1220.06 253.609 1215.64 252.468 1210.47 251.087C1199.84 248.242 1196.81 247.965 1196.81 249.835C1196.81 250.55 1202.37 252.716 1209.16 254.648L1221.52 258.161L1213.01 261.286C1208.33 263.005 1203.78 265.051 1202.88 265.832C1200.53 267.891 1207.27 267.594 1213.72 265.354C1216.73 264.31 1219.5 263.773 1219.89 264.161C1220.28 264.549 1217.49 269.232 1213.69 274.568C1205.32 286.333 1207.54 287.371 1217.16 276.187L1224.11 268.104V282.042C1224.11 289.708 1223.37 296.444 1222.45 297.011C1220.32 298.32 1215.34 295.656 1204.13 287.234C1199.23 283.555 1194.28 280.852 1193.15 281.228C1192.02 281.604 1195.47 285.314 1200.82 289.472L1210.55 297.032L1199.41 297.535C1187.09 298.091 1184.02 301.187 1195.52 301.456C1199.51 301.549 1204.52 302.124 1206.64 302.732C1210.11 303.73 1209.64 304.308 1201.94 308.617C1197.23 311.245 1193.39 314.116 1193.39 314.998C1193.39 317.311 1194.26 317.081 1203.84 312.244L1212.47 307.886L1211.25 311.819C1210.58 313.981 1208.59 318.592 1206.83 322.064C1203.29 329.06 1203.02 330.215 1204.95 330.215C1205.67 330.215 1208.93 325.429 1212.19 319.58L1218.13 308.944L1219.57 321.281C1221.7 339.294 1224.64 337.001 1223.19 318.464C1222.08 304.287 1222.24 303.107 1225.67 300.171C1229.09 297.257 1288.55 262.479 1332.98 237.415C1343.54 231.454 1352.19 227.362 1352.19 228.321C1352.19 229.28 1348.97 232.88 1345.04 236.321C1322.19 256.312 1302.92 273.528 1285.27 289.693C1274.28 299.752 1263.4 308.453 1261.1 309.028C1258.33 309.721 1252.88 308.304 1244.93 304.83C1231.96 299.155 1230.95 298.878 1230.95 300.974C1230.95 301.737 1235.6 304.577 1241.29 307.285C1252.59 312.669 1252.23 313.435 1237.36 315.619C1224.52 317.504 1227.63 320.178 1241.2 318.922C1247.77 318.313 1253.15 318.205 1253.15 318.682C1253.15 319.16 1249.67 322.264 1245.39 325.581C1240.98 329.011 1238.39 332.091 1239.42 332.722C1240.41 333.332 1244.58 331.085 1248.69 327.728L1256.17 321.624L1253.98 333.152C1251.91 344.027 1251.94 347.305 1254.08 345.172C1254.59 344.663 1256.42 339.366 1258.15 333.402C1260.65 324.813 1261.58 323.265 1262.63 325.961C1269.37 343.354 1270.05 344.654 1270.14 340.303C1270.19 337.896 1269 332.326 1267.5 327.925C1265.99 323.523 1265.21 318.099 1265.77 315.87C1266.38 313.477 1280.26 299.741 1299.67 282.332C1317.75 266.116 1337.04 248.431 1342.51 243.033C1351.55 234.13 1355.6 231.406 1355.6 234.258C1355.6 234.83 1352.14 240.227 1347.92 246.252C1339.76 257.884 1339.34 258.744 1341.81 258.744C1342.67 258.744 1347.07 253.726 1351.59 247.592C1356.11 241.459 1360.05 237.169 1360.35 238.06C1360.65 238.951 1358.99 244.342 1356.67 250.042C1350.94 264.101 1353.64 264.631 1360.49 250.79C1363.53 244.649 1366.36 239.972 1366.79 240.396C1367.21 240.82 1365.25 252.516 1362.44 266.387C1356.52 295.479 1356.89 292.778 1358.85 292.778C1359.7 292.778 1362.43 284.044 1364.92 273.369C1372.21 242.138 1372.29 241.943 1376.14 242.945C1378 243.43 1379.52 243.928 1379.53 244.053C1379.53 244.178 1387.54 275.497 1397.3 313.651C1414.52 380.992 1414.94 383.074 1411.64 384.836C1406.8 387.417 1394.89 398.379 1394.89 400.246C1394.89 401.108 1399.49 398.693 1405.12 394.88C1410.76 391.066 1415.38 388.238 1415.38 388.594C1415.38 388.95 1413.89 393.509 1412.09 398.725C1409.23 407.021 1409.06 410.195 1411.48 410.195C1411.84 410.195 1414.18 405.792 1416.68 400.41L1416.74 400.409ZM1225.95 288.948C1226.19 280.713 1231.05 263.097 1233.77 260.558C1237.01 257.527 1340.62 223.007 1346.47 223.007C1348.19 223.007 1344.24 226.33 1337.69 230.391C1324.95 238.289 1245.76 283.677 1236.65 288.301C1230.12 291.613 1225.87 291.87 1225.95 288.948ZM1278.56 375.349C1286.56 388.719 1287.51 385.487 1279.96 370.625C1273.14 357.216 1272.6 354.907 1275.83 352.846C1277.01 352.097 1279.71 347.656 1281.83 342.977L1285.69 334.468L1276.51 344.44L1267.32 354.411L1255.23 351.672C1248.58 350.165 1241.41 348.932 1239.3 348.932C1232.57 348.932 1238.16 351.88 1249.79 354.464L1260.89 356.928L1249.79 362.143C1238.58 367.414 1240.21 370.071 1251.71 365.254C1255.92 363.488 1258.35 363.331 1260.88 364.657C1265.84 367.256 1266.81 369.338 1266.84 377.297C1266.89 390.778 1269.28 391.289 1271.11 378.209L1272.85 365.794L1278.56 375.349ZM1487.17 377.436L1487.22 366.8L1493.02 373.607C1500.48 382.373 1502.16 380.772 1495.71 371.054C1492.96 366.925 1490.95 363.318 1491.23 363.038C1491.51 362.759 1496.28 363.978 1501.83 365.746C1517.04 370.59 1517.26 367.306 1502.11 361.688C1493.28 358.414 1492.06 356.583 1497.54 354.848C1503.94 352.824 1499.63 352.068 1492.54 353.97C1483.08 356.509 1475.5 363.307 1470.72 373.537C1464.64 386.548 1465.9 388.406 1473.28 377.331C1479.28 368.345 1479.98 367.8 1480.94 371.375C1481.52 373.538 1482.01 378.18 1482.02 381.69C1482.02 386.217 1482.79 388.071 1484.6 388.071C1486.61 388.071 1487.17 385.744 1487.19 377.436H1487.17ZM1318.83 371.054C1318.18 364.454 1318.32 359.128 1319.16 359.109C1319.98 359.09 1324.41 363.111 1328.98 368.043C1333.56 372.975 1336.29 375.479 1335.02 373.607C1333.76 371.735 1329.43 366.599 1325.41 362.193C1320.6 356.925 1318.1 352.615 1318.1 349.602C1318.1 347.082 1321.97 336.613 1326.7 326.339C1331.43 316.064 1334.98 307.337 1334.59 306.947C1333.72 306.074 1327.35 316.874 1319.3 332.864C1315.98 339.47 1312 345.916 1310.46 347.19C1308.85 348.521 1301.71 349.884 1293.67 350.395L1279.68 351.283L1291.59 353.086L1303.52 354.888L1294.17 361.559C1283.06 369.5 1285.24 371.732 1296.99 364.443C1301.51 361.64 1305.53 359.666 1305.92 360.057C1306.32 360.449 1305.29 364.278 1303.65 368.567C1302 372.857 1301.13 376.83 1301.69 377.397C1303.06 378.756 1303.32 378.421 1308.26 368.63L1312.49 360.249L1314.76 371.608C1316.01 377.855 1317.7 382.966 1318.52 382.966C1319.35 382.966 1319.48 377.641 1318.83 371.054ZM1487.11 335.004C1487.11 334.363 1487.94 331.75 1488.92 329.197C1490.26 325.669 1491.16 325.029 1492.67 326.533C1495.4 329.254 1497.39 329.012 1497.39 325.96C1497.39 322.112 1499.64 322.859 1505.07 328.512C1509.84 333.473 1514.47 335.219 1514.47 332.059C1514.47 331.201 1511.4 328.074 1507.64 325.109C1500.98 319.847 1498.66 316.044 1502.94 317.367C1504.11 317.731 1509.11 318.499 1514.04 319.074C1525.79 320.446 1525.87 317.315 1514.14 315.454C1509.26 314.681 1505.24 313.282 1505.19 312.346C1505.14 311.41 1508.95 308.556 1513.62 306.005C1524.47 300.107 1520.61 299.963 1506.16 305.724C1497.13 309.325 1494.02 309.855 1489.68 308.529L1484.34 306.895L1486.08 313.379C1487.45 318.521 1487.17 321.904 1484.7 329.718C1482.98 335.138 1481.23 340.722 1480.79 342.126C1480.35 343.529 1481.59 342.764 1483.53 340.424C1485.48 338.084 1487.09 335.645 1487.11 335.004ZM1308.55 306.526C1319.44 291.625 1328.34 278.121 1328.34 276.516C1328.34 272.847 1327.61 273.781 1303.93 307.667C1293.96 321.939 1286.47 333.617 1287.28 333.617C1288.1 333.617 1297.67 321.426 1308.55 306.526ZM1181.5 243.428C1185.73 240.628 1190.38 238.334 1191.84 238.33C1193.31 238.326 1196.14 236.122 1198.14 233.433L1201.77 228.542L1196.71 223.719C1193.94 221.066 1189.37 214.843 1186.56 209.89C1179.62 197.627 1176.88 198.439 1183.23 210.881C1186.03 216.378 1188.32 221.367 1188.32 221.966C1188.32 222.566 1183.75 220.757 1178.17 217.947C1164.78 211.214 1163.57 213.77 1176.59 221.289C1187.4 227.539 1187.09 229.434 1175.19 229.695C1165.02 229.918 1167.19 233.215 1177.55 233.285L1187.47 233.353L1179.19 240.943C1169.61 249.729 1170.52 250.702 1181.5 243.428ZM1569.21 229.084C1567.45 226.977 1568.52 225.797 1575.77 221.81C1580.53 219.193 1584.44 216.484 1584.45 215.79C1584.45 215.096 1579.29 216.509 1572.95 218.929C1566.61 221.349 1559.33 224.093 1556.77 225.027C1553.49 226.219 1544.08 225.886 1525.17 223.909C1445.97 215.631 1419.63 213.144 1418.9 213.875C1416.69 216.075 1425.43 217.606 1460.28 221.123C1481.16 223.231 1514.38 226.654 1534.1 228.731C1553.82 230.808 1570.27 232.303 1570.64 232.053C1571.01 231.803 1570.36 230.467 1569.21 229.084ZM1197.04 164.898C1202.13 157.78 1206.25 156.022 1210.93 158.979C1215.57 161.912 1274.93 179.205 1277.47 178.363C1278.45 178.038 1263.59 172.526 1244.46 166.114C1225.32 159.702 1208.71 153.588 1207.55 152.526C1206.38 151.464 1204.94 144.873 1204.35 137.878C1202.83 120.052 1200.42 117.064 1200.26 132.818L1200.13 145.581L1192.56 137.169C1188.4 132.543 1184.59 129.162 1184.09 129.656C1183.6 130.15 1186.32 134.893 1190.13 140.195C1193.94 145.497 1196.76 149.835 1196.41 149.835C1196.06 149.835 1191.74 148.641 1186.8 147.181C1173.57 143.264 1172.33 145.144 1184.86 150.137L1195.73 154.471L1183.91 158.391C1170.8 162.742 1171.52 164.766 1185.15 161.853C1189.99 160.82 1194.2 160.223 1194.51 160.527C1194.81 160.831 1192 164.759 1188.27 169.256C1184.54 173.753 1181.5 177.771 1181.5 178.185C1181.5 179.923 1193.85 169.363 1197.04 164.898ZM1329.91 166.356C1314.26 152.385 1268.16 110.618 1257.05 100.344C1250.24 94.0474 1244.67 87.9591 1244.67 86.8139C1244.67 85.6686 1246.59 79.4245 1248.94 72.938C1253.54 60.2418 1253.98 57.9437 1251.82 57.9437C1251.05 57.9437 1248.6 63.1072 1246.36 69.4182L1242.3 80.8927L1238.86 69.8437C1234.99 57.3752 1234.81 56.9934 1233.42 58.376C1232.87 58.9257 1233.32 63.7086 1234.43 69.0047C1235.53 74.3007 1236.1 78.9659 1235.69 79.3717C1235.29 79.7774 1232.04 77.8024 1228.48 74.9826C1224.92 72.1627 1221.34 69.8555 1220.53 69.8555C1217.39 69.8555 1219.41 72.6064 1225.93 77.1981C1235.74 84.1197 1234.76 85.7834 1221.63 84.3827C1209.62 83.1008 1205.82 85.6879 1216.92 87.5921C1235.03 90.6976 1234.65 90.0946 1222.41 96.3649C1206.53 104.506 1214.3 103.449 1234.84 94.6736C1240.94 92.0669 1241.38 92.1028 1244.77 95.4786C1247.7 98.397 1247.94 99.4638 1246.15 101.608C1244.96 103.036 1243.12 108.537 1242.05 113.832L1240.1 123.459L1234.54 113.674C1227.04 100.472 1224.86 101.263 1231.02 114.95C1233.76 121.034 1235.61 126.011 1235.15 126.011C1234.69 126.011 1230.52 124.097 1225.89 121.757C1221.26 119.417 1216.96 117.503 1216.35 117.503C1213.95 117.503 1219.83 122.82 1226.11 126.34C1229.75 128.376 1232.72 130.666 1232.72 131.43C1232.72 132.193 1227.73 132.818 1221.63 132.818C1207.16 132.818 1207.2 135.916 1221.68 136.569L1232.83 137.072L1224.3 143.798C1209.5 155.46 1215.29 153.475 1237.78 139.177C1242.48 136.19 1242.57 136.215 1259.17 144.895C1278.98 155.255 1279.38 153.455 1259.83 141.948C1252.22 137.472 1245.58 132.717 1245.07 131.381C1244.02 128.678 1247.14 102.57 1248.68 101.028C1249.72 99.9903 1283.04 128.248 1312.97 155.566C1322.84 164.563 1332.06 171.9 1333.47 171.87C1335.04 171.836 1333.66 169.704 1329.91 166.356ZM1433.66 134.52C1442.04 123.757 1452.51 109.875 1456.92 103.671C1469.38 86.1662 1467.14 86.7733 1495.68 93.1629C1504.14 95.0562 1496.41 90.1422 1486.16 87.1107L1476.17 84.1549L1486.78 80.201C1492.62 78.0265 1497.39 75.5749 1497.39 74.7531C1497.39 72.8771 1498.4 72.7216 1485.76 76.5546L1474.96 79.8243L1477.64 75.6907C1479.11 73.4173 1481.57 69.6189 1483.11 67.2499C1484.64 64.8809 1485.47 62.5105 1484.94 61.9824C1483.91 60.9613 1473.62 71.5248 1473.53 73.6843C1473.49 74.3862 1472.72 74.9605 1471.78 74.9605C1470.81 74.9605 1470.07 70.1392 1470.07 63.8996C1470.07 57.6601 1469.32 52.8386 1468.36 52.8386C1467.4 52.8386 1466.65 57.6601 1466.65 63.8996C1466.65 69.9832 1466.06 74.9605 1465.34 74.9605C1464.62 74.9605 1461.51 70.7489 1458.42 65.6013C1455.33 60.4537 1452.48 56.242 1452.09 56.242C1451.16 56.242 1453.87 63.319 1457.44 70.1931C1465.03 84.8305 1463.76 90.6019 1448.95 108.834C1443.93 115.006 1434.92 127.307 1428.91 136.17C1410.11 163.901 1411.04 163.58 1433.66 134.52Z"
        fill="url(#paint0_angular_102_5)"></path>
    <path
        d="M188.397 637.595C152.759 637.595 120.581 629.637 91.863 613.721C63.491 597.805 41.001 575.834 24.393 547.808C8.131 519.782 0 488.296 0 453.35C0 418.404 8.131 386.918 24.393 358.892C41.001 330.866 63.491 308.895 91.863 292.979C120.581 277.063 152.759 269.105 188.397 269.105C214.693 269.105 238.913 273.43 261.057 282.08C283.201 290.384 302.058 302.84 317.628 319.448L301.02 336.575C271.956 307.857 234.761 293.498 189.435 293.498C158.987 293.498 131.307 300.418 106.395 314.258C81.483 328.098 61.934 347.301 47.748 371.867C33.562 396.087 26.469 423.248 26.469 453.35C26.469 483.452 33.562 510.786 47.748 535.352C61.934 559.572 81.483 578.602 106.395 592.442C131.307 606.282 158.987 613.202 189.435 613.202C234.415 613.202 271.61 598.67 301.02 569.606L317.628 586.733C302.058 603.341 283.028 615.97 260.538 624.62C238.394 633.27 214.347 637.595 188.397 637.595ZM467.526 637.076C441.922 637.076 418.74 631.194 397.98 619.43C377.566 607.666 361.477 591.404 349.713 570.644C337.949 549.538 332.067 525.837 332.067 499.541C332.067 473.245 337.949 449.717 349.713 428.957C361.477 407.851 377.566 391.416 397.98 379.652C418.74 367.888 441.922 362.006 467.526 362.006C493.13 362.006 516.139 367.888 536.553 379.652C557.313 391.416 573.575 407.851 585.339 428.957C597.103 449.717 602.985 473.245 602.985 499.541C602.985 525.837 597.103 549.538 585.339 570.644C573.575 591.404 557.313 607.666 536.553 619.43C516.139 631.194 493.13 637.076 467.526 637.076ZM467.526 613.721C488.286 613.721 506.797 608.877 523.059 599.189C539.667 589.501 552.642 576.007 561.984 558.707C571.672 541.407 576.516 521.685 576.516 499.541C576.516 477.397 571.672 457.675 561.984 440.375C552.642 423.075 539.667 409.581 523.059 399.893C506.797 390.205 488.286 385.361 467.526 385.361C446.766 385.361 428.082 390.205 411.474 399.893C395.212 409.581 382.237 423.075 372.549 440.375C363.207 457.675 358.536 477.397 358.536 499.541C358.536 521.685 363.207 541.407 372.549 558.707C382.237 576.007 395.212 589.501 411.474 599.189C428.082 608.877 446.766 613.721 467.526 613.721ZM730.72 490.199L660.136 554.555V635H634.186V249.902H660.136V522.377L833.482 364.082H866.698L749.923 473.591L878.116 635H845.938L730.72 490.199ZM1006.26 637.076C980.645 637.076 957.466 631.194 936.706 619.43C916.292 607.666 900.203 591.404 888.439 570.644C876.675 549.538 870.793 525.837 870.793 499.541C870.793 473.245 876.675 449.717 888.439 428.957C900.203 407.851 916.292 391.416 936.706 379.652C957.466 367.888 980.645 362.006 1006.26 362.006C1031.86 362.006 1054.86 367.888 1075.27 379.652C1096.03 391.416 1112.3 407.851 1124.06 428.957C1135.82 449.717 1141.71 473.245 1141.71 499.541C1141.71 525.837 1135.82 549.538 1124.06 570.644C1112.3 591.404 1096.03 607.666 1075.27 619.43C1054.86 631.194 1031.86 637.076 1006.26 637.076ZM1006.26 613.721C1027.02 613.721 1045.52 608.877 1061.78 599.189C1078.39 589.501 1091.36 576.007 1100.7 558.707C1110.39 541.407 1115.24 521.685 1115.24 499.541C1115.24 477.397 1110.39 457.675 1100.7 440.375C1091.36 423.075 1078.39 409.581 1061.78 399.893C1045.52 390.205 1027.02 385.361 1006.26 385.361C985.495 385.361 966.808 390.205 950.2 399.893C933.938 409.581 920.963 423.075 911.275 440.375C901.933 457.675 897.262 477.397 897.262 499.541C897.262 521.685 901.933 541.407 911.275 558.707C920.963 576.007 933.938 589.501 950.2 599.189C966.808 608.877 985.495 613.721 1006.26 613.721Z"
        fill="url(#paint1_angular_102_5)"></path>
    <path
        d="M29.28 820V746.44H0.48V736H69.96V746.44H41.16V820H29.28ZM79.8263 820V756.4H90.8663V773.68L89.7863 769.36C91.5463 764.96 94.5063 761.6 98.6663 759.28C102.826 756.96 107.946 755.8 114.026 755.8V766.96C113.546 766.88 113.066 766.84 112.586 766.84C112.186 766.84 111.786 766.84 111.386 766.84C105.226 766.84 100.346 768.68 96.7463 772.36C93.1463 776.04 91.3463 781.36 91.3463 788.32V820H79.8263ZM163.017 820V806.56L162.417 804.04V781.12C162.417 776.24 160.977 772.48 158.097 769.84C155.297 767.12 151.057 765.76 145.377 765.76C141.617 765.76 137.937 766.4 134.337 767.68C130.737 768.88 127.697 770.52 125.217 772.6L120.417 763.96C123.697 761.32 127.617 759.32 132.177 757.96C136.817 756.52 141.657 755.8 146.697 755.8C155.417 755.8 162.137 757.92 166.857 762.16C171.577 766.4 173.937 772.88 173.937 781.6V820H163.017ZM142.137 820.72C137.417 820.72 133.257 819.92 129.657 818.32C126.137 816.72 123.417 814.52 121.497 811.72C119.577 808.84 118.617 805.6 118.617 802C118.617 798.56 119.417 795.44 121.017 792.64C122.697 789.84 125.377 787.6 129.057 785.92C132.817 784.24 137.857 783.4 144.177 783.4H164.337V791.68H144.657C138.897 791.68 135.017 792.64 133.017 794.56C131.017 796.48 130.017 798.8 130.017 801.52C130.017 804.64 131.257 807.16 133.737 809.08C136.217 810.92 139.657 811.84 144.057 811.84C148.377 811.84 152.137 810.88 155.337 808.96C158.617 807.04 160.977 804.24 162.417 800.56L164.697 808.48C163.177 812.24 160.497 815.24 156.657 817.48C152.817 819.64 147.977 820.72 142.137 820.72ZM229.216 755.8C234.416 755.8 238.976 756.8 242.896 758.8C246.896 760.8 250.016 763.84 252.256 767.92C254.496 772 255.616 777.16 255.616 783.4V820H244.096V784.72C244.096 778.56 242.576 773.92 239.536 770.8C236.576 767.68 232.376 766.12 226.936 766.12C222.856 766.12 219.296 766.92 216.256 768.52C213.216 770.12 210.856 772.48 209.176 775.6C207.576 778.72 206.776 782.6 206.776 787.24V820H195.256V756.4H206.296V773.56L204.496 769C206.576 764.84 209.776 761.6 214.096 759.28C218.416 756.96 223.456 755.8 229.216 755.8ZM295.176 820.72C289.896 820.72 284.856 820 280.056 818.56C275.336 817.12 271.616 815.36 268.896 813.28L273.696 804.16C276.416 806 279.776 807.56 283.776 808.84C287.776 810.12 291.856 810.76 296.016 810.76C301.376 810.76 305.216 810 307.536 808.48C309.936 806.96 311.136 804.84 311.136 802.12C311.136 800.12 310.416 798.56 308.976 797.44C307.536 796.32 305.616 795.48 303.216 794.92C300.896 794.36 298.296 793.88 295.416 793.48C292.536 793 289.656 792.44 286.776 791.8C283.896 791.08 281.256 790.12 278.856 788.92C276.456 787.64 274.536 785.92 273.096 783.76C271.656 781.52 270.936 778.56 270.936 774.88C270.936 771.04 272.016 767.68 274.176 764.8C276.336 761.92 279.376 759.72 283.296 758.2C287.296 756.6 292.016 755.8 297.456 755.8C301.616 755.8 305.816 756.32 310.056 757.36C314.376 758.32 317.896 759.72 320.616 761.56L315.696 770.68C312.816 768.76 309.816 767.44 306.696 766.72C303.576 766 300.456 765.64 297.336 765.64C292.296 765.64 288.536 766.48 286.056 768.16C283.576 769.76 282.336 771.84 282.336 774.4C282.336 776.56 283.056 778.24 284.496 779.44C286.016 780.56 287.936 781.44 290.256 782.08C292.656 782.72 295.296 783.28 298.176 783.76C301.056 784.16 303.936 784.72 306.816 785.44C309.696 786.08 312.296 787 314.616 788.2C317.016 789.4 318.936 791.08 320.376 793.24C321.896 795.4 322.656 798.28 322.656 801.88C322.656 805.72 321.536 809.04 319.296 811.84C317.056 814.64 313.896 816.84 309.816 818.44C305.736 819.96 300.856 820.72 295.176 820.72ZM338.733 820V750.76C338.733 744.52 340.533 739.56 344.133 735.88C347.813 732.12 353.013 730.24 359.733 730.24C362.213 730.24 364.573 730.56 366.813 731.2C369.133 731.76 371.093 732.68 372.693 733.96L369.213 742.72C368.013 741.76 366.653 741.04 365.133 740.56C363.613 740 362.013 739.72 360.333 739.72C356.973 739.72 354.413 740.68 352.653 742.6C350.893 744.44 350.013 747.2 350.013 750.88V759.4L350.253 764.68V820H338.733ZM327.933 765.88V756.4H368.493V765.88H327.933ZM405.66 820.72C399.26 820.72 393.58 819.32 388.62 816.52C383.66 813.72 379.74 809.88 376.86 805C373.98 800.04 372.54 794.44 372.54 788.2C372.54 781.88 373.98 776.28 376.86 771.4C379.74 766.52 383.66 762.72 388.62 760C393.58 757.2 399.26 755.8 405.66 755.8C411.98 755.8 417.62 757.2 422.58 760C427.62 762.72 431.54 766.52 434.34 771.4C437.22 776.2 438.66 781.8 438.66 788.2C438.66 794.52 437.22 800.12 434.34 805C431.54 809.88 427.62 813.72 422.58 816.52C417.62 819.32 411.98 820.72 405.66 820.72ZM405.66 810.64C409.74 810.64 413.38 809.72 416.58 807.88C419.86 806.04 422.42 803.44 424.26 800.08C426.1 796.64 427.02 792.68 427.02 788.2C427.02 783.64 426.1 779.72 424.26 776.44C422.42 773.08 419.86 770.48 416.58 768.64C413.38 766.8 409.74 765.88 405.66 765.88C401.58 765.88 397.94 766.8 394.74 768.64C391.54 770.48 388.98 773.08 387.06 776.44C385.14 779.72 384.18 783.64 384.18 788.2C384.18 792.68 385.14 796.64 387.06 800.08C388.98 803.44 391.54 806.04 394.74 807.88C397.94 809.72 401.58 810.64 405.66 810.64ZM454.592 820V756.4H465.632V773.68L464.552 769.36C466.312 764.96 469.272 761.6 473.432 759.28C477.592 756.96 482.712 755.8 488.792 755.8V766.96C488.312 766.88 487.832 766.84 487.352 766.84C486.952 766.84 486.552 766.84 486.152 766.84C479.992 766.84 475.112 768.68 471.512 772.36C467.912 776.04 466.112 781.36 466.112 788.32V820H454.592ZM582.55 755.8C587.67 755.8 592.19 756.8 596.11 758.8C600.03 760.8 603.07 763.84 605.23 767.92C607.47 772 608.59 777.16 608.59 783.4V820H597.07V784.72C597.07 778.56 595.63 773.92 592.75 770.8C589.87 767.68 585.83 766.12 580.63 766.12C576.79 766.12 573.43 766.92 570.55 768.52C567.67 770.12 565.43 772.48 563.83 775.6C562.31 778.72 561.55 782.6 561.55 787.24V820H550.03V784.72C550.03 778.56 548.59 773.92 545.71 770.8C542.91 767.68 538.87 766.12 533.59 766.12C529.83 766.12 526.51 766.92 523.63 768.52C520.75 770.12 518.51 772.48 516.91 775.6C515.31 778.72 514.51 782.6 514.51 787.24V820H502.99V756.4H514.03V773.32L512.23 769C514.23 764.84 517.31 761.6 521.47 759.28C525.63 756.96 530.47 755.8 535.99 755.8C542.07 755.8 547.31 757.32 551.71 760.36C556.11 763.32 558.99 767.84 560.35 773.92L555.67 772C557.59 767.12 560.95 763.2 565.75 760.24C570.55 757.28 576.15 755.8 582.55 755.8ZM629.787 820V756.4H641.307V820H629.787ZM635.547 744.16C633.307 744.16 631.427 743.44 629.907 742C628.467 740.56 627.747 738.8 627.747 736.72C627.747 734.56 628.467 732.76 629.907 731.32C631.427 729.88 633.307 729.16 635.547 729.16C637.787 729.16 639.627 729.88 641.067 731.32C642.587 732.68 643.347 734.4 643.347 736.48C643.347 738.64 642.627 740.48 641.187 742C639.747 743.44 637.867 744.16 635.547 744.16ZM697.263 755.8C702.463 755.8 707.023 756.8 710.943 758.8C714.943 760.8 718.063 763.84 720.303 767.92C722.543 772 723.663 777.16 723.663 783.4V820H712.143V784.72C712.143 778.56 710.623 773.92 707.583 770.8C704.623 767.68 700.423 766.12 694.983 766.12C690.903 766.12 687.343 766.92 684.303 768.52C681.263 770.12 678.903 772.48 677.223 775.6C675.623 778.72 674.823 782.6 674.823 787.24V820H663.303V756.4H674.343V773.56L672.543 769C674.623 764.84 677.823 761.6 682.143 759.28C686.463 756.96 691.503 755.8 697.263 755.8ZM772.823 844C766.983 844 761.303 843.16 755.783 841.48C750.343 839.88 745.903 837.56 742.463 834.52L747.983 825.64C750.943 828.2 754.583 830.2 758.903 831.64C763.223 833.16 767.743 833.92 772.463 833.92C779.983 833.92 785.503 832.16 789.023 828.64C792.543 825.12 794.303 819.76 794.303 812.56V799.12L795.503 786.52L794.903 773.8V756.4H805.823V811.36C805.823 822.56 803.023 830.8 797.422 836.08C791.823 841.36 783.623 844 772.823 844ZM771.383 817.36C765.223 817.36 759.703 816.08 754.823 813.52C750.023 810.88 746.183 807.24 743.303 802.6C740.503 797.96 739.103 792.6 739.103 786.52C739.103 780.36 740.503 775 743.303 770.44C746.183 765.8 750.023 762.2 754.823 759.64C759.703 757.08 765.223 755.8 771.383 755.8C776.823 755.8 781.783 756.92 786.263 759.16C790.743 761.32 794.303 764.68 796.943 769.24C799.663 773.8 801.023 779.56 801.023 786.52C801.023 793.4 799.663 799.12 796.943 803.68C794.303 808.24 790.743 811.68 786.263 814C781.783 816.24 776.823 817.36 771.383 817.36ZM772.703 807.28C776.943 807.28 780.703 806.4 783.983 804.64C787.263 802.88 789.823 800.44 791.663 797.32C793.583 794.2 794.543 790.6 794.543 786.52C794.543 782.44 793.583 778.84 791.663 775.72C789.823 772.6 787.263 770.2 783.983 768.52C780.703 766.76 776.943 765.88 772.703 765.88C768.463 765.88 764.663 766.76 761.303 768.52C758.023 770.2 755.423 772.6 753.503 775.72C751.663 778.84 750.743 782.44 750.743 786.52C750.743 790.6 751.663 794.2 753.503 797.32C755.423 800.44 758.023 802.88 761.303 804.64C764.663 806.4 768.463 807.28 772.703 807.28ZM861.741 820V736H894.501C901.861 736 908.141 737.16 913.341 739.48C918.541 741.8 922.541 745.16 925.341 749.56C928.141 753.96 929.541 759.2 929.541 765.28C929.541 771.36 928.141 776.6 925.341 781C922.541 785.32 918.541 788.68 913.341 791.08C908.141 793.4 901.861 794.56 894.501 794.56H868.341L873.741 788.92V820H861.741ZM873.741 790.12L868.341 784.12H894.141C901.821 784.12 907.621 782.48 911.541 779.2C915.541 775.92 917.541 771.28 917.541 765.28C917.541 759.28 915.541 754.64 911.541 751.36C907.621 748.08 901.821 746.44 894.141 746.44H868.341L873.741 740.44V790.12ZM973.422 820.72C967.982 820.72 963.182 819.72 959.022 817.72C954.942 815.72 951.742 812.68 949.422 808.6C947.182 804.44 946.062 799.24 946.062 793V756.4H957.582V791.68C957.582 797.92 959.062 802.6 962.022 805.72C965.062 808.84 969.302 810.4 974.742 810.4C978.742 810.4 982.222 809.6 985.182 808C988.142 806.32 990.422 803.92 992.022 800.8C993.622 797.6 994.422 793.76 994.422 789.28V756.4H1005.94V820H995.022V802.84L996.822 807.4C994.742 811.64 991.622 814.92 987.462 817.24C983.302 819.56 978.622 820.72 973.422 820.72ZM1061.59 820.72C1056.15 820.72 1051.23 819.52 1046.83 817.12C1042.51 814.64 1039.07 811 1036.51 806.2C1034.03 801.4 1032.79 795.4 1032.79 788.2C1032.79 781 1034.07 775 1036.63 770.2C1039.27 765.4 1042.75 761.8 1047.07 759.4C1051.47 757 1056.31 755.8 1061.59 755.8C1067.83 755.8 1073.35 757.16 1078.15 759.88C1082.95 762.6 1086.75 766.4 1089.55 771.28C1092.35 776.08 1093.75 781.72 1093.75 788.2C1093.75 794.68 1092.35 800.36 1089.55 805.24C1086.75 810.12 1082.95 813.92 1078.15 816.64C1073.35 819.36 1067.83 820.72 1061.59 820.72ZM1027.87 820V730.96H1039.39V773.32L1038.19 788.08L1038.91 802.84V820H1027.87ZM1060.63 810.64C1064.71 810.64 1068.35 809.72 1071.55 807.88C1074.83 806.04 1077.39 803.44 1079.23 800.08C1081.15 796.64 1082.11 792.68 1082.11 788.2C1082.11 783.64 1081.15 779.72 1079.23 776.44C1077.39 773.08 1074.83 770.48 1071.55 768.64C1068.35 766.8 1064.71 765.88 1060.63 765.88C1056.63 765.88 1052.99 766.8 1049.71 768.64C1046.51 770.48 1043.95 773.08 1042.03 776.44C1040.19 779.72 1039.27 783.64 1039.27 788.2C1039.27 792.68 1040.19 796.64 1042.03 800.08C1043.95 803.44 1046.51 806.04 1049.71 807.88C1052.99 809.72 1056.63 810.64 1060.63 810.64ZM1109.67 820V730.96H1121.19V820H1109.67ZM1143.19 820V756.4H1154.71V820H1143.19ZM1148.95 744.16C1146.71 744.16 1144.83 743.44 1143.31 742C1141.87 740.56 1141.15 738.8 1141.15 736.72C1141.15 734.56 1141.87 732.76 1143.31 731.32C1144.83 729.88 1146.71 729.16 1148.95 729.16C1151.19 729.16 1153.03 729.88 1154.47 731.32C1155.99 732.68 1156.75 734.4 1156.75 736.48C1156.75 738.64 1156.03 740.48 1154.59 742C1153.15 743.44 1151.27 744.16 1148.95 744.16ZM1194.94 820.72C1189.66 820.72 1184.62 820 1179.82 818.56C1175.1 817.12 1171.38 815.36 1168.66 813.28L1173.46 804.16C1176.18 806 1179.54 807.56 1183.54 808.84C1187.54 810.12 1191.62 810.76 1195.78 810.76C1201.14 810.76 1204.98 810 1207.3 808.48C1209.7 806.96 1210.9 804.84 1210.9 802.12C1210.9 800.12 1210.18 798.56 1208.74 797.44C1207.3 796.32 1205.38 795.48 1202.98 794.92C1200.66 794.36 1198.06 793.88 1195.18 793.48C1192.3 793 1189.42 792.44 1186.54 791.8C1183.66 791.08 1181.02 790.12 1178.62 788.92C1176.22 787.64 1174.3 785.92 1172.86 783.76C1171.42 781.52 1170.7 778.56 1170.7 774.88C1170.7 771.04 1171.78 767.68 1173.94 764.8C1176.1 761.92 1179.14 759.72 1183.06 758.2C1187.06 756.6 1191.78 755.8 1197.22 755.8C1201.38 755.8 1205.58 756.32 1209.82 757.36C1214.14 758.32 1217.66 759.72 1220.38 761.56L1215.46 770.68C1212.58 768.76 1209.58 767.44 1206.46 766.72C1203.34 766 1200.22 765.64 1197.1 765.64C1192.06 765.64 1188.3 766.48 1185.82 768.16C1183.34 769.76 1182.1 771.84 1182.1 774.4C1182.1 776.56 1182.82 778.24 1184.26 779.44C1185.78 780.56 1187.7 781.44 1190.02 782.08C1192.42 782.72 1195.06 783.28 1197.94 783.76C1200.82 784.16 1203.7 784.72 1206.58 785.44C1209.46 786.08 1212.06 787 1214.38 788.2C1216.78 789.4 1218.7 791.08 1220.14 793.24C1221.66 795.4 1222.42 798.28 1222.42 801.88C1222.42 805.72 1221.3 809.04 1219.06 811.84C1216.82 814.64 1213.66 816.84 1209.58 818.44C1205.5 819.96 1200.62 820.72 1194.94 820.72ZM1270.78 755.8C1275.98 755.8 1280.54 756.8 1284.46 758.8C1288.46 760.8 1291.58 763.84 1293.82 767.92C1296.06 772 1297.18 777.16 1297.18 783.4V820H1285.66V784.72C1285.66 778.56 1284.14 773.92 1281.1 770.8C1278.14 767.68 1273.94 766.12 1268.5 766.12C1264.42 766.12 1260.86 766.92 1257.82 768.52C1254.78 770.12 1252.42 772.48 1250.74 775.6C1249.14 778.72 1248.34 782.6 1248.34 787.24V820H1236.82V730.96H1248.34V773.56L1246.06 769C1248.14 764.84 1251.34 761.6 1255.66 759.28C1259.98 756.96 1265.02 755.8 1270.78 755.8ZM1318.5 820V756.4H1330.02V820H1318.5ZM1324.26 744.16C1322.02 744.16 1320.14 743.44 1318.62 742C1317.18 740.56 1316.46 738.8 1316.46 736.72C1316.46 734.56 1317.18 732.76 1318.62 731.32C1320.14 729.88 1322.02 729.16 1324.26 729.16C1326.5 729.16 1328.34 729.88 1329.78 731.32C1331.3 732.68 1332.06 734.4 1332.06 736.48C1332.06 738.64 1331.34 740.48 1329.9 742C1328.46 743.44 1326.58 744.16 1324.26 744.16ZM1385.97 755.8C1391.17 755.8 1395.73 756.8 1399.65 758.8C1403.65 760.8 1406.77 763.84 1409.01 767.92C1411.25 772 1412.37 777.16 1412.37 783.4V820H1400.85V784.72C1400.85 778.56 1399.33 773.92 1396.29 770.8C1393.33 767.68 1389.13 766.12 1383.69 766.12C1379.61 766.12 1376.05 766.92 1373.01 768.52C1369.97 770.12 1367.61 772.48 1365.93 775.6C1364.33 778.72 1363.53 782.6 1363.53 787.24V820H1352.01V756.4H1363.05V773.56L1361.25 769C1363.33 764.84 1366.53 761.6 1370.85 759.28C1375.17 756.96 1380.21 755.8 1385.97 755.8ZM1461.53 844C1455.69 844 1450.01 843.16 1444.49 841.48C1439.05 839.88 1434.61 837.56 1431.17 834.52L1436.69 825.64C1439.65 828.2 1443.29 830.2 1447.61 831.64C1451.93 833.16 1456.45 833.92 1461.17 833.92C1468.69 833.92 1474.21 832.16 1477.73 828.64C1481.25 825.12 1483.01 819.76 1483.01 812.56V799.12L1484.21 786.52L1483.61 773.8V756.4H1494.53V811.36C1494.53 822.56 1491.73 830.8 1486.13 836.08C1480.53 841.36 1472.33 844 1461.53 844ZM1460.09 817.36C1453.93 817.36 1448.41 816.08 1443.53 813.52C1438.73 810.88 1434.89 807.24 1432.01 802.6C1429.21 797.96 1427.81 792.6 1427.81 786.52C1427.81 780.36 1429.21 775 1432.01 770.44C1434.89 765.8 1438.73 762.2 1443.53 759.64C1448.41 757.08 1453.93 755.8 1460.09 755.8C1465.53 755.8 1470.49 756.92 1474.97 759.16C1479.45 761.32 1483.01 764.68 1485.65 769.24C1488.37 773.8 1489.73 779.56 1489.73 786.52C1489.73 793.4 1488.37 799.12 1485.65 803.68C1483.01 808.24 1479.45 811.68 1474.97 814C1470.49 816.24 1465.53 817.36 1460.09 817.36ZM1461.41 807.28C1465.65 807.28 1469.41 806.4 1472.69 804.64C1475.97 802.88 1478.53 800.44 1480.37 797.32C1482.29 794.2 1483.25 790.6 1483.25 786.52C1483.25 782.44 1482.29 778.84 1480.37 775.72C1478.53 772.6 1475.97 770.2 1472.69 768.52C1469.41 766.76 1465.65 765.88 1461.41 765.88C1457.17 765.88 1453.37 766.76 1450.01 768.52C1446.73 770.2 1444.13 772.6 1442.21 775.72C1440.37 778.84 1439.45 782.44 1439.45 786.52C1439.45 790.6 1440.37 794.2 1442.21 797.32C1444.13 800.44 1446.73 802.88 1450.01 804.64C1453.37 806.4 1457.17 807.28 1461.41 807.28Z"
        fill="url(#paint2_linear_102_5)"></path>
    <defs>
        <radialGradient id="paint0_angular_102_5" cx="0" cy="0" r="1" gradientUnits="userSpaceOnUse"
            gradientTransform="translate(1375.95 208.5) rotate(90) scale(208.5)">
            <stop offset="0.274639" stop-color="#61C4B9"></stop>
            <stop offset="0.742285" stop-color="#ED2C75"></stop>
            <stop offset="0.964656" stop-color="#7C4198"></stop>
        </radialGradient>
        <radialGradient id="paint1_angular_102_5" cx="0" cy="0" r="1" gradientUnits="userSpaceOnUse"
            gradientTransform="translate(569.455 448.5) rotate(90) scale(316.5 598)">
            <stop offset="0.274639" stop-color="#61C4B9"></stop>
            <stop offset="0.742285" stop-color="#ED2C75"></stop>
            <stop offset="0.964656" stop-color="#7C4198"></stop>
        </radialGradient>
        <linearGradient id="paint2_linear_102_5" x1="469.806" y1="992.598" x2="1127.13" y2="414.027"
            gradientUnits="userSpaceOnUse">
            <stop stop-color="#61C4B9"></stop>
            <stop offset="0.489583" stop-color="#7C4198"></stop>
            <stop offset="1" stop-color="#ED2C75"></stop>
        </linearGradient>
    </defs>
</svg>