<svg width="278" height="60" viewBox="0 0 278 60" fill="none" xmlns="http://www.w3.org/2000/svg">
<path d="M0 56.5V59.9H22.6L41.3 44.9C45.7 41.4 48.4 37.9 48.4 32.1V5.70001V0.5H0V56.5ZM5.2 5.89999H28.7C39.2 5.89999 43.9 12.3 43.9 21.5C43.9 37.5 34.1 41.3 18.5 38.8V54.5H5.2V5.89999V5.89999Z" fill="black"/>
<path d="M134.1 37.7C134.1 39 133.6 40.4 132.5 40.4C131.4 40.4 130.9 39.3 130.9 35.8V28.7C130.9 21.4 129.4 15.2 118.8 15.2C112.3 15.2 105.4 17.4 105.4 23.6C105.4 28.3 112.3 29.7 115.3 26.2C114.3 24.9 113.6 23.2 113.6 21.7C113.6 18.8 115.8 18.2 118 18.2C120.4 18.2 121.9 19.6 121.9 26.8V28.1L117.8 29.2C109.9 31.4 104.9 34.1 104.9 38.3C104.9 42.2 107.1 44.3 112 44.3C116.6 44.3 120.7 41.9 123 36.6H123.5C124.4 41.6 125.9 44.3 130.3 44.3C133.4 44.3 136.9 42.8 136.4 37.6H134.1V37.7ZM116.3 39.5C114.6 39.5 113.7 38.6 113.7 37.4C113.7 34.2 116 32.7 121.9 30.9C122 34.9 119.4 39.5 116.3 39.5Z" fill="black"/>
<path d="M89.8 15.3C86.2 15.3 80.2 16.5 79.2 24.4H78.3V15.3L65.9 18.2V20.6H71.9V49.6V51.6L66.5 52V54.4H71.9H83.3H86.7V52L80.5 51.5V49.7V40.6V40.3C81.8 42.2 84.5 44.5 89.2 44.5C94.3 44.5 101.5 40.1 101.5 30.3C101.5 21.1 96.4 15.3 89.8 15.3ZM87.4 40.5C84.6 40.5 82.1 39 80.9 34.8V25.9C81 24.6 82.4 20.5 85.9 20.5C90.3 20.5 92.9 25.6 92.9 31C92.8 35.7 90.9 40.5 87.4 40.5Z" fill="black"/>
<path d="M242.4 18.9H248.2V50.9C248.2 54.3 243.9 51.3 243.1 47.8H242C240.7 51.3 241.8 54.7 245.1 54.7C248.3 54.7 252.5 53 252.5 45.8L252.6 15.2L242.4 16.6V18.9V18.9Z" fill="black"/>
<path d="M236.4 36.8C234 36.8 232.7 38.1 232.7 40.5C232.7 42.9 234 44.2 236.4 44.2C238.8 44.2 240.1 42.9 240.1 40.5C240.1 38.1 238.7 36.8 236.4 36.8Z" fill="black"/>
<path d="M160.8 40.4C155.9 39.3 148.5 39.3 144.9 38.8L146.1 36.4C147.5 36.8 149.2 37 151.1 37C159.7 37 164.4 32.1 164.4 25.7C164.4 21.3 161.4 17.7 156.6 16.1L156.8 15.5C158.7 15.9 160.7 16.2 162.2 16.2C164.5 16.2 166.2 15.4 166.2 12.8C166.2 11 164.9 8.70001 162.9 6.60001C159.6 10.2 156.7 13.9 152.2 15.3C152 15.2 151.8 15.2 151.6 15.2C143 15.2 138.6 20 138.6 26.5C138.6 30.5 140.4 33.9 144.3 35.7L138.8 40.3C139.2 41.1 140.5 43.2 145.3 44.7V45.4C140.9 46 138.3 47.3 138.3 49.1C138.3 52.9 145.3 54.8 150.6 54.8C159.7 54.8 167.2 52.5 167.5 46.9C167.5 43.3 165.9 41.5 160.8 40.4ZM150.8 18.2C154.1 18.2 155.6 20.6 155.6 25.6C155.6 31.3 154.5 34.1 151.6 34.1C148.2 34.1 146.8 31.2 146.8 25.7C146.9 20.4 148 18.2 150.8 18.2ZM155.9 50.7C149.7 50.7 145.4 49.2 145.4 47.5C145.4 46.9 146 46.2 147.2 45.3L148.1 45.5C157.5 47.3 162.9 46.8 162.9 48.5C163 49.9 160.4 50.7 155.9 50.7Z" fill="black"/>
<path d="M264 24.5C261.7 23.1 260.7 21.9 260.7 20.5C260.7 18.9 261.8 17.2 264.7 17.2C269 17.2 272.8 20.8 275.3 26.1H276.4V17.7C273.4 16.1 270 15.3 266.9 15.3C261.6 15.3 257.1 17.7 257.1 22.6C257.1 26.5 260.2 29.3 263.3 31C269.1 34.2 274.3 35.4 274.3 38.8C274.3 41.1 272.1 42.4 269.6 42.4C264.4 42.4 260.7 39.7 258.7 32.2H257.6V41.6C260.3 43.4 264.1 44.4 267.7 44.4C273.1 44.4 277.9 42.2 277.9 36.7C278 30.2 270.4 28.4 264 24.5Z" fill="black"/>
<path d="M250.7 4.79999C248.7 4.79999 247.8 5.90001 247.8 7.70001C247.8 9.60001 248.8 10.6 250.7 10.6C252.5 10.6 253.6 9.60001 253.6 7.70001C253.6 5.80001 252.5 4.79999 250.7 4.79999Z" fill="black"/>
<path d="M191.1 32.1C191.2 32.5 191.2 32.8 191.2 33.2C191.2 37.1 188.4 39.3 184.4 39.3C180.5 39.3 177.7 36.5 176.7 30.8L193.9 26.5C193.7 18.8 189.2 15.2 181 15.2C174.8 15.2 168 19.7 168 29.6C168 37.1 172.9 44.2 181.9 44.2C189.9 44.2 194.2 38.9 194.2 33C194.2 32.5 194.1 32 194.1 31.5L191.1 32.1ZM176.4 26.3C176.4 21.1 178.6 18.3 181.7 18.3C184.6 18.3 185.5 21.5 185.5 23.9C185.5 25.4 183.6 25.7 180.4 26.8L176.4 28.1C176.4 27.4 176.4 26.8 176.4 26.3Z" fill="black"/>
<path d="M212 7.70001L218.2 8.20001V18.8C216.7 16.7 214.2 15.2 209.8 15.2C204.7 15.2 197.5 19.6 197.5 29.4C197.5 38.5 202.6 44.3 209.2 44.3C212.8 44.3 218.8 43.1 219.8 35.2H220.8L222.7 43.5H226.7V3.79999L211.9 5.29999V7.70001H212ZM218.2 33.7C218.1 34.9 217.1 39.1 212.3 39.1C208.3 39.1 206.3 34.2 206.3 28.6C206.3 23.9 208.2 19.1 211.7 19.1C214.5 19.1 217 20.6 218.2 24.8V33.7Z" fill="black"/>
</svg>
