<svg xmlns="http://www.w3.org/2000/svg" width="925.689" height="133.719" viewBox="0 0 925.689 133.719">
    <defs>
        <filter id="grayscale">
            <feColorMatrix type="matrix"
                values=".33 .33 .33 0 0
                        .33 .33 .33 0 0
                        .33 .33 .33 0 0
                        0   0   0   1 0">
            </feColorMatrix>
        </filter>
    </defs>

    <g id="logo" filter="url(#grayscale)">
        <g>
            <path
                d="M397.531,129.798h-16.111c-1.425,0-2.576-1.119-2.569-2.544,.069-15.339-.146-35.46,.01-52.508,.035-3.865,.135-7.725,.282-11.588,.019-22.645,21.581-36.801,44.044-34.674,19.373,.57,37.094,17.148,38.337,35.864,1.386,20.874-12.921,39.018-33.708,42.429-9.897,1.623-19.203,.115-27.713-7.655h-.001v28.106c0,1.42-1.151,2.571-2.571,2.571Zm24.191-82.359c-12.38-.923-22.432,8.344-22.506,20.349-.07,11.358,9.349,20.706,20.813,20.658,12.446-.053,22.134-10.742,20.355-23.479-1.304-9.335-9.262-16.827-18.663-17.527Z"
                fill="gray"></path>
            <path
                d="M546.506,104.835c-4.876,.008-9.653,.036-14.463,.045-1.43,.002-2.592-1.148-2.586-2.578,.009-1.95,.071-4.104-.038-6.198-6.036,6.36-13.026,11.096-21.57,11.216-22.386,.315-41.119-17.094-41.401-38.655-.289-22.124,17.636-40.025,40.263-40.208,23.232-.189,40.748,15.491,42.024,38.465,.293,5.274,.401,10.557,.427,15.838,.027,5.287-.035,10.572-.048,15.859l-.003,1.123c-.002,.629-.003,1.259-.028,1.887-.018,.459,.01,.907-.127,1.352-.328,1.067-1.323,1.851-2.451,1.853Zm-59.092-37.167c-.113,11.263,9.443,20.914,20.706,20.778,11.509-.139,20.529-9.154,20.572-20.517,.043-11.527-9.072-20.564-20.732-20.553-11.546,.011-20.431,8.822-20.546,20.291Z"
                fill="gray"></path>
            <path
                d="M683.822,104.816c-3.541,.235-15.284-.031-20.194,.01-.646,.005-1.326,.07-1.922-.179-1.188-.498-1.704-1.678-2.437-2.605-7.741-9.79-15.321-19.707-22.955-29.58-1.336-1.728-2.691-3.443-5.018-4.947v34.708c0,1.42-1.151,2.571-2.571,2.571h-15.539c-1.42,0-2.571-1.151-2.571-2.571V8.503c0-1.42,1.151-2.571,2.571-2.571h15.301c1.42,0,2.571,1.151,2.571,2.571V57.368c.335,.166,3.176-1.902,4.221-3.135,4.371-5.153,8.675-10.363,13.008-15.548,1.239-1.482,2.522-2.93,3.814-4.366,.871-.968,1.751-1.928,2.629-2.889,.18-.197,.367-.399,.607-.517,.282-.139,.609-.147,.923-.153,6.747-.12,13.356,.043,20.194-.018,2.06-.018,1.849,2.187,1.291,2.828-1.118,1.284-2.789,3.212-3.9,4.502-1.112,1.29-2.222,2.582-3.333,3.872-1.079,1.254-2.277,2.464-3.269,3.787l-.132,.152c-4.398,5.077-8.795,10.154-13.193,15.231l-1.074,1.239c-.235,.272,7.507,9.424,8.226,10.327,2.715,3.409,5.431,6.817,8.146,10.226,.129,0,.597,.749,.692,.869l.818,1.027,1.573,1.974c1.049,1.316,2.097,2.632,3.146,3.949,2.042,2.565,4.094,5.124,6.171,7.661,.89,1.087,2.1,2.75,2.997,3.83,.772,.93,.301,2.528-.792,2.601Z"
                fill="gray"></path>
            <path
                d="M311.083,82.24h15.034c.927,0,1.747,.543,2.218,1.342,3.71,6.302,10.014,8.134,16.19,4.932,2.752-1.427,4.902-4.306,3.514-7.442-1.503-3.393-6.307-4.575-9.529-5.535-9.269-2.761-20.855-5.111-26.504-13.805-5.328-8.2-2.754-18.435,3.97-24.962,13.626-13.226,40.362-10.54,49.413,5.143,.461,.799,2.745,4.569,3.632,8.432,.376,1.637-.849,3.212-2.529,3.212-5.878,0-11.127,0-16.372,0-.954,0-1.824-.531-2.273-1.372-1.285-2.406-2.69-4.659-5.398-5.778-2.522-1.042-5.994-.598-8.4,.539-1.802,.851-3.334,2.561-3.4,4.552-.044,1.327,.562,2.611,1.413,3.63,3.277,3.928,9.727,4.587,14.362,5.917,2.457,.705,5.051,.969,7.466,1.777,17.057,5.712,21.009,24.363,7.783,36.5-12.485,11.457-36.456,10.442-47.737-2.096-3.096-3.441-4.945-7.422-5.432-12.274-.147-1.465,1.107-2.713,2.579-2.713Z"
                fill="gray"></path>
            <path
                d="M698.816,48.639c-2.28-.062-4-.061-5.725-.068-1.415-.006-2.559-1.157-2.559-2.572v-12.742c0-1.43,1.155-2.593,2.585-2.577,2.069,.024,4.311,.142,5.986,.026,.423-21.511,12.877-28.132,31.741-27.044,1.353,.078,2.423,1.233,2.423,2.588v10.74c0,1.4-1.126,2.584-2.526,2.565-6.789-.089-11.335,1.913-11.094,10.784h11.016c1.42,0,2.571,1.151,2.571,2.571v12.752c0,1.42-1.151,2.571-2.571,2.571h-11.126v54.012c0,1.42-1.151,2.571-2.571,2.571h-15.577c-1.42,0-2.571-1.151-2.571-2.571V48.639Z"
                fill="gray"></path>
            <path
                d="M578.688,104.833h-16.501c-1.452,0-2.59-1.215-2.544-2.666,.481-15.294-1.531-29.234,1.068-44.076,3.075-17.555,21.875-30.598,38.992-29.407,1.32,.092,2.318,1.26,2.318,2.584v13.104c0,1.201-.856,2.207-2.02,2.502-3.787,.96-6.316,2.31-8.545,3.499-7.549,4.028-10.147,11.194-10.183,19.37-.048,10.776-.018,21.553-.014,32.501,0,1.421-1.152,2.589-2.572,2.589Z"
                fill="gray"></path>
            <g>
                <path
                    d="M754.093,24.842c5.88,0,10.646-4.766,10.646-10.646s-4.766-10.646-10.646-10.646-10.647,4.766-10.647,10.646,4.766,10.646,10.647,10.646Z"
                    fill="gray"></path>
                <rect x="744.01" y="30.706" width="20.166" height="74.007" rx="2.571" ry="2.571" fill="gray"></rect>
            </g>
            <path
                d="M779.743,81.111h15.034c.927,0,1.747,.543,2.218,1.342,3.71,6.302,10.014,8.134,16.19,4.932,2.752-1.427,4.902-4.306,3.514-7.442-1.503-3.393-6.307-4.575-9.529-5.535-9.269-2.761-20.855-5.111-26.504-13.805-5.328-8.2-2.754-18.435,3.97-24.962,13.626-13.226,40.362-10.54,49.413,5.143,.461,.799,2.745,4.569,3.632,8.432,.376,1.637-.849,3.212-2.529,3.212-5.878,0-11.127,0-16.372,0-.954,0-1.824-.531-2.273-1.372-1.285-2.406-2.69-4.659-5.398-5.778-2.522-1.042-5.994-.598-8.4,.539-1.802,.851-3.334,2.561-3.4,4.552-.044,1.327,.562,2.611,1.413,3.63,3.277,3.928,9.727,4.587,14.362,5.917,2.457,.705,5.051,.969,7.466,1.777,17.057,5.712,21.009,24.363,7.783,36.5-12.485,11.457-36.456,10.442-47.737-2.096-3.096-3.441-4.945-7.422-5.432-12.274-.147-1.465,1.107-2.713,2.579-2.713Z"
                fill="gray"></path>
            <path
                d="M925.202,63.842c-1.325-22.72-18.936-36.552-40.712-35.156-5.328,.342-10.417,2.02-16.029,4.655V8.395c0-1.42-1.151-2.571-2.571-2.571h-15.368c-1.42,0-2.571,1.151-2.571,2.571,0,0,0,83.662-.025,83.652v10.135c0,1.005,.606,1.854,1.466,2.277,.049,.024,.084,.067,.134,.089,.269,.113,.569,.158,1.034,.208h15.393c1.455,0,2.634-1.152,2.634-2.573v-2.996c0-.309-.003-.619-.003-.929v-2.285l-.002-1.115v-.879c0-.676-.009-1.352-.011-2.029-.002-.689-.004-1.377-.006-2.066-.002-.689-.004-1.377-.006-2.066s-.003-1.377-.005-2.065c-.001-.688-.003-1.377-.004-2.065s-.002-1.377-.002-2.065c0-.688,0-1.377,0-2.065,0-.688,.002-1.377,.004-2.065,.002-.688,.004-1.377,.008-2.065s.007-1.377,.012-2.065,.011-1.377,.017-2.065,.014-1.377,.023-2.065c.009-.688,.019-1.377,.03-2.065,.003-.186,.006-.372,.009-.557,.184-10.905,6.894-18.639,16.249-19.163,11.327-.635,19.229,6.778,19.502,18.771,.209,9.184,.139,18.373,.105,27.562l-.004,4.987c0,.328-.003,.657,0,.988l-.002,2.457c0,1.421,1.186,2.573,2.649,2.573h15.681c1.412,0,2.55-1.144,2.559-2.556,.083-12.98,.727-25.739-.19-38.385Z"
                fill="gray"></path>
        </g>
        <g>
            <circle cx="184.61" cy="66.674" r="11.776" fill="gray"></circle>
            <path
                d="M154.443,5.055h0c-3.298-4.867-9.917-6.14-14.785-2.842L74.741,46.195V10.646c0-5.88-4.766-10.646-10.646-10.646h-.003c-5.88,0-10.646,4.767-10.646,10.646V47.706L16.619,22.756c-4.867-3.297-11.486-2.026-14.785,2.842h0c-3.299,4.868-2.026,11.489,2.842,14.787l39.321,26.64L4.676,93.664c-4.868,3.298-6.141,9.919-2.842,14.787h0c3.298,4.867,9.917,6.139,14.785,2.842l36.826-24.95v36.73c0,5.88,4.766,10.646,10.646,10.646h.003c5.88,0,10.646-4.766,10.646-10.646v-35.219l64.918,43.982c4.867,3.297,11.486,2.026,14.785-2.842h0c3.299-4.868,2.027-11.489-2.842-14.787l-69.642-47.183L151.601,19.841c4.868-3.298,6.141-9.918,2.842-14.786Z"
                fill="gray"></path>
            <path
                d="M269.436,57.631L187.815,2.071c-4.86-3.308-11.483-2.05-14.791,2.81h0c-3.309,4.861-2.051,11.484,2.81,14.793l69.317,47.185-69.317,47.188c-4.861,3.309-6.118,9.931-2.81,14.792h0c3.309,4.861,9.931,6.119,14.792,2.81l81.621-55.564c3.15-2.144,4.757-5.68,4.618-9.226,.139-3.547-1.468-7.082-4.618-9.227Z"
                fill="gray"></path>
        </g>
    </g>
</svg>