<svg xmlns="http://www.w3.org/2000/svg" version="1.1" width="2448" height="623"><defs><marker orient="auto" refY="0" refX="0" id="b" overflow="visible"><path d="M8.719 4.034L-2.207.016 8.719-4.002c-1.746 2.372-1.736 5.618 0 8.036z" transform="scale(.6)" font-size="12" fill-rule="evenodd" stroke-width=".625" stroke-linejoin="round"/></marker><marker orient="auto" refY="0" refX="0" id="a" overflow="visible"><path d="M8.719 4.034L-2.207.016 8.719-4.002c-1.746 2.372-1.736 5.618 0 8.036z" transform="rotate(180) scale(.6)" font-size="12" fill-rule="evenodd" stroke-width=".625" stroke-linejoin="round"/></marker></defs><path d="M1838.399 312.63l-170.873 97.042" fill="none" stroke="#0fc" stroke-width="1.797" stroke-linecap="butt" stroke-linejoin="miter" stroke-miterlimit="4" stroke-opacity="1" stroke-dasharray="none" marker-end="url(#a)"/><text transform="scale(.93197 1.073)" y="209.703" x="54.21" style="line-height:125%;-inkscape-font-specification:Sans Bold" xml:space="preserve" font-size="19.314" font-style="normal" font-weight="700" letter-spacing="0" word-spacing="0" fill="#000" fill-opacity="1" stroke="none" font-family="Sans"/><g fill="#000" font-size="10" font-style="normal" font-weight="700" letter-spacing="0" word-spacing="0" fill-opacity="1" stroke="none" font-family="Sans"><text xml:space="preserve" style="line-height:125%;-inkscape-font-specification:Sans Bold" x="59.925" y="90.688" transform="matrix(.92793 0 0 .8698 100.84 26.998)"><tspan x="59.925" y="90.688">M de Saint-Méran</tspan></text><text xml:space="preserve" style="line-height:125%;-inkscape-font-specification:Sans Bold" x="282.409" y="89.879" transform="matrix(.92793 0 0 .8698 100.84 26.998)"><tspan x="282.409" y="89.879">Mlle de Saint-Méran</tspan></text><text xml:space="preserve" style="line-height:125%;-inkscape-font-specification:Sans Bold" x="162.9" y="293.483" transform="matrix(.92793 0 0 .8698 100.84 26.998)"><tspan x="162.9" y="293.483">Renee de Saint-Méran</tspan></text><text xml:space="preserve" style="line-height:125%;-inkscape-font-specification:Sans Bold" x="18.825" y="293.802" transform="matrix(.92793 0 0 .8698 100.84 26.998)"><tspan x="18.825" y="293.802">Royalist General</tspan></text><text xml:space="preserve" style="text-align:center;line-height:125%;-inkscape-font-specification:Sans Bold" x="58.198" y="485.816" text-anchor="middle" transform="matrix(.92793 0 0 .8698 100.84 26.998)"><tspan x="58.198" y="485.816">Count</tspan><tspan x="58.198" y="498.316">Franz d&apos;Epinay</tspan></text><text xml:space="preserve" style="line-height:125%;-inkscape-font-specification:Sans Bold" x="228.094" y="491.713" transform="matrix(.92793 0 0 .8698 100.84 26.998)"><tspan x="228.094" y="491.713">Valentine</tspan></text><text xml:space="preserve" style="line-height:125%;-inkscape-font-specification:Sans Bold" x="339.647" y="293.802" transform="matrix(.92793 0 0 .8698 100.84 26.998)"><tspan x="339.647" y="293.802">Héloïse</tspan></text><text xml:space="preserve" style="line-height:125%;-inkscape-font-specification:Sans Bold" x="486.59" y="491.905" transform="matrix(.92793 0 0 .8698 100.84 26.998)"><tspan x="486.59" y="491.905">Edouard</tspan></text><text xml:space="preserve" style="line-height:125%;-inkscape-font-specification:Sans Bold" x="503.325" y="286.47" transform="matrix(.92793 0 0 .8698 100.84 26.998)"><tspan x="503.325" y="286.47">Crown Prosecutor</tspan><tspan x="503.325" y="298.97">Gérard de Villefort</tspan></text><text xml:space="preserve" style="text-align:center;line-height:125%;-inkscape-font-specification:Sans Bold" x="542.972" y="84.064" text-anchor="middle" transform="matrix(.92793 0 0 .8698 100.84 26.998)"><tspan x="542.972" y="84.064">Bonapartist</tspan><tspan x="542.972" y="96.564">Noirtier de Villefort</tspan></text><text xml:space="preserve" style="line-height:125%;-inkscape-font-specification:Sans Bold" x="680.231" y="294.12" transform="matrix(.92793 0 0 .8698 100.84 26.998)"><tspan x="680.231" y="294.12">Bertuccio</tspan></text><text xml:space="preserve" style="text-align:center;line-height:125%;-inkscape-font-specification:Sans Bold" x="845.246" y="293.642" text-anchor="middle" transform="matrix(.92793 0 0 .8698 100.84 26.998)"><tspan x="845.246" y="293.642">Secretary of the Interior</tspan><tspan x="845.246" y="306.142">Debray</tspan></text><text xml:space="preserve" style="text-align:center;line-height:125%;-inkscape-font-specification:Sans Bold" x="737.809" y="473.258" text-anchor="middle" transform="matrix(.92793 0 0 .8698 100.84 26.998)"><tspan x="737.809" y="473.258">Benedetto</tspan><tspan x="737.809" y="498.258">Prince/Count</tspan><tspan x="737.809" y="510.758">Andrea Cavalcaiti</tspan></text><text xml:space="preserve" style="line-height:125%;-inkscape-font-specification:Sans Bold" x="1163.297" y="491.427" transform="matrix(.92793 0 0 .8698 100.84 26.998)"><tspan x="1163.297" y="491.427">Eugénie Danglars</tspan></text><text xml:space="preserve" style="line-height:125%;-inkscape-font-specification:Sans Bold" x="1056.196" y="294.407" transform="matrix(.92793 0 0 .8698 100.84 26.998)"><tspan x="1056.196" y="294.407">Madame Danglars</tspan></text><text xml:space="preserve" style="text-align:center;line-height:125%;-inkscape-font-specification:Sans Bold" x="1313.319" y="286.916" text-anchor="middle" transform="matrix(.92793 0 0 .8698 100.84 26.998)"><tspan x="1313.319" y="286.916">Baron</tspan><tspan x="1313.319" y="299.416">Danglars</tspan></text><text xml:space="preserve" style="line-height:125%;-inkscape-font-specification:Sans Bold" x="1443.637" y="293.61" transform="matrix(.92793 0 0 .8698 100.84 26.998)"><tspan x="1443.637" y="293.61">Ali Pasha</tspan></text><text xml:space="preserve" style="line-height:125%;-inkscape-font-specification:Sans Bold" x="1446.984" y="492.828" transform="matrix(.92793 0 0 .8698 100.84 26.998)"><tspan x="1446.984" y="492.828">Haydée</tspan></text><text xml:space="preserve" style="line-height:125%;-inkscape-font-specification:Sans Bold" x="1603.012" y="491.553" transform="matrix(.92793 0 0 .8698 100.84 26.998)"><tspan x="1603.012" y="491.553">Maximillien Morrel</tspan></text><text xml:space="preserve" style="line-height:125%;-inkscape-font-specification:Sans Bold" x="1618.153" y="293.291" transform="matrix(.92793 0 0 .8698 100.84 26.998)"><tspan x="1618.153" y="293.291">Pierre Morrel</tspan></text><text xml:space="preserve" style="line-height:125%;-inkscape-font-specification:Sans Bold" x="1737.206" y="491.713" transform="matrix(.92793 0 0 .8698 100.84 26.998)"><tspan x="1737.206" y="491.713">Julie Morrel Herbault</tspan></text><text xml:space="preserve" style="line-height:125%;-inkscape-font-specification:Sans Bold" x="1955.231" y="491.872" transform="matrix(.92793 0 0 .8698 100.84 26.998)"><tspan x="1955.231" y="491.872">Emmanuel Herbault</tspan></text><text xml:space="preserve" style="text-align:center;line-height:125%;-inkscape-font-specification:Sans Bold" x="1923.111" y="267.313" text-anchor="middle" transform="matrix(.92793 0 0 .8698 100.84 26.998)"><tspan x="1923.111" y="267.313">Edmond Dantés</tspan><tspan x="1923.111" y="279.813">Count of Monte Cristo</tspan><tspan x="1923.111" y="292.313">Lord Wilmore</tspan><tspan x="1923.111" y="304.813">Sinbad the Sailor</tspan><tspan x="1923.111" y="317.313">Abbé Busoni</tspan></text><text xml:space="preserve" style="line-height:125%;-inkscape-font-specification:Sans Bold" x="1890.684" y="90.725" transform="matrix(.92793 0 0 .8698 100.84 26.998)"><tspan x="1890.684" y="90.725">Louis Dantés</tspan></text><text xml:space="preserve" style="text-align:center;line-height:125%;-inkscape-font-specification:Sans Bold" x="2239.678" y="485.657" text-anchor="middle" transform="matrix(.92793 0 0 .8698 100.84 26.998)"><tspan x="2239.678" y="485.657">Viscount</tspan><tspan x="2239.678" y="498.157">Albert de Morcerf</tspan></text><text xml:space="preserve" style="text-align:center;line-height:125%;-inkscape-font-specification:Sans Bold" x="2139.308" y="280.961" text-anchor="middle" transform="matrix(.92793 0 0 .8698 100.84 26.998)"><tspan x="2139.308" y="280.961">Countess</tspan><tspan x="2139.308" y="293.461">Mercédès Mondego</tspan><tspan x="2139.308" y="305.961">Mlle de Morcerf</tspan></text><text xml:space="preserve" style="text-align:center;line-height:125%;-inkscape-font-specification:Sans Bold" x="2356.059" y="281.758" text-anchor="middle" transform="matrix(.92793 0 0 .8698 100.84 26.998)"><tspan x="2356.059" y="281.758">Count</tspan><tspan x="2356.059" y="294.258">Fernand Mondego</tspan><tspan x="2356.059" y="306.758">M de Morcerf</tspan></text></g><g fill="none" stroke="#f60000" stroke-linecap="butt" stroke-linejoin="miter" stroke-miterlimit="17.3" stroke-opacity="1" stroke-dasharray="none" stroke-dashoffset="0"><path d="M170.85 88.137c0 33.096-26.972 59.925-60.244 59.925-33.271 0-60.244-26.829-60.244-59.925 0-33.095 26.973-59.925 60.244-59.925 33.272 0 60.244 26.83 60.244 59.925z" stroke-width="1.9" transform="matrix(.92793 0 0 .8698 100.84 26.998)"/><path transform="matrix(.92793 0 0 .8698 304.335 26.443)" d="M170.85 88.137c0 33.096-26.972 59.925-60.244 59.925-33.271 0-60.244-26.829-60.244-59.925 0-33.095 26.973-59.925 60.244-59.925 33.272 0 60.244 26.83 60.244 59.925z" stroke-width="1.9"/><path transform="matrix(.92793 0 0 .8698 332.434 202.498)" d="M170.85 88.137c0 33.096-26.972 59.925-60.244 59.925-33.271 0-60.244-26.829-60.244-59.925 0-33.095 26.973-59.925 60.244-59.925 33.272 0 60.244 26.83 60.244 59.925z" stroke-width="1.9"/><path transform="matrix(.92793 0 0 .8698 198.446 203.884)" d="M170.85 88.137c0 33.096-26.972 59.925-60.244 59.925-33.271 0-60.244-26.829-60.244-59.925 0-33.095 26.973-59.925 60.244-59.925 33.272 0 60.244 26.83 60.244 59.925z" stroke-width="1.9"/><path transform="matrix(.92793 0 0 .8698 53.219 203.33)" d="M170.85 88.137c0 33.096-26.972 59.925-60.244 59.925-33.271 0-60.244-26.829-60.244-59.925 0-33.095 26.973-59.925 60.244-59.925 33.272 0 60.244 26.83 60.244 59.925z" stroke-width="1.9"/><path transform="matrix(.92793 0 0 .8698 53.515 375.225)" d="M170.85 88.137c0 33.096-26.972 59.925-60.244 59.925-33.271 0-60.244-26.829-60.244-59.925 0-33.095 26.973-59.925 60.244-59.925 33.272 0 60.244 26.83 60.244 59.925z" stroke-width="1.9"/><path transform="matrix(.92793 0 0 .8698 229.503 375.502)" d="M170.85 88.137c0 33.096-26.972 59.925-60.244 59.925-33.271 0-60.244-26.829-60.244-59.925 0-33.095 26.973-59.925 60.244-59.925 33.272 0 60.244 26.83 60.244 59.925z" stroke-width="1.9"/><path transform="matrix(.92793 0 0 .8698 469.083 375.502)" d="M170.85 88.137c0 33.096-26.972 59.925-60.244 59.925-33.271 0-60.244-26.829-60.244-59.925 0-33.095 26.973-59.925 60.244-59.925 33.272 0 60.244 26.83 60.244 59.925z" stroke-width="1.9"/><path transform="matrix(.92793 0 0 .8698 683.523 375.78)" d="M170.85 88.137c0 33.096-26.972 59.925-60.244 59.925-33.271 0-60.244-26.829-60.244-59.925 0-33.095 26.973-59.925 60.244-59.925 33.272 0 60.244 26.83 60.244 59.925z" stroke-width="1.9"/><path transform="matrix(.92793 0 0 .8698 1117.725 375.78)" d="M170.85 88.137c0 33.096-26.972 59.925-60.244 59.925-33.271 0-60.244-26.829-60.244-59.925 0-33.095 26.973-59.925 60.244-59.925 33.272 0 60.244 26.83 60.244 59.925z" stroke-width="1.9"/><path transform="matrix(.92793 0 0 .8698 1358.193 376.057)" d="M170.85 88.137c0 33.096-26.972 59.925-60.244 59.925-33.271 0-60.244-26.829-60.244-59.925 0-33.095 26.973-59.925 60.244-59.925 33.272 0 60.244 26.83 60.244 59.925z" stroke-width="1.9"/><path transform="matrix(.92793 0 0 .8698 1525.9 375.225)" d="M170.85 88.137c0 33.096-26.972 59.925-60.244 59.925-33.271 0-60.244-26.829-60.244-59.925 0-33.095 26.973-59.925 60.244-59.925 33.272 0 60.244 26.83 60.244 59.925z" stroke-width="1.9"/><path transform="matrix(.92793 0 0 .8698 1655.155 375.502)" d="M170.85 88.137c0 33.096-26.972 59.925-60.244 59.925-33.271 0-60.244-26.829-60.244-59.925 0-33.095 26.973-59.925 60.244-59.925 33.272 0 60.244 26.83 60.244 59.925z" stroke-width="1.9"/><path transform="matrix(.92793 0 0 .8698 1857.467 375.78)" d="M170.85 88.137c0 33.096-26.972 59.925-60.244 59.925-33.271 0-60.244-26.829-60.244-59.925 0-33.095 26.973-59.925 60.244-59.925 33.272 0 60.244 26.83 60.244 59.925z" stroke-width="1.9"/><path transform="matrix(.92793 0 0 .8698 2076.639 376.611)" d="M170.85 88.137c0 33.096-26.972 59.925-60.244 59.925-33.271 0-60.244-26.829-60.244-59.925 0-33.095 26.973-59.925 60.244-59.925 33.272 0 60.244 26.83 60.244 59.925z" stroke-width="1.9"/><path transform="matrix(.92793 0 0 .8698 2184.598 202.775)" d="M170.85 88.137c0 33.096-26.972 59.925-60.244 59.925-33.271 0-60.244-26.829-60.244-59.925 0-33.095 26.973-59.925 60.244-59.925 33.272 0 60.244 26.83 60.244 59.925z" stroke-width="1.9"/><path transform="matrix(.92793 0 0 .8698 1984.06 203.052)" d="M170.85 88.137c0 33.096-26.972 59.925-60.244 59.925-33.271 0-60.244-26.829-60.244-59.925 0-33.095 26.973-59.925 60.244-59.925 33.272 0 60.244 26.83 60.244 59.925z" stroke-width="1.9"/><path transform="matrix(.92793 0 0 .8698 1784.706 202.498)" d="M170.85 88.137c0 33.096-26.972 59.925-60.244 59.925-33.271 0-60.244-26.829-60.244-59.925 0-33.095 26.973-59.925 60.244-59.925 33.272 0 60.244 26.83 60.244 59.925z" stroke-width="5.738"/><path transform="matrix(.92793 0 0 .8698 1528.562 202.775)" d="M170.85 88.137c0 33.096-26.972 59.925-60.244 59.925-33.271 0-60.244-26.829-60.244-59.925 0-33.095 26.973-59.925 60.244-59.925 33.272 0 60.244 26.83 60.244 59.925z" stroke-width="1.9"/><path transform="matrix(.92793 0 0 .8698 1360.56 202.775)" d="M170.85 88.137c0 33.096-26.972 59.925-60.244 59.925-33.271 0-60.244-26.829-60.244-59.925 0-33.095 26.973-59.925 60.244-59.925 33.272 0 60.244 26.83 60.244 59.925z" stroke-width="1.9"/><path transform="matrix(.92793 0 0 .8698 1217.994 202.498)" d="M170.85 88.137c0 33.096-26.972 59.925-60.244 59.925-33.271 0-60.244-26.829-60.244-59.925 0-33.095 26.973-59.925 60.244-59.925 33.272 0 60.244 26.83 60.244 59.925z" stroke-width="1.9"/><path transform="matrix(.92793 0 0 .8698 1018.64 203.33)" d="M170.85 88.137c0 33.096-26.972 59.925-60.244 59.925-33.271 0-60.244-26.829-60.244-59.925 0-33.095 26.973-59.925 60.244-59.925 33.272 0 60.244 26.83 60.244 59.925z" stroke-width="1.9"/><path transform="matrix(.92793 0 0 .8698 781.425 202.775)" d="M170.85 88.137c0 33.096-26.972 59.925-60.244 59.925-33.271 0-60.244-26.829-60.244-59.925 0-33.095 26.973-59.925 60.244-59.925 33.272 0 60.244 26.83 60.244 59.925z" stroke-width="1.9"/><path transform="matrix(.92793 0 0 .8698 650.987 202.775)" d="M170.85 88.137c0 33.096-26.972 59.925-60.244 59.925-33.271 0-60.244-26.829-60.244-59.925 0-33.095 26.973-59.925 60.244-59.925 33.272 0 60.244 26.83 60.244 59.925z" stroke-width="1.9"/><path transform="matrix(.92793 0 0 .8698 503.985 203.33)" d="M170.85 88.137c0 33.096-26.972 59.925-60.244 59.925-33.271 0-60.244-26.829-60.244-59.925 0-33.095 26.973-59.925 60.244-59.925 33.272 0 60.244 26.83 60.244 59.925z" stroke-width="1.9"/><path transform="matrix(.92793 0 0 .8698 502.21 26.72)" d="M170.85 88.137c0 33.096-26.972 59.925-60.244 59.925-33.271 0-60.244-26.829-60.244-59.925 0-33.095 26.973-59.925 60.244-59.925 33.272 0 60.244 26.83 60.244 59.925z" stroke-width="1.9"/><path transform="matrix(.92793 0 0 .8698 1782.635 26.72)" d="M170.85 88.137c0 33.096-26.972 59.925-60.244 59.925-33.271 0-60.244-26.829-60.244-59.925 0-33.095 26.973-59.925 60.244-59.925 33.272 0 60.244 26.83 60.244 59.925z" stroke-width="1.9"/></g><path d="M216.08 451.26l55.842-.196M156.822 333.035c.418 46.66.627 62.343.627 62.343M305.489 334.288l14.64 63.322M221.202 157.258l50.196 73.125M380.888 152.642l-56.68 75.478" fill="none" stroke="#0000f5" stroke-width="1.797" stroke-linecap="butt" stroke-linejoin="miter" stroke-miterlimit="4" stroke-opacity="1" stroke-dasharray="none" marker-end="url(#a)"/><path d="M261.256 101.082l86.168.196" fill="none" stroke="#0000f5" stroke-width="1.797" stroke-linecap="butt" stroke-linejoin="miter" stroke-miterlimit="4" stroke-opacity="1" stroke-dasharray="none" marker-start="url(#b)" marker-end="url(#a)"/><path d="M605.72 158.916l.628 62.343M596.518 332.22l-19.032 65.284M597.146 331.632s-68.575 66.555-104.536 90.785c-42.379 28.555-101.265 31.548-101.265 31.548" fill="none" stroke="#0000f5" stroke-width="1.797" stroke-linecap="butt" stroke-linejoin="miter" stroke-miterlimit="4" stroke-opacity="1" stroke-dasharray="none" marker-end="url(#a)"/><path d="M452.416 332.22l37.99 25.744 62.4 42.285" fill="#ff0700" fill-opacity="1" stroke="#0000f5" stroke-width="1.797" stroke-linecap="butt" stroke-linejoin="miter" stroke-miterlimit="1" stroke-opacity="1" stroke-dasharray="none" marker-end="url(#a)"/><path d="M493.408 276.877l53.96-.196M1179.62 277.465c51.921.58 27.829-.122 82.612.196M1817.099 450.77l83.659-.196M2145.878 277.661l81.776-.784" fill="none" stroke="#0000f5" stroke-width="1.797" stroke-linecap="butt" stroke-linejoin="miter" stroke-miterlimit="4" stroke-opacity="1" stroke-dasharray="none" marker-start="url(#b)" marker-end="url(#a)"/><path d="M596.831 331.614l140.547 87.437" fill="none" stroke="#0000f5" stroke-width="1.797" stroke-linecap="butt" stroke-linejoin="miter" stroke-miterlimit="4" stroke-opacity="1" stroke-dasharray="21.56158879,1.79679907" stroke-dashoffset="0" marker-end="url(#a)"/><path d="M761.639 332.202l14.64 65.283M1128.9 333.574l59.19 72.734" fill="none" stroke="#0000f5" stroke-width="1.797" stroke-linecap="butt" stroke-linejoin="miter" stroke-miterlimit="4" stroke-opacity="1" stroke-dasharray="none" marker-end="url(#a)"/><path d="M1128.483 333.967l-295.107 81.947" fill="none" stroke="#0000f5" stroke-width="1.797" stroke-linecap="butt" stroke-linejoin="miter" stroke-miterlimit="4" stroke-opacity="1" stroke-dasharray="21.56158879,1.79679907" stroke-dashoffset="0" marker-end="url(#a)"/><path d="M1296.637 330.046l-53.333 70.184M1462.281 333.182l1.046 63.911M1632.108 332.79l-2.3 64.303M1632.527 333.574l85.54 75.282M2029.086 278.397l-82.195-.5M2087.212 333.182l59.607 74.106M2254.948 325.34l-46.64 78.811M1886.85 157.133l1.882 66.264" fill="none" stroke="#0000f5" stroke-width="1.797" stroke-linecap="butt" stroke-linejoin="miter" stroke-miterlimit="4" stroke-opacity="1" stroke-dasharray="none" marker-end="url(#a)"/><path d="M372.73 494.096c10.444 6.495 68.177 13.14 146.4 16.43 240.764 10.124 714.635 5.07 917.752.859 42.39-.879 103.535-5.073 153.92-17.877" fill="none" stroke="#c133ff" stroke-width="1.797" stroke-linecap="butt" stroke-linejoin="miter" stroke-miterlimit="4" stroke-opacity="1" stroke-dasharray="10.78079439,1.79679907" stroke-dashoffset="0" marker-start="url(#b)" marker-end="url(#a)"/><path d="M1169.814 477.936l-112.311 88.025" fill="none" stroke="#0000f5" stroke-width="1.797" stroke-linecap="butt" stroke-linejoin="miter" stroke-miterlimit="4" stroke-opacity="1" stroke-dasharray="1.79679907,7.18719626" stroke-dashoffset="0" marker-end="url(#a)"/><path d="M842.709 451.666l316.857-.588" fill="#d40000" stroke="#0000f5" stroke-width="1.797" stroke-linecap="butt" stroke-linejoin="miter" stroke-miterlimit="4" stroke-opacity="1" stroke-dasharray="none" marker-end="url(#a)"/><path d="M646.504 238.452s118.814-52.976 191.784-53.9c72.97-.923 245.333 52.527 245.333 52.527" fill="none" stroke="#0000f5" stroke-width="1.797" stroke-linecap="butt" stroke-linejoin="miter" stroke-miterlimit="4" stroke-opacity="1" stroke-dasharray="7.18719626,1.79679907" stroke-dashoffset="0" marker-start="url(#b)" marker-end="url(#a)"/><path d="M772.93 229.331S1445.794 54.253 1629.704 53.83c183.91-.425 246.685 172.954 246.685 172.954" fill="none" stroke="#0000f5" stroke-width="1.797" stroke-linecap="butt" stroke-linejoin="miter" stroke-miterlimit="4" stroke-opacity="1" stroke-dasharray="none" marker-end="url(#a)"/><path d="M943.388 277.831c51.922.58 61.711-.122 116.494.196" fill="none" stroke="#0000f5" stroke-width="1.797" stroke-linecap="butt" stroke-linejoin="miter" stroke-miterlimit="4" stroke-opacity="1" stroke-dasharray="none" marker-start="url(#b)" marker-end="url(#a)"/><path d="M900.375 332.259s31.896 48.55 75.643 66.226c43.746 17.677 186.836 39.834 186.836 39.834" fill="none" stroke="#0000f5" stroke-width="1.797" stroke-linecap="butt" stroke-linejoin="miter" stroke-miterlimit="4" stroke-opacity="1" stroke-dasharray="none" marker-end="url(#a)"/><path d="M1692.623 285.207l134.064-.588M1827.59 265.186l-134.064-.588" fill="#d40000" stroke="#0000f5" stroke-width="1.797" stroke-linecap="butt" stroke-linejoin="miter" stroke-miterlimit="4" stroke-opacity="1" stroke-dasharray="none" marker-end="url(#a)"/><path d="M1516.45 430.479s19.97-25.077 27.623-54.283c8.667-33.08 12.81-73.298 20.763-109.527 8.497-38.71 24.33-72.522 64.945-86.33 69.249-23.541 209.383 63.896 209.383 63.896" fill="none" stroke="#0000f5" stroke-width="1.797" stroke-linecap="butt" stroke-linejoin="miter" stroke-miterlimit="4" stroke-opacity="1" stroke-dasharray="none" marker-start="url(#b)" marker-end="url(#a)"/><path d="M1509.132 425.305s31.912-141.918 74.296-235.681c19.278-42.646 48.447-53.077 99.404-57.842 50.957-4.764 175.994 99.633 175.994 99.633" fill="none" stroke="#00f590" stroke-width="1.797" stroke-linecap="butt" stroke-linejoin="miter" stroke-miterlimit="4" stroke-opacity="1" stroke-dasharray="none" marker-end="url(#a)"/><path d="M2259.62 231.958S2009.947 24.68 1884.86 35.938c-125.086 11.257-151.815 37.458-219.742 75.55-94.08 52.758-177.04 118.902-177.04 118.902" fill="none" stroke="#0f0" stroke-width="1.797" stroke-linecap="butt" stroke-linejoin="miter" stroke-miterlimit="4" stroke-opacity="1" stroke-dasharray="none" marker-end="url(#a)"/><path d="M2259.388 233.857S2009.713 26.58 1884.627 37.837c-125.086 11.257-151.815 37.458-219.742 75.55-12.884 7.225-73.593 44.45-86.745 55.104-17.653 14.299-26.213 44.36-43.665 99.254-20.896 65.724-37.427 140.985-37.427 140.985" fill="none" stroke="#ab37c8" stroke-width="1.797" stroke-linecap="butt" stroke-linejoin="miter" stroke-miterlimit="4" stroke-opacity="1" stroke-dasharray="none" marker-end="url(#a)"/><path d="M2138.957 493.295c-163.433 56.552-266.67 61.372-320.785 65.416-54.783 4.094-147.614 9.475-294.27-8.313-146.655-17.788-253.872-65.686-253.872-65.686" fill="none" stroke="#7d37be" stroke-width="1.797" stroke-linecap="butt" stroke-linejoin="miter" stroke-miterlimit="4" stroke-opacity="1" stroke-dasharray="5.3903972,1.79679907" stroke-dashoffset="0" marker-end="url(#a)"/><path d="M2127.922 427.45l-196.39-109.785" fill="none" stroke="#0f0" stroke-width="1.797" stroke-linecap="butt" stroke-linejoin="miter" stroke-miterlimit="4" stroke-opacity="1" stroke-dasharray="none" marker-end="url(#a)"/><path d="M552.252 80.489S318.496-16.933 199.178 29.073C79.86 75.078 147.552 227.13 147.552 227.13" fill="none" stroke="#55d400" stroke-width="1.797" stroke-linecap="butt" stroke-linejoin="miter" stroke-miterlimit="4" stroke-opacity="1" stroke-dasharray="none" marker-end="url(#a)"/><path d="M383.32 253.035L252.601 140.31M429.333 224.48l-11.503-69.597M461.123 229.184l101.436-85.672M451.502 333.48l100.6 68.421M436.862 335.05s1.663 29.826-7.186 45.505c-8.848 15.68-47.401 40.95-47.401 40.95M420.13 332.305s1.89 24.169-6.677 25.622c-12.682 2.153-38.652-12.965-41.727-19.507-3.075-6.542 19.751-20.035 19.751-20.035" fill="none" stroke="#00d400" stroke-width="1.797" stroke-linecap="butt" stroke-linejoin="miter" stroke-miterlimit="4" stroke-opacity="1" stroke-dasharray="none" marker-end="url(#a)"/><path d="M2313.19 327.471s19.889 25.367 28.46 26.799c31.657 5.289 35.386-14.141 29.383-27.349-6.004-13.208-27.098-20.819-27.098-20.819" fill="none" stroke="#6f0" stroke-width="1.797" stroke-linecap="butt" stroke-linejoin="miter" stroke-miterlimit="4" stroke-opacity="1" stroke-dasharray="none" marker-end="url(#a)"/><path d="M748.353 224.35s-12.332-21.705-30.101-36.72c-9.574-8.088-31.123-35.706-53.858-3.43-22.735 32.275-30.444 41.915-30.444 41.915" fill="none" stroke="#00d400" stroke-width="1.797" stroke-linecap="butt" stroke-linejoin="miter" stroke-miterlimit="4" stroke-opacity="1" stroke-dasharray="none" marker-end="url(#a)"/><g fill="#002b00" font-size="8.984" font-style="normal" font-weight="700" letter-spacing="0" word-spacing="0" text-anchor="middle" fill-opacity="1" stroke="none" font-family="Sans"><text xml:space="preserve" style="text-align:center;line-height:125%;-inkscape-font-specification:Sans Bold" x="1827.456" y="195.854" transform="scale(1.03287 .96817)"><tspan x="1827.456" y="195.854">Father</tspan></text><text xml:space="preserve" style="text-align:center;line-height:125%;-inkscape-font-specification:Sans Bold" x="505.873" y="298.729" transform="scale(1.03287 .96817)"><tspan x="505.873" y="298.729">2nd wife</tspan></text><text xml:space="preserve" style="text-align:center;line-height:125%;-inkscape-font-specification:Sans Bold" x="505.191" y="276.521" transform="scale(1.03287 .96817)"><tspan x="505.191" y="276.521">Husband</tspan></text><text xml:space="preserve" style="text-align:center;line-height:125%;-inkscape-font-specification:Sans Bold" x="739.286" y="367.694" transform="scale(1.03287 .96817)"><tspan x="739.286" y="367.694">Raises with</tspan><tspan x="739.286" y="378.924">Sister-in-law</tspan></text><text xml:space="preserve" style="text-align:center;line-height:125%;-inkscape-font-specification:Sans Bold" x="1636.753" y="144.329" transform="scale(1.03287 .96817)"><tspan x="1636.753" y="144.329">Sold to</tspan><tspan x="1636.753" y="155.559">as a slave</tspan></text><text xml:space="preserve" style="text-align:center;line-height:125%;-inkscape-font-specification:Sans Bold" x="1694.313" y="270.903" transform="scale(1.03287 .96817)"><tspan x="1694.313" y="270.903">Saves</tspan></text><text xml:space="preserve" style="text-align:center;line-height:125%;-inkscape-font-specification:Sans Bold" x="1456.202" y="354.837" transform="scale(1.03287 .96817)"><tspan x="1456.202" y="354.837">Enslaves</tspan><tspan x="1456.202" y="366.067">Sells to</tspan><tspan x="1456.202" y="377.297">slavery</tspan></text><text xml:space="preserve" style="text-align:center;line-height:125%;-inkscape-font-specification:Sans Bold" x="413.162" y="202.154" transform="scale(1.03287 .96817)"><tspan x="413.162" y="202.154">Poisons (1.)</tspan></text><text xml:space="preserve" style="text-align:center;line-height:125%;-inkscape-font-specification:Sans Bold" x="288.329" y="187.276" transform="scale(1.03287 .96817)"><tspan x="288.329" y="187.276">Poisons (2.)</tspan></text><text xml:space="preserve" style="text-align:center;line-height:125%;-inkscape-font-specification:Sans Bold" x="499.094" y="193.003" transform="scale(1.03287 .96817)"><tspan x="499.094" y="193.003">Tries to poison (3.)</tspan></text><text xml:space="preserve" style="text-align:center;line-height:125%;-inkscape-font-specification:Sans Bold" x="412.556" y="404.653" transform="scale(1.03287 .96817)"><tspan x="412.556" y="404.653">Tries to poison (4.)</tspan></text><text xml:space="preserve" style="text-align:center;line-height:125%;-inkscape-font-specification:Sans Bold" x="479.413" y="379.142" transform="scale(1.03287 .96817)"><tspan x="479.413" y="379.142">Poisons (5.)</tspan></text><text xml:space="preserve" style="text-align:center;line-height:125%;-inkscape-font-specification:Sans Bold" x="373.093" y="362.531" transform="scale(1.03287 .96817)"><tspan x="373.093" y="362.531">Poisons (6.)</tspan></text><text xml:space="preserve" style="text-align:center;line-height:125%;-inkscape-font-specification:Sans Bold" x="2283.938" y="363.971" transform="scale(1.03287 .96817)"><tspan x="2283.938" y="363.971">Kills</tspan></text><text xml:space="preserve" style="text-align:center;line-height:125%;-inkscape-font-specification:Sans Bold" x="484.15" y="52.773" transform="scale(1.03287 .96817)"><tspan x="484.15" y="52.773">Kills in Duel</tspan></text><text xml:space="preserve" style="text-align:center;line-height:125%;-inkscape-font-specification:Sans Bold" x="661.108" y="169.529" transform="scale(1.03287 .96817)"><tspan x="661.108" y="169.529">Vendetta,</tspan><tspan x="661.108" y="180.759">Tries to assassinate</tspan></text><text xml:space="preserve" style="text-align:center;line-height:125%;-inkscape-font-specification:Sans Bold" x="2007.301" y="408.349" transform="scale(1.03287 .96817)"><tspan x="2007.301" y="408.349">Challenges</tspan><tspan x="2007.301" y="419.579">in a Duel</tspan></text><text xml:space="preserve" style="text-align:center;line-height:125%;-inkscape-font-specification:Sans Bold" x="2016.579" y="101.869" transform="scale(1.03287 .96817)"><tspan x="2016.579" y="101.869">Betrays and Kills</tspan></text><text xml:space="preserve" style="text-align:center;line-height:125%;-inkscape-font-specification:Sans Bold" x="1057.505" y="549.814" transform="scale(1.03287 .96817)"><tspan x="1057.505" y="549.814">Runs away in a scandalous</tspan><tspan x="1057.505" y="561.044">lesbian relationship</tspan></text><text xml:space="preserve" style="text-align:center;line-height:125%;-inkscape-font-specification:Sans Bold" x="964.941" y="218.784" transform="scale(1.03287 .96817)"><tspan x="964.941" y="218.784">Previous Relationship</tspan></text><text xml:space="preserve" style="text-align:center;line-height:125%;-inkscape-font-specification:Sans Bold" x="2159.33" y="374.707" transform="scale(1.03287 .96817)"><tspan x="2159.33" y="374.707">Father</tspan></text><text xml:space="preserve" style="text-align:center;line-height:125%;-inkscape-font-specification:Sans Bold" x="1593.679" y="372.471" transform="scale(1.03287 .96817)"><tspan x="1593.679" y="372.471">Father</tspan></text><text xml:space="preserve" style="text-align:center;line-height:125%;-inkscape-font-specification:Sans Bold" x="1411.941" y="358.558" transform="scale(1.03287 .96817)"><tspan x="1411.941" y="358.558">Father</tspan></text><text xml:space="preserve" style="text-align:center;line-height:125%;-inkscape-font-specification:Sans Bold" x="1230.958" y="375.167" transform="scale(1.03287 .96817)"><tspan x="1230.958" y="375.167">Father</tspan></text><text xml:space="preserve" style="text-align:center;line-height:125%;-inkscape-font-specification:Sans Bold" x="627.015" y="366.576" transform="scale(1.03287 .96817)"><tspan x="627.015" y="366.576">Father</tspan></text><text xml:space="preserve" style="text-align:center;line-height:125%;-inkscape-font-specification:Sans Bold" x="574.61" y="374.022" transform="scale(1.03287 .96817)"><tspan x="574.61" y="374.022">Father</tspan></text><text xml:space="preserve" style="text-align:center;line-height:125%;-inkscape-font-specification:Sans Bold" x="542.537" y="374.308" transform="scale(1.03287 .96817)"><tspan x="542.537" y="374.308">Father</tspan></text><text xml:space="preserve" style="text-align:center;line-height:125%;-inkscape-font-specification:Sans Bold" x="150.79" y="374.881" transform="scale(1.03287 .96817)"><tspan x="150.79" y="374.881">Father</tspan></text><text xml:space="preserve" style="text-align:center;line-height:125%;-inkscape-font-specification:Sans Bold" x="232.69" y="194.757" transform="scale(1.03287 .96817)"><tspan x="232.69" y="194.757">Father</tspan></text><text xml:space="preserve" style="text-align:center;line-height:125%;-inkscape-font-specification:Sans Bold" x="585.492" y="195.617" transform="scale(1.03287 .96817)"><tspan x="585.492" y="195.617">Father</tspan></text><text xml:space="preserve" style="text-align:center;line-height:125%;-inkscape-font-specification:Sans Bold" x="2044.521" y="374.881" transform="scale(1.03287 .96817)"><tspan x="2044.521" y="374.881">Mother</tspan></text><text xml:space="preserve" style="text-align:center;line-height:125%;-inkscape-font-specification:Sans Bold" x="1113.275" y="375.454" transform="scale(1.03287 .96817)"><tspan x="1113.275" y="375.454">Mother</tspan></text><text xml:space="preserve" style="text-align:center;line-height:125%;-inkscape-font-specification:Sans Bold" x="955.775" y="375.454" transform="scale(1.03287 .96817)"><tspan x="955.775" y="375.454">Mother</tspan></text><text xml:space="preserve" style="text-align:center;line-height:125%;-inkscape-font-specification:Sans Bold" x="463.227" y="363.426" transform="scale(1.03287 .96817)"><tspan x="463.227" y="363.426">Mother</tspan></text><text xml:space="preserve" style="text-align:center;line-height:125%;-inkscape-font-specification:Sans Bold" x="297.995" y="374.881" transform="scale(1.03287 .96817)"><tspan x="297.995" y="374.881">Mother</tspan></text><text xml:space="preserve" style="text-align:center;line-height:125%;-inkscape-font-specification:Sans Bold" x="342.667" y="194.471" transform="scale(1.03287 .96817)"><tspan x="342.667" y="194.471">Mother</tspan></text><text xml:space="preserve" style="text-align:center;line-height:125%;-inkscape-font-specification:Sans Bold" x="1792.685" y="478.146" transform="scale(1.03287 .96817)"><tspan x="1792.685" y="478.146">Wife</tspan></text><text xml:space="preserve" style="text-align:center;line-height:125%;-inkscape-font-specification:Sans Bold" x="288.789" y="123.221" transform="scale(1.03287 .96817)"><tspan x="288.789" y="123.221">Wife</tspan></text><text xml:space="preserve" style="text-align:center;line-height:125%;-inkscape-font-specification:Sans Bold" x="1180.529" y="303.058" transform="scale(1.03287 .96817)"><tspan x="1180.529" y="303.058">Wife</tspan></text><text xml:space="preserve" style="text-align:center;line-height:125%;-inkscape-font-specification:Sans Bold" x="2114.938" y="305.635" transform="scale(1.03287 .96817)"><tspan x="2114.938" y="305.635">Wife, cousin</tspan></text><text xml:space="preserve" style="text-align:center;line-height:125%;-inkscape-font-specification:Sans Bold" x="1806.553" y="455.689" transform="scale(1.03287 .96817)"><tspan x="1806.553" y="455.689">Husband</tspan></text><text xml:space="preserve" style="text-align:center;line-height:125%;-inkscape-font-specification:Sans Bold" x="2122.76" y="270.358" transform="scale(1.03287 .96817)"><tspan x="2122.76" y="270.358">Husband, cousin</tspan></text><text xml:space="preserve" style="text-align:center;line-height:125%;-inkscape-font-specification:Sans Bold" x="1178.043" y="268.926" transform="scale(1.03287 .96817)"><tspan x="1178.043" y="268.926">Husband</tspan></text><text xml:space="preserve" style="text-align:center;line-height:125%;-inkscape-font-specification:Sans Bold" x="286.875" y="89.662" transform="scale(1.03287 .96817)"><tspan x="286.875" y="89.662">Husband</tspan></text><text xml:space="preserve" style="text-align:center;line-height:125%;-inkscape-font-specification:Sans Bold" x="233.634" y="463.095" transform="scale(1.03287 .96817)"><tspan x="233.634" y="463.095">Wants</tspan><tspan x="233.634" y="474.324">to marry</tspan></text><text xml:space="preserve" style="text-align:center;line-height:125%;-inkscape-font-specification:Sans Bold" x="884.541" y="530.39" transform="scale(1.03287 .96817)"><tspan x="884.541" y="530.39">Lovers</tspan></text><text xml:space="preserve" style="text-align:center;line-height:125%;-inkscape-font-specification:Sans Bold" x="937.648" y="474.535" transform="scale(1.03287 .96817)"><tspan x="937.648" y="474.535">Supposed to marry</tspan></text><text xml:space="preserve" style="text-align:center;line-height:125%;-inkscape-font-specification:Sans Bold" x="979.614" y="424.149" transform="scale(1.03287 .96817)"><tspan x="979.614" y="424.149">Courted</tspan></text><text xml:space="preserve" style="text-align:center;line-height:125%;-inkscape-font-specification:Sans Bold" x="1635.179" y="571.615" transform="scale(1.03287 .96817)"><tspan x="1635.179" y="571.615">Originally supposed to marry</tspan></text><text xml:space="preserve" style="text-align:center;line-height:125%;-inkscape-font-specification:Sans Bold" x="967.232" y="280.688" transform="scale(1.03287 .96817)"><tspan x="967.232" y="280.688">&quot;Friend&quot;, financial partner</tspan></text><text xml:space="preserve" style="text-align:center;line-height:125%;-inkscape-font-specification:Sans Bold" x="1697.035" y="304.772" transform="scale(1.03287 .96817)"><tspan x="1697.035" y="304.772">Employer</tspan></text><text xml:space="preserve" style="text-align:center;line-height:125%;-inkscape-font-specification:Sans Bold" x="1940.394" y="284.396" transform="scale(1.03287 .96817)"><tspan x="1940.394" y="284.396">Fiancée</tspan></text><text xml:space="preserve" style="text-align:center;line-height:125%;-inkscape-font-specification:Sans Bold" x="1238.924" y="110.494" transform="scale(1.03287 .96817)"><tspan x="1238.924" y="110.494">Servant</tspan></text><text xml:space="preserve" style="text-align:center;line-height:125%;-inkscape-font-specification:Sans Bold" x="1610.878" y="197.565" transform="scale(1.03287 .96817)"><tspan x="1610.878" y="197.565">Loves</tspan></text></g><text transform="scale(1.03287 .96817)" y="363.428" x="1723.094" style="text-align:center;line-height:125%;-inkscape-font-specification:Sans Bold" xml:space="preserve" font-size="8.984" font-style="normal" font-weight="700" letter-spacing="0" word-spacing="0" text-anchor="middle" fill="#000" fill-opacity="1" stroke="none" font-family="Sans"><tspan y="363.428" x="1723.094">Saves</tspan></text><path d="M344.364 244.742c54.218-45.116 131.704-49.112 213.335 4.266" fill="none" stroke="#0000f5" stroke-width="1.797" stroke-linecap="butt" stroke-linejoin="miter" stroke-miterlimit="4" stroke-opacity="1" stroke-dasharray="1.797,3.594" marker-start="url(#b)" marker-end="url(#a)" stroke-dashoffset="0"/><text xml:space="preserve" style="text-align:center;line-height:125%;-inkscape-font-specification:Sans Bold" x="498.455" y="231.211" transform="scale(1.03287 .96817)" font-size="8.984" font-style="normal" font-weight="700" letter-spacing="0" word-spacing="0" text-anchor="middle" fill="#002b00" fill-opacity="1" stroke="none" font-family="Sans"><tspan x="498.455" y="231.211">1st wife</tspan></text></svg>